<?xml version="1.0" encoding="iso-8859-1"?>
<!-- Generator: Adobe Illustrator 19.0.0, SVG Export Plug-In . SVG Version: 6.00 Build 0)  -->
<svg version="1.1" id="Layer_1" xmlns="http://www.w3.org/2000/svg" xmlns:xlink="http://www.w3.org/1999/xlink" x="0px" y="0px" fill='#087E8B'
	 viewBox="0 0 268.566 268.566" style="enable-background:new 0 0 268.566 268.566;" xml:space="preserve">
<g>
	<g>
		<path d="M210.349,158.804v-31.151h28.809c6.701,0,10.03-8.154,5.26-12.847L129.904,2.153c-2.919-2.871-7.601-2.871-10.519,0
			L4.87,114.807c-4.777,4.699-1.432,12.847,5.26,12.847h28.809v133.412c0,4.142,3.358,7.5,7.5,7.5h50.216c4.142,0,7.5-3.358,7.5-7.5
			v-55.114h37.891c0.823,2.236,1.852,4.392,3.086,6.44v48.674c0,4.142,3.358,7.5,7.5,7.5h50.191c0.005,0,0.01-0.001,0.015-0.001
			c0.003,0,0.007,0.001,0.01,0.001c1.787,0,3.593-0.664,5.001-1.933c0.213-0.192,46.716-46.702,46.918-46.905
			c7.208-7.208,11.177-16.79,11.177-26.982C265.944,164.189,235.674,145.814,210.349,158.804z M139.747,190.95H96.656v0.001
			c-4.142,0-7.5,3.358-7.5,7.5v55.114H53.939V120.153c0-4.142-3.358-7.5-7.5-7.5h-17.99l96.196-94.632l96.195,94.632h-17.991
			c-4.142,0-7.5,3.358-7.5,7.5v38.669C170.635,146.046,141.017,163.34,139.747,190.95z M160.133,253.565v-24.558
			c5.445,5.451,13.464,13.451,24.579,24.558H160.133z M244.162,209.12l-41.338,41.338c-39.168-39.168-41.291-41.231-42.923-43.094
			c-7.52-9.204-6.755-22.654,1.585-30.992c8.904-8.917,23.617-9.131,32.749,0.001l3.287,3.287c2.929,2.929,7.677,2.928,10.606,0
			l3.287-3.287c9.03-9.028,23.72-9.027,32.748,0C253.212,185.422,253.212,200.07,244.162,209.12z"/>
	</g>
</g>
<g>
</g>
<g>
</g>
<g>
</g>
<g>
</g>
<g>
</g>
<g>
</g>
<g>
</g>
<g>
</g>
<g>
</g>
<g>
</g>
<g>
</g>
<g>
</g>
<g>
</g>
<g>
</g>
<g>
</g>
</svg>
