<?xml version="1.0" encoding="iso-8859-1"?>
<!-- Generator: Adobe Illustrator 16.0.0, SVG Export Plug-In . SVG Version: 6.00 Build 0)  -->
<!DOCTYPE svg PUBLIC "-//W3C//DTD SVG 1.1//EN" "http://www.w3.org/Graphics/SVG/1.1/DTD/svg11.dtd">
<svg version="1.1" id="Capa_1" xmlns="http://www.w3.org/2000/svg" xmlns:xlink="http://www.w3.org/1999/xlink" x="0px" y="0px" fill='#f7aa35'
	 width="336.941px" height="336.941px" viewBox="0 0 336.941 336.941" style="enable-background:new 0 0 336.941 336.941;"
	 xml:space="preserve">
<g>
	<path d="M153.879,147.092c-16.722,0-35.208,8.506-49.451,22.755c-25.104,25.102-30.293,59.241-11.82,77.72
		c7.148,7.15,16.922,10.927,28.268,10.927c16.714,0,35.203-8.501,49.444-22.756c25.106-25.106,30.301-59.246,11.823-77.722
		C174.994,150.873,165.22,147.092,153.879,147.092z M120.875,242.294c-4.849,0-11.707-1.076-16.814-6.191
		c-11.649-11.644-6.233-36.751,11.82-54.802c11.275-11.274,25.481-18.009,37.998-18.009c4.844,0,11.697,1.071,16.807,6.187
		c11.646,11.644,6.236,36.75-11.82,54.807C147.588,235.56,133.381,242.294,120.875,242.294z"/>
	<path d="M294.345,61.409c-3.079,0-6.122,0.354-9.08,1.05c-2.036-2.539-4.219-4.979-6.529-7.291c-2.352-2.349-4.835-4.57-7.43-6.637
		c3.148-13.186-0.67-27.158-10.489-36.98C253.37,4.105,243.467,0,232.936,0c-10.525,0-20.435,4.105-27.88,11.552
		c-6.497,6.502-10.474,15.066-11.338,24.139c-7.167,3.104-13.559,7.452-19.063,12.955c-10.795,10.794-17.139,25.357-18.22,41.217
		c-11.923-4.098-31.994-9.692-52.661-9.692c-17.149,0-31.653,3.878-43.107,11.515c-13.83,9.215-19.517,19.147-16.907,29.521
		c3.488,13.866,21.096,21.784,35.379,25.682c-20.018,21.168-62.63,68.027-72.085,93.107c-5.885,15.609-4.983,31.895,2.354,42.504
		c8.15,11.781,23.161,14.882,40.561,7.736c-5.574,13.621-4.374,23.271-1.416,29.748c4.849,10.62,16.524,16.959,31.214,16.959
		c6.71,0,13.774-1.318,20.405-3.823c25.072-9.45,71.89-52.022,93.071-72.051c4.598,16.717,14.375,35.928,30.411,35.928
		c8.738,0,17.092-5.885,24.828-17.492c22.992-34.478,5.458-86.854-0.58-102.378c14.412-1.772,27.453-7.963,37.367-17.872
		c5.542-5.55,9.909-12,13.021-19.219c9.049-0.886,17.429-4.833,23.925-11.322c15.372-15.38,15.372-40.392,0-55.767
		C314.77,65.51,304.871,61.409,294.345,61.409z M310.756,117.258c-4.661,4.664-11.032,7.085-17.677,6.739l-6.19-0.335l-1.931,5.896
		c-2.31,7.008-6.054,13.149-11.143,18.241c-10.204,10.207-25.233,15.029-41.096,13.273l-22.987-2.587l22.112,22.114
		c3.639,8.875,23.107,60.007,3.174,89.918c-6.359,9.534-10.293,10.272-11.354,10.272c-6.412,0-15.599-19.533-17.223-36.667
		l-1.619-16.953l-12.134,11.954c-19.108,18.832-74.013,69.699-98.221,78.833c-4.828,1.814-9.909,2.779-14.692,2.779
		c-8.176,0-14.338-2.806-16.482-7.494c-4-8.754,3.425-25.322,19.867-44.328c1.722-1.993,4.937-5.695,2.7-10.589l-2.193-4.746h-5.205
		c-3.241,0-5.255,1.745-7.198,3.428c-21.039,18.204-33.437,20.925-38.96,20.925c-4.271,0-7.399-1.519-9.563-4.646
		c-4.224-6.112-4.435-17.197-0.525-27.575c9.125-24.205,59.993-79.109,78.83-98.218l11.955-12.134l-16.957-1.616
		c-16.139-1.538-34.942-10.012-36.569-16.49c-0.701-2.803,3.198-7.431,10.186-12.087c8.749-5.83,20.229-8.791,34.122-8.791
		c24.904,0,49.842,9.537,55.793,11.963l15.854,15.852l-2.587-22.986c-1.809-16.129,2.906-30.726,13.273-41.094
		c5.068-5.065,11.164-8.796,18.136-11.108l5.911-1.954l-0.374-6.215c-0.391-6.645,2.062-13.144,6.729-17.816
		c4.388-4.385,10.226-6.803,16.427-6.803c6.207,0,12.039,2.412,16.427,6.803c6.697,6.697,8.659,16.68,4.989,25.428l-2.542,6.064
		l5.405,3.731c3.591,2.479,6.977,5.297,10.062,8.388c3.069,3.071,5.864,6.415,8.311,9.935l3.729,5.374l6.038-2.529
		c8.538-3.562,18.815-1.582,25.397,5.002C319.811,93.459,319.811,108.201,310.756,117.258z"/>
	<path d="M210.613,98.936c7.899,7.899,20.15-4.354,12.25-12.248C214.959,78.793,202.714,91.036,210.613,98.936z"/>
	<path d="M237.149,123.431c7.899,7.899,20.149-4.354,12.245-12.248C241.495,103.289,229.255,115.531,237.149,123.431z"/>
	<path d="M209.596,125.812c7.899,7.899,20.145-4.354,12.245-12.248C213.941,105.664,201.69,117.912,209.596,125.812z"/>
</g>
<g>
</g>
<g>
</g>
<g>
</g>
<g>
</g>
<g>
</g>
<g>
</g>
<g>
</g>
<g>
</g>
<g>
</g>
<g>
</g>
<g>
</g>
<g>
</g>
<g>
</g>
<g>
</g>
<g>
</g>
</svg>
