<?xml version="1.0" encoding="iso-8859-1"?>
<!-- Generator: Adobe Illustrator 19.0.0, SVG Export Plug-In . SVG Version: 6.00 Build 0)  -->
<svg version="1.1" id="Layer_1" xmlns="http://www.w3.org/2000/svg" xmlns:xlink="http://www.w3.org/1999/xlink" x="0px" y="0px" fill='#c2dace'
	 viewBox="0 0 512 512" style="enable-background:new 0 0 512 512;" xml:space="preserve">
<g>
	<g>
		<path d="M501.801,52.016H10.199C4.566,52.016,0,56.582,0,62.215v319.706c0,5.633,4.566,10.199,10.199,10.199h46.112l-9.258,56.001
			c-0.489,2.955,0.347,5.977,2.285,8.261c1.938,2.285,4.782,3.601,7.778,3.601h397.769c2.997,0,5.84-1.318,7.778-3.601
			c1.938-2.284,2.773-5.306,2.285-8.261l-9.258-56.001h46.112c5.632,0,10.199-4.566,10.199-10.199V62.215
			C512,56.582,507.433,52.016,501.801,52.016z M69.139,439.586l7.846-47.465h15.533l-2.693,22.168
			c-0.352,2.898,0.555,5.807,2.491,7.993c1.936,2.185,4.715,3.436,7.634,3.436h312.096c2.919,0,5.698-1.251,7.634-3.436
			c1.935-2.186,2.843-5.096,2.49-7.993l-2.692-22.168h15.532l7.849,47.465H69.139z M111.465,405.318l1.603-13.198h285.864
			l1.602,13.198H111.465z M491.602,371.722H20.398V72.414h471.203V371.722z"/>
	</g>
</g>
<g>
	<g>
		<path d="M471.203,82.203H40.797c-5.633,0-10.199,4.566-10.199,10.199v259.334c0,5.633,4.566,10.199,10.199,10.199h430.406
			c5.632,0,10.199-4.566,10.199-10.199V92.402C481.402,86.769,476.835,82.203,471.203,82.203z M461.004,341.537H50.996V102.601
			h410.008V341.537z"/>
	</g>
</g>
<g>
	<g>
		<path d="M318.215,310.665h-5.1c-5.632,0-10.199,4.566-10.199,10.199c0,5.633,4.567,10.199,10.199,10.199h5.1
			c5.632,0,10.199-4.566,10.199-10.199C328.414,315.231,323.847,310.665,318.215,310.665z"/>
	</g>
</g>
<g>
	<g>
		<path d="M437.546,310.665h-82.614c-5.632,0-10.199,4.566-10.199,10.199c0,5.633,4.567,10.199,10.199,10.199h82.614
			c5.632,0,10.199-4.566,10.199-10.199C447.745,315.231,443.178,310.665,437.546,310.665z"/>
	</g>
</g>
<g>
</g>
<g>
</g>
<g>
</g>
<g>
</g>
<g>
</g>
<g>
</g>
<g>
</g>
<g>
</g>
<g>
</g>
<g>
</g>
<g>
</g>
<g>
</g>
<g>
</g>
<g>
</g>
<g>
</g>
</svg>
