<?xml version="1.0" encoding="iso-8859-1"?>
<!-- Generator: Adobe Illustrator 19.0.0, SVG Export Plug-In . SVG Version: 6.00 Build 0)  -->
<svg version="1.1" id="Capa_1" xmlns="http://www.w3.org/2000/svg" xmlns:xlink="http://www.w3.org/1999/xlink" x="0px" y="0px" fill='#f7aa35'
	 viewBox="0 0 60 60" style="enable-background:new 0 0 60 60;" xml:space="preserve">
<g>
	<g>
		<path d="M35,0H21c-0.6,0-1,0.4-1,1v58c0,0.6,0.4,1,1,1h14c0.6,0,1-0.4,1-1V1C36,0.4,35.6,0,35,0z M34,58H22v-5h5v-2h-5v-5h5v-2h-5
			v-4h5v-2h-5v-4h5v-2h-5v-5h5v-2h-5v-4h5v-2h-5v-4h5v-2h-5V9h5V7h-5V2h12V58z"/>
		<path d="M10.9,0.6C10.8,0.2,10.4,0,10,0S9.2,0.2,9.1,0.6l-5,11.8C4,12.5,4,12.7,4,12.8V59c0,0.6,0.4,1,1,1h10c0.6,0,1-0.4,1-1
			V12.8c0-0.1,0-0.3-0.1-0.4L10.9,0.6z M10,3.6l4,9.4v38h-3V16H9v35H6V14h5v-2H6.4L10,3.6z M6,58v-5h8v5H6z"/>
		<path d="M55,28H40c-0.6,0-1,0.4-1,1v30c0,0.6,0.4,1,1,1h15c0.6,0,1-0.4,1-1V29C56,28.4,55.6,28,55,28z M54,58H41V39h12v-2H41v-7
			h13V58z"/>
		<rect x="43" y="50" width="3" height="2"/>
		<rect x="43" y="53" width="6" height="2"/>
	</g>
</g>
<g>
</g>
<g>
</g>
<g>
</g>
<g>
</g>
<g>
</g>
<g>
</g>
<g>
</g>
<g>
</g>
<g>
</g>
<g>
</g>
<g>
</g>
<g>
</g>
<g>
</g>
<g>
</g>
<g>
</g>
</svg>
