<?xml version="1.0" encoding="iso-8859-1"?>
<!-- Generator: Adobe Illustrator 17.1.0, SVG Export Plug-In . SVG Version: 6.00 Build 0)  -->
<!DOCTYPE svg PUBLIC "-//W3C//DTD SVG 1.1//EN" "http://www.w3.org/Graphics/SVG/1.1/DTD/svg11.dtd">
<svg version="1.1" id="Capa_1" xmlns="http://www.w3.org/2000/svg" xmlns:xlink="http://www.w3.org/1999/xlink" x="0px" y="0px" fill='#087E8B'
	 viewBox="0 0 197.68 197.68" style="enable-background:new 0 0 197.68 197.68;" xml:space="preserve">
<path d="M177.533,68.813c-0.675-2.822-6.863-27.796-15.952-35.587c-5.329-4.568-16.851-6.777-27.993-8.913
	c-5.315-1.02-12.495-2.396-14.505-3.503c-0.96-2.619-1.222-10.417-0.848-16.566c0.067-1.101-0.323-2.181-1.079-2.984
	S115.347,0,114.243,0H83.437c-1.104,0-2.157,0.456-2.914,1.259c-0.756,0.804-1.146,1.884-1.078,2.985
	c0.376,6.145,0.114,13.943-0.848,16.565c-2.01,1.107-9.189,2.483-14.505,3.503c-11.143,2.136-22.664,4.345-27.993,8.913
	c-9.089,7.791-15.277,32.765-15.952,35.587c-0.25,1.042-0.07,2.141,0.497,3.05s1.477,1.552,2.523,1.785l20.125,4.482
	c1.569,0.352,3.194-0.274,4.127-1.583l2.137-2.999c1.926,15.855,5.364,46.055,5.364,59.549c0,18.014-9.007,38.307-9.098,38.51
	c-0.61,1.361-0.413,2.949,0.512,4.119c0.402,0.509,10.007,12.522,22.821,17.027c8.683,3.053,20.205,4.313,26.3,4.792
	c1.125,0.088,2.264,0.133,3.385,0.133s2.26-0.045,3.385-0.133c6.095-0.479,17.617-1.738,26.3-4.792
	c12.814-4.505,22.419-16.518,22.821-17.027c0.926-1.171,1.123-2.759,0.511-4.121c-0.091-0.203-9.097-20.449-9.097-38.508
	c0-13.72,3.556-44.715,5.461-60.338l3.176,3.966c0.964,1.204,2.532,1.744,4.035,1.395l19.125-4.482
	c1.036-0.243,1.933-0.889,2.491-1.794C177.607,70.939,177.781,69.848,177.533,68.813z M102.84,171.34c0,2.209-1.791,4-4,4
	s-4-1.791-4-4v-133c0-2.209,1.791-4,4-4s4,1.791,4,4V171.34z"/>
<g>
</g>
<g>
</g>
<g>
</g>
<g>
</g>
<g>
</g>
<g>
</g>
<g>
</g>
<g>
</g>
<g>
</g>
<g>
</g>
<g>
</g>
<g>
</g>
<g>
</g>
<g>
</g>
<g>
</g>
</svg>
