<?xml version="1.0" encoding="iso-8859-1"?>
<!-- Generator: Adobe Illustrator 19.0.0, SVG Export Plug-In . SVG Version: 6.00 Build 0)  -->
<svg version="1.1" id="Layer_1" xmlns="http://www.w3.org/2000/svg" xmlns:xlink="http://www.w3.org/1999/xlink" x="0px" y="0px" fill='#087E8B'
	 viewBox="0 0 512 512" style="enable-background:new 0 0 512 512;" xml:space="preserve">
<g>
	<g>
		<path d="M288.043,314.632c-11.438,0-22.467,4.383-31.216,12.374c-0.447,0.051-1.203,0.051-1.652,0
			c-8.752-7.991-19.779-12.374-31.215-12.374c-26.952,0-48.879,24.107-48.879,53.739s21.927,53.739,48.879,53.739
			c11.434,0,22.46-4.381,31.218-12.376c0.45-0.05,1.201-0.05,1.647,0.001c8.752,7.991,19.78,12.375,31.218,12.375
			c26.951,0,48.877-24.107,48.877-53.739S314.994,314.632,288.043,314.632z M230.048,400.433c-1.866,0.486-3.893,0.779-6.089,0.779
			c-15.43,0-27.981-14.733-27.981-32.841c0-18.109,12.552-32.841,27.981-32.841c2.195,0,4.222,0.293,6.089,0.779
			c-9.338,7.573-15.321,19.13-15.321,32.062S220.71,392.859,230.048,400.433z M256,388.746c-11.235,0-20.375-9.141-20.375-20.375
			c0-11.236,9.141-20.376,20.375-20.376c11.235,0,20.376,9.14,20.376,20.376C276.375,379.606,267.235,388.746,256,388.746z
			 M288.043,401.212c-2.195,0-4.224-0.294-6.09-0.779c9.338-7.573,15.32-19.13,15.32-32.062s-5.983-24.488-15.32-32.062
			c1.867-0.486,3.894-0.779,6.09-0.779c15.428,0,27.979,14.732,27.979,32.841C316.022,386.479,303.471,401.212,288.043,401.212z"/>
	</g>
</g>
<g>
	<g>
		<path d="M192.976,254.503c-8.067,0-14.629,6.562-14.629,14.629s6.562,14.629,14.629,14.629c8.066,0,14.629-6.562,14.629-14.629
			S201.043,254.503,192.976,254.503z"/>
	</g>
</g>
<g>
	<g>
		<path d="M319.024,254.503c-8.067,0-14.629,6.562-14.629,14.629s6.562,14.629,14.629,14.629c8.067,0,14.629-6.562,14.629-14.629
			S327.091,254.503,319.024,254.503z"/>
	</g>
</g>
<g>
	<g>
		<path d="M450.931,209.523c-1.035,0-2.071,0.03-3.105,0.086c-12.111-35.793-33.974-67.306-62.617-91.12
			c5.663-15.206,14.701-49.461-4.411-78.604c-1.932-2.945-5.216-4.719-8.737-4.719c-34.285,0-64.463,9.413-86.225,18.939
			c-5.974-10.29-17.106-17.23-29.837-17.23c-12.73,0-23.863,6.94-29.836,17.229c-21.761-9.525-51.939-18.938-86.224-18.938
			c-3.521,0-6.806,1.774-8.737,4.719c-19.065,29.073-10.117,63.233-4.451,78.496c-28.684,23.801-50.549,55.333-62.637,91.227
			c-1.014-0.053-2.028-0.085-3.043-0.085C27.396,209.523,0,238.608,0,274.356s27.396,64.831,61.069,64.831
			c1.033,0,2.068-0.03,3.1-0.086c8.082,23.953,20.623,46.366,37.152,65.915c30.457,36.022,72.665,60.402,118.848,68.654
			c0.622,0.111,1.239,0.164,1.85,0.164c4.965,0,9.371-3.554,10.273-8.613c1.016-5.681-2.767-11.109-8.448-12.124
			c-86.581-15.468-149.422-90.64-149.422-178.742c0.002-90.807,66.78-167.29,156.093-179.803
			c6.31,6.928,15.396,11.286,25.483,11.286c10.084,0,19.167-4.355,25.477-11.279c89.185,12.514,156.1,89.315,156.101,179.796
			c0,88.22-62.94,163.409-149.659,178.784c-5.682,1.007-9.472,6.43-8.465,12.112c0.898,5.066,5.305,8.627,10.277,8.627
			c0.605,0,1.219-0.052,1.837-0.162c46.244-8.199,88.515-32.562,119.027-68.603c16.571-19.573,29.14-42.02,37.236-66.013
			c1.032,0.055,2.067,0.086,3.1,0.086c33.674,0,61.069-29.083,61.069-64.831C512,238.608,484.604,209.523,450.931,209.523z
			 M58.291,318.185c-20.859-1.566-37.393-20.626-37.393-43.829c0-23.204,16.534-42.264,37.394-43.83
			c0.002,0.001,0.004,0.002,0.006,0.003c-3.118,14.139-4.773,28.804-4.774,43.826c0,14.814,1.633,29.492,4.8,43.782
			C58.314,318.153,58.302,318.17,58.291,318.185z M144.389,105.298c-3.687-12.19-7.08-31.854,1.518-49.127
			c30.227,1.071,56.698,10.075,75.433,18.673C193.163,79.69,167.13,90.27,144.389,105.298z M255.999,84.94
			c-7.49,0-13.584-6.093-13.584-13.584c0-7.49,6.094-13.584,13.584-13.584c7.49,0,13.584,6.094,13.584,13.584
			C269.583,78.847,263.489,84.94,255.999,84.94z M367.543,105.361c-22.732-15.056-48.74-25.672-76.869-30.524
			c18.734-8.596,45.197-17.594,75.413-18.667C374.63,73.391,371.218,93.14,367.543,105.361z M453.709,318.185
			c-0.014-0.01-0.024-0.022-0.038-0.032c3.169-14.294,4.803-28.978,4.803-43.798c0-14.989-1.662-29.636-4.793-43.768
			c0.009-0.02,0.018-0.041,0.027-0.062c20.859,1.566,37.393,20.626,37.393,43.83C491.102,297.559,474.569,316.619,453.709,318.185z"
			/>
	</g>
</g>
<g>
	<g>
		<path d="M256.252,455.938l-0.245-0.003c-5.764-0.075-10.506,4.546-10.579,10.317c-0.072,5.77,4.547,10.506,10.317,10.579
			l0.245,0.003c0.045,0.001,0.089,0.001,0.134,0.001c5.709,0,10.374-4.593,10.445-10.318
			C266.641,460.746,262.023,456.01,256.252,455.938z"/>
	</g>
</g>
<g>
</g>
<g>
</g>
<g>
</g>
<g>
</g>
<g>
</g>
<g>
</g>
<g>
</g>
<g>
</g>
<g>
</g>
<g>
</g>
<g>
</g>
<g>
</g>
<g>
</g>
<g>
</g>
<g>
</g>
</svg>
