<?xml version="1.0" encoding="iso-8859-1"?>
<!-- Generator: Adobe Illustrator 17.1.0, SVG Export Plug-In . SVG Version: 6.00 Build 0)  -->
<!DOCTYPE svg PUBLIC "-//W3C//DTD SVG 1.1//EN" "http://www.w3.org/Graphics/SVG/1.1/DTD/svg11.dtd">
<svg version="1.1" id="Capa_1" xmlns="http://www.w3.org/2000/svg" xmlns:xlink="http://www.w3.org/1999/xlink" x="0px" y="0px" fill='#087E8B'
	 viewBox="0 0 488.869 488.869" style="enable-background:new 0 0 488.869 488.869;" xml:space="preserve">
<g>
	<path d="M399.698,241.25l-26.575-70.644c-2.22-5.902-4.463-16.204-4.898-22.496l-7.021-101.526
		c-0.511-7.39-5.699-16.456-11.813-20.64L315.78,2.94C313.011,1.044,309.441,0,305.73,0c-4.521,0-8.881,1.536-11.96,4.214
		l-6.999,6.087c-5.294,4.604-11.243,13.815-13.264,20.533l-28.654,95.3c-0.142,0.472-0.281,0.972-0.419,1.487
		c-0.138-0.514-0.277-1.015-0.419-1.487l-28.654-95.3c-2.021-6.718-7.97-15.929-13.264-20.533l-6.999-6.087
		C192.02,1.536,187.66,0,183.139,0c-3.711,0-7.28,1.044-10.05,2.94l-33.611,23.004c-6.113,4.184-11.302,13.25-11.813,20.64
		l-7.021,101.526c-0.436,6.292-2.679,16.594-4.898,22.496L89.171,241.25c-1.395,3.707-1.104,7.47,0.799,10.325
		c1.901,2.855,5.261,4.575,9.218,4.718l15.586,0.564c0.184,0.006,0.367,0.01,0.553,0.01c7.547,0,15.367-5.537,17.803-12.605
		l24.763-71.848c2.225-6.451,4.206-17.252,4.419-24.077l1.253-40.287l5.502,44.372c0.767,6.176-0.071,16.437-1.829,22.407
		l-15.533,52.771c-1.126,3.826-0.589,7.517,1.511,10.393c2.1,2.876,5.451,4.512,9.438,4.605l39.101,0.913l0.394,0.004
		c7.413,0,16.263-4.862,20.147-11.068l18.605-29.724c1.298-2.075,2.507-4.715,3.536-7.564c1.029,2.849,2.238,5.489,3.536,7.565
		l18.605,29.723c3.886,6.207,12.735,11.068,20.147,11.068l39.494-0.917c3.986-0.093,7.338-1.729,9.438-4.605
		c2.1-2.876,2.637-6.567,1.511-10.393l-15.533-52.771c-1.758-5.97-2.596-16.231-1.829-22.407l5.502-44.372l1.253,40.287
		c0.213,6.825,2.194,17.625,4.419,24.076l24.763,71.849c2.436,7.068,10.256,12.605,17.803,12.605c0.001,0,0.002,0,0.003,0
		c0.185,0,0.367-0.003,0.551-0.01l15.584-0.564c3.958-0.143,7.317-1.863,9.219-4.718C400.802,248.72,401.093,244.957,399.698,241.25
		z M243.723,166.023c-6.154,0-11.144-4.989-11.144-11.144s4.989-11.144,11.144-11.144s11.144,4.989,11.144,11.144
		S249.878,166.023,243.723,166.023z"/>
	<path d="M334.067,273.057c-2.046-11.45-13.172-20.764-24.804-20.764H179.605c-11.621,0-22.814,9.293-24.951,20.717l-4.545,24.296
		c-1.95,10.42-3.536,26.088-3.536,34.926c0,8.761,0.664,24.429,1.481,34.927l7.818,100.461
		c0.911,11.716,11.214,21.249,22.966,21.249H310.03c11.751,0,22.059-9.531,22.978-21.246l7.795-99.387
		c0.823-10.492,1.493-25.759,1.493-34.031c0-8.336-1.517-23.605-3.382-34.037L334.067,273.057z"/>
</g>
<g>
</g>
<g>
</g>
<g>
</g>
<g>
</g>
<g>
</g>
<g>
</g>
<g>
</g>
<g>
</g>
<g>
</g>
<g>
</g>
<g>
</g>
<g>
</g>
<g>
</g>
<g>
</g>
<g>
</g>
</svg>
