<?xml version="1.0" encoding="iso-8859-1"?>
<!-- Generator: Adobe Illustrator 19.0.0, SVG Export Plug-In . SVG Version: 6.00 Build 0)  -->
<svg version="1.1" id="Layer_1" xmlns="http://www.w3.org/2000/svg" xmlns:xlink="http://www.w3.org/1999/xlink" x="0px" y="0px" fill='rgba(0,0,0,0.75)'
	 viewBox="0 0 512 512" style="enable-background:new 0 0 512 512;" xml:space="preserve">
<g>
	<g>
		<path d="M512,144.059l-33.655-50.944l29.053-25.045L443.426,4.099l-25.233,29.27L368.445,0.504l-50.676,90.624
			c-13.742-5.311-27.207-7.315-40.528-6.057c-30.394,2.873-58.513,23.026-83.572,59.898c-11.499,16.92-23.705,34.607-36.626,53.335
			C117.171,256.087,71.977,321.582,41.072,374.72C-0.412,446.047-9.556,482.917,9.511,501.985
			c6.292,6.292,14.519,9.512,25.288,9.512c21.863,0,54.189-13.279,101.976-41.071c53.138-30.904,118.633-76.099,176.417-115.971
			c18.728-12.921,36.415-25.127,53.335-36.626c36.873-25.059,57.025-53.177,59.898-83.572c1.22-12.902-0.619-25.94-5.561-39.234
			L512,144.059z M379.879,47.527l16.634,10.989l-44.826,51.999c-1.675-1.257-3.344-2.453-5.008-3.617L379.879,47.527z
			 M393.639,231.158c-1.904,20.157-17.256,40.154-45.623,59.433c-10.005,6.8-20.268,13.839-30.836,21.114l-44.134-44.133
			l-23.285,23.285l39.855,39.855c-18.948,13.075-38.077,26.256-57.009,39.111l-15.363-15.363l-23.285,23.285l10.814,10.814
			c-26.947,17.956-53.092,34.776-77.287,49.132c-26.622,15.796-48.612,27.173-65.359,33.818c-18.612,7.385-26.543,7.281-29.047,6.91
			c-0.37-2.508-0.474-10.439,6.91-29.047c6.644-16.746,18.022-38.736,33.818-65.359c9.194-15.497,19.402-31.795,30.268-48.588
			l7.662,7.661l23.285-23.285l-12.481-12.48c6.385-9.588,12.917-19.279,19.535-29.021l42.714,42.713l23.285-23.285l-47.094-47.093
			c6.592-9.598,13.211-19.198,19.804-28.752l26.077,26.077l23.285-23.285l-30.356-30.356c6.788-9.861,13.364-19.45,19.739-28.817
			l60.385,60.385l23.285-23.285l-62.961-62.96c13.183-13.198,26.604-20.508,40.098-21.783c21.713-2.065,46.034,10.696,74.319,38.982
			C382.942,185.123,395.694,209.433,393.639,231.158z M379.348,134.98c-0.47-0.475-0.929-0.949-1.405-1.427
			c-0.476-0.477-0.951-0.935-1.427-1.405l68.698-79.688l13.822,13.822L379.348,134.98z M400.981,159.808l52.216-45.015
			l11.779,17.831l-59.587,33.32C403.988,163.906,402.523,161.861,400.981,159.808z"/>
	</g>
</g>
<g>
</g>
<g>
</g>
<g>
</g>
<g>
</g>
<g>
</g>
<g>
</g>
<g>
</g>
<g>
</g>
<g>
</g>
<g>
</g>
<g>
</g>
<g>
</g>
<g>
</g>
<g>
</g>
<g>
</g>
</svg>
