<?xml version="1.0" encoding="iso-8859-1"?>
<!-- Generator: Adobe Illustrator 19.0.0, SVG Export Plug-In . SVG Version: 6.00 Build 0)  -->
<svg version="1.1" id="Layer_1" xmlns="http://www.w3.org/2000/svg" xmlns:xlink="http://www.w3.org/1999/xlink" x="0px" y="0px" fill='#087E8B'
	 viewBox="0 0 512 512" style="enable-background:new 0 0 512 512;" xml:space="preserve">
<g>
	<g>
		<path d="M511.052,322.698c-1.887-4.477-6.273-7.388-11.131-7.388h-97.324v-52.991c0-39.166-15.25-75.978-42.94-103.656
			c-27.691-27.691-64.503-42.941-103.656-42.941c-80.833,0-146.596,65.763-146.596,146.596v52.991H12.079
			c-4.858,0-9.244,2.911-11.131,7.388c-1.887,4.478-0.907,9.65,2.486,13.127l22.406,22.963
			c23.241,23.827,55.666,37.491,88.963,37.491h282.393c33.296,0,65.722-13.665,88.961-37.49l22.407-22.964
			C511.959,332.35,512.939,327.176,511.052,322.698z M256.001,139.882c32.699,0,63.444,12.738,86.574,35.867
			c20.659,20.649,33.019,47.39,35.422,76.18h-86.791c-5.029-14.615-18.906-25.149-35.206-25.149s-30.177,10.534-35.206,25.149
			h-86.786C139.3,189.263,191.988,139.882,256.001,139.882z M269.069,264.009c0,7.208-5.863,13.07-13.07,13.07
			s-13.07-5.863-13.07-13.07s5.863-13.07,13.07-13.07S269.069,256.803,269.069,264.009z M468.866,341.919
			c-18.723,19.193-44.845,30.201-71.67,30.201H114.803c-26.825,0-52.947-11.008-71.671-30.202l-2.389-2.448h80.74
			c6.672,0,12.079-5.409,12.079-12.079v-51.301h87.232c5.029,14.615,18.906,25.149,35.206,25.149s30.177-10.534,35.206-25.149
			h87.232v39.222H210.501c-6.672,0-12.079,5.409-12.079,12.079c0,6.67,5.408,12.079,12.079,12.079h180.015h80.739L468.866,341.919z"
			/>
	</g>
</g>
<g>
	<g>
		<path d="M162.307,315.312c-6.668,0-12.079,5.4-12.079,12.079c0,6.668,5.412,12.079,12.079,12.079
			c6.68,0,12.079-5.412,12.079-12.079C174.386,320.711,168.986,315.312,162.307,315.312z"/>
	</g>
</g>
<g>
</g>
<g>
</g>
<g>
</g>
<g>
</g>
<g>
</g>
<g>
</g>
<g>
</g>
<g>
</g>
<g>
</g>
<g>
</g>
<g>
</g>
<g>
</g>
<g>
</g>
<g>
</g>
<g>
</g>
</svg>
