<?xml version="1.0" encoding="iso-8859-1"?>
<!-- Generator: Adobe Illustrator 18.0.0, SVG Export Plug-In . SVG Version: 6.00 Build 0)  -->
<!DOCTYPE svg PUBLIC "-//W3C//DTD SVG 1.1//EN" "http://www.w3.org/Graphics/SVG/1.1/DTD/svg11.dtd">
<svg version="1.1" id="Capa_1" xmlns="http://www.w3.org/2000/svg" xmlns:xlink="http://www.w3.org/1999/xlink" x="0px" y="0px" fill='#087E8B'
	 viewBox="0 0 297 297" style="enable-background:new 0 0 297 297;" xml:space="preserve">
<path d="M148.5,0C66.617,0,0,66.617,0,148.5S66.617,297,148.5,297S297,230.383,297,148.5S230.383,0,148.5,0z M85.725,260.188
	c-0.321-0.152-34.229-14.885-19.69-68.016c3.701-13.528,13.849-25.943,24.593-39.087c17.231-21.083,36.762-44.978,37.261-81.315
	c0.014-1.019,0.007-2.023-0.02-3.012c3.454-0.469,6.953-0.826,10.495-1.058v208.627C119.933,274.879,101.619,267.727,85.725,260.188
	z M22.469,172.156c-4.176-44.983,35.714-85.228,85.103-99.188c-0.925,28.462-17.038,48.197-32.641,67.287
	c-11.609,14.203-23.614,28.889-28.451,46.566c-3.453,12.618-4.671,23.598-4.43,33.092C32.51,205.737,24.106,189.786,22.469,172.156z
	 M113.218,34.919c-3.266-2.708-6.827-4.719-10.46-6.205c11.204-4.293,23.156-7.062,35.605-8.04v26.72
	c-4.951,0.288-9.834,0.785-14.639,1.481C121.284,43.376,117.786,38.706,113.218,34.919z M173.276,48.874
	c-4.805-0.696-9.688-1.193-14.639-1.481v-26.72c12.449,0.978,24.401,3.747,35.605,8.04c-3.633,1.486-7.194,3.497-10.459,6.205
	C179.214,38.706,175.717,43.376,173.276,48.874z M212.605,259.43c-16.676,8.417-34.37,15.357-53.968,16.897V67.7
	c3.542,0.232,7.041,0.589,10.495,1.058c-0.027,0.989-0.034,1.993-0.02,3.012c0.499,36.337,20.03,60.232,37.261,81.315
	c10.744,13.144,20.892,25.559,24.593,39.087C245.298,244.552,213.909,258.771,212.605,259.43z M274.531,171.373
	c-1.637,17.63-10.04,34.364-19.581,48.54c0.241-9.494-0.977-20.474-4.43-33.092c-4.837-17.677-16.841-32.363-28.451-46.566
	c-15.603-19.09-31.716-38.825-32.641-67.287C238.817,86.928,278.707,126.391,274.531,171.373z M266.024,97.244
	c-17.834-20.345-42.879-35.912-71.917-43.989c0.762-0.998,1.615-1.893,2.56-2.683c6.776-5.666,20.835-5.884,27.857-5.263
	C242.53,58.608,256.943,76.502,266.024,97.244z M72.493,45.296c6.9-0.603,20.986-0.409,27.785,5.229
	c0.966,0.801,1.836,1.714,2.613,2.731C73.854,61.332,48.809,76.9,30.976,97.244C40.06,76.495,54.479,58.598,72.493,45.296z"/>
<g>
</g>
<g>
</g>
<g>
</g>
<g>
</g>
<g>
</g>
<g>
</g>
<g>
</g>
<g>
</g>
<g>
</g>
<g>
</g>
<g>
</g>
<g>
</g>
<g>
</g>
<g>
</g>
<g>
</g>
</svg>
