<svg id="Layer_1" data-name="Layer 1" xmlns="http://www.w3.org/2000/svg" xmlns:xlink="http://www.w3.org/1999/xlink" viewBox="0 0 402.18 296.86"><defs><linearGradient id="linear-gradient" x1="20.23" y1="224.95" x2="255.2" y2="175.61" gradientUnits="userSpaceOnUse"><stop offset="0.01"/><stop offset="0.13" stop-opacity="0.69"/><stop offset="1" stop-opacity="0"/></linearGradient><linearGradient id="linear-gradient-2" x1="210.24" y1="139.08" x2="252.51" y2="139.08" xlink:href="#linear-gradient"/><linearGradient id="linear-gradient-3" x1="208.85" y1="85.14" x2="228.73" y2="178.96" gradientUnits="userSpaceOnUse"><stop offset="0.01" stop-color="#fff"/><stop offset="0.13" stop-color="#fff" stop-opacity="0.69"/><stop offset="1" stop-color="#fff" stop-opacity="0"/></linearGradient><linearGradient id="linear-gradient-4" x1="197.7" y1="149.4" x2="207.55" y2="101.82" xlink:href="#linear-gradient"/><linearGradient id="linear-gradient-5" x1="85.59" y1="121.09" x2="183.86" y2="120.25" xlink:href="#linear-gradient"/><linearGradient id="linear-gradient-6" x1="104.99" y1="159.07" x2="162.81" y2="117.4" xlink:href="#linear-gradient"/><linearGradient id="linear-gradient-7" x1="566.12" y1="68.2" x2="623.93" y2="26.53" gradientTransform="translate(-472.88 200.14) rotate(-9.07)" xlink:href="#linear-gradient"/><linearGradient id="linear-gradient-8" x1="117.05" y1="109.16" x2="112.92" y2="126.99" xlink:href="#linear-gradient-3"/><linearGradient id="linear-gradient-9" x1="155.06" y1="133.99" x2="129.72" y2="159.61" xlink:href="#linear-gradient-3"/><linearGradient id="linear-gradient-10" x1="113.13" y1="213.57" x2="165.78" y2="184.85" xlink:href="#linear-gradient"/><linearGradient id="linear-gradient-11" x1="109.72" y1="215.18" x2="156.46" y2="185.05" xlink:href="#linear-gradient-3"/><linearGradient id="linear-gradient-12" x1="230.95" y1="148.97" x2="294.37" y2="148.97" xlink:href="#linear-gradient-3"/><linearGradient id="linear-gradient-13" x1="269.12" y1="210.66" x2="261.98" y2="129.95" xlink:href="#linear-gradient"/><linearGradient id="linear-gradient-14" x1="-202.11" y1="335.05" x2="-138.69" y2="335.05" gradientTransform="translate(488.97 -141.95) rotate(8.79)" xlink:href="#linear-gradient-3"/><linearGradient id="linear-gradient-15" x1="248.1" y1="203.25" x2="247.68" y2="187.91" xlink:href="#linear-gradient"/><linearGradient id="linear-gradient-16" x1="241.91" y1="209.36" x2="241.48" y2="194.01" xlink:href="#linear-gradient"/><linearGradient id="linear-gradient-17" x1="-741.33" y1="714.25" x2="-741.75" y2="698.91" gradientTransform="translate(1172.78 -195.68) rotate(20.45)" xlink:href="#linear-gradient"/><linearGradient id="linear-gradient-18" x1="284.93" y1="187.21" x2="284.6" y2="175.09" xlink:href="#linear-gradient"/><linearGradient id="linear-gradient-19" x1="280.04" y1="192.04" x2="279.71" y2="179.91" xlink:href="#linear-gradient"/><linearGradient id="linear-gradient-20" x1="-709.42" y1="682.7" x2="-709.75" y2="670.58" gradientTransform="translate(1172.78 -195.68) rotate(20.45)" xlink:href="#linear-gradient"/><linearGradient id="linear-gradient-21" x1="266.17" y1="194.19" x2="265.84" y2="182.06" xlink:href="#linear-gradient"/><linearGradient id="linear-gradient-22" x1="261.28" y1="199.01" x2="260.94" y2="186.89" xlink:href="#linear-gradient"/><linearGradient id="linear-gradient-23" x1="-730.38" y1="693.06" x2="-730.57" y2="685.95" gradientTransform="translate(1172.78 -195.68) rotate(20.45)" xlink:href="#linear-gradient"/><linearGradient id="linear-gradient-24" x1="-722.05" y1="695.37" x2="-722.24" y2="688.26" gradientTransform="translate(1172.78 -195.68) rotate(20.45)" xlink:href="#linear-gradient"/><linearGradient id="linear-gradient-25" x1="-721.53" y1="689.52" x2="-721.72" y2="682.41" gradientTransform="translate(1172.78 -195.68) rotate(20.45)" xlink:href="#linear-gradient"/><linearGradient id="linear-gradient-26" x1="-725.56" y1="686.31" x2="-725.76" y2="679.2" gradientTransform="translate(1172.78 -195.68) rotate(20.45)" xlink:href="#linear-gradient"/><linearGradient id="linear-gradient-27" x1="-730.51" y1="693.9" x2="-730.7" y2="686.8" gradientTransform="translate(1172.78 -195.68) rotate(20.45)" xlink:href="#linear-gradient"/><linearGradient id="linear-gradient-28" x1="-1594.83" y1="4547.68" x2="-1595.03" y2="4540.57" gradientTransform="translate(4431.48 2575.2) rotate(100.36)" xlink:href="#linear-gradient"/><linearGradient id="linear-gradient-29" x1="267.5" y1="198.34" x2="267.17" y2="186.22" xlink:href="#linear-gradient"/><linearGradient id="linear-gradient-30" x1="3282.35" y1="924.51" x2="3282.08" y2="914.65" gradientTransform="translate(-2150.57 2607.65) rotate(-60.58)" xlink:href="#linear-gradient"/><linearGradient id="linear-gradient-31" x1="-727.43" y1="705.06" x2="-727.77" y2="692.93" gradientTransform="translate(1172.78 -195.68) rotate(20.45)" xlink:href="#linear-gradient"/><linearGradient id="linear-gradient-32" x1="-743.59" y1="701.68" x2="-743.92" y2="689.73" gradientTransform="translate(1172.78 -195.68) rotate(20.45)" xlink:href="#linear-gradient"/><linearGradient id="linear-gradient-33" x1="814.56" y1="73.67" x2="814.31" y2="64.69" gradientTransform="translate(-570.34 277.27) rotate(-11.01)" xlink:href="#linear-gradient"/></defs><title>25</title><path d="M252.59,13.85c-15.73,2.6-31,7.71-46.82,9.85-40.71,5.51-84.27-8.67-122,8-37.36,16.53-57.6,58.57-69.08,98.94-7,24.8-12,50.6-10.37,76.4s10.48,51.73,28,70.19c15.61,16.51,37.16,26,59.15,29.91s44.55,2.45,66.67-.46c18.69-2.47,37.31-6,55.24-12,22.64-7.56,44.05-19,67.14-24.9,21.57-5.53,44.1-6.12,65.71-11.49s43.42-16.86,53.67-37.29c8.27-16.48,7.72-36.51,2.44-54.26s-14.88-33.73-24.39-49.48q-16.87-28-33.76-56C323.88,27.77,291.37,7.46,252.59,13.85Z" transform="translate(-3.98 -12.68)" fill="#f7aa35" opacity="0.18" style="isolation:isolate"/><ellipse cx="193.95" cy="226.99" rx="117.83" ry="15.51" fill="#f7aa35" opacity="0.18" style="isolation:isolate"/><path d="M308.09,172.69c0,45.55-48.28,82.5-107.83,82.5-.51,0-1,0-1.53,0-58.86-.63-106.31-37.31-106.31-82.48,0-1,0-2,.08-3a62.71,62.71,0,0,1,1.28-10.09c8.22-24.5,52.76-43.22,106.48-43.22a222.24,222.24,0,0,1,23.27,1.2c42.89,4.5,76.2,21.16,83.2,42A62.71,62.71,0,0,1,308,169.65C308.07,170.66,308.09,171.67,308.09,172.69Z" transform="translate(-3.98 -12.68)" fill="#f7aa35"/><path d="M308.09,172.69c0,45.55-48.28,82.5-107.83,82.5-.51,0-1,0-1.53,0-51.17-6.45-90.19-40.43-90.19-81.4,0-1,0-2,.08-3a62.3,62.3,0,0,1,1.28-10.08c8.22-24.5,52.76-43.22,106.48-43.22,2.4,0,4.79,0,7.15.1,42.89,4.5,76.2,21.16,83.2,42A62.71,62.71,0,0,1,308,169.65C308.07,170.66,308.09,171.67,308.09,172.69Z" transform="translate(-3.98 -12.68)" fill="url(#linear-gradient)"/><path d="M308.09,167.74c0,.65,0,1.27-.08,1.91-2.09,27.51-49.53,49.5-107.75,49.5s-105.67-22-107.76-49.5c-.06-.64-.08-1.26-.08-1.91a25.47,25.47,0,0,1,1.36-8.18c8.22-24.5,52.76-43.22,106.48-43.22s98.25,18.72,106.47,43.22A25.47,25.47,0,0,1,308.09,167.74Z" transform="translate(-3.98 -12.68)" fill="#fff"/><path d="M300.35,167.74a17.34,17.34,0,0,1-.08,1.77c-1.94,25.53-46,45.94-100,45.94s-98.09-20.41-100-45.94c0-.59-.07-1.17-.07-1.77a23.74,23.74,0,0,1,1.26-7.59c7.63-22.74,49-40.11,98.84-40.11s91.19,17.37,98.82,40.11A23.47,23.47,0,0,1,300.35,167.74Z" transform="translate(-3.98 -12.68)" fill="#f7aa35" opacity="0.18" style="isolation:isolate"/><path d="M245.09,146.36c-1,4.53-2.45,9.15-5.6,12.55a27.83,27.83,0,0,1-7.84,5.38c-3.75,1.92-7.72,3.71-11.94,3.79a4.84,4.84,0,0,1-2.6-.53,5.69,5.69,0,0,1-1.75-2.1l-3.17-5.38a12.15,12.15,0,0,1-1.92-4.69c-.24-2.38.95-4.67,2.26-6.67,7-10.75,18.11-18.13,26.4-27.93,2.64-3.11,5.1-6.63,8.43-9.06,1.41-1,3.72-2.8,4.93-.54.87,1.63-1.08,4.68-1.58,6.26C247.7,126.83,247.2,136.77,245.09,146.36Z" transform="translate(-3.98 -12.68)" fill="#f7aa35"/><path d="M245.09,146.36c-1,4.53-2.45,9.15-5.6,12.55a27.83,27.83,0,0,1-7.84,5.38c-3.75,1.92-7.72,3.71-11.94,3.79a4.84,4.84,0,0,1-2.6-.53,5.69,5.69,0,0,1-1.75-2.1l-3.17-5.38a12.15,12.15,0,0,1-1.92-4.69c-.24-2.38.95-4.67,2.26-6.67,7-10.75,18.11-18.13,26.4-27.93,2.64-3.11,5.1-6.63,8.43-9.06,1.41-1,3.72-2.8,4.93-.54.87,1.63-1.08,4.68-1.58,6.26C247.7,126.83,247.2,136.77,245.09,146.36Z" transform="translate(-3.98 -12.68)" fill="url(#linear-gradient-2)"/><path d="M181.35,123.06c3.34-5,8.94-8.12,14.61-10.2s11.64-3.36,17.15-5.83,10.39-6,15.83-8.51,11.8-3.92,17.4-1.8c3.92,1.49,7.26,4.92,7.82,9.07,1,7.53-6.6,13.17-9.44,20.21-1.71,4.25-1.64,9-3,13.37-3.07,9.57-12.76,15.68-22.57,17.89a38.46,38.46,0,0,1-21.35-.9C185.5,151.94,172.62,136.2,181.35,123.06Z" transform="translate(-3.98 -12.68)" fill="#f7aa35"/><path d="M183.83,123.34c3.11-4.68,8.31-7.54,13.58-9.48s10.81-3.12,15.93-5.41,9.65-5.57,14.71-7.91,11-3.64,16.17-1.67c3.64,1.38,6.74,4.57,7.26,8.43.94,7-6.13,12.23-8.76,18.77-1.6,4-1.54,8.37-2.83,12.43-2.85,8.89-11.86,14.56-21,16.61a35.6,35.6,0,0,1-19.84-.83C187.69,150.17,175.72,135.55,183.83,123.34Z" transform="translate(-3.98 -12.68)" fill="url(#linear-gradient-3)"/><circle cx="203.61" cy="120.88" r="15.41" fill="#f7aa35"/><circle cx="203.61" cy="120.88" r="15.41" fill="url(#linear-gradient-4)"/><path d="M167,94.31c2.14,1.54,3.23,4.11,4.23,6.56.9,2.22,1.8,4.75.81,6.93a9.41,9.41,0,0,1,1.29,4.93c-.2,1.71-1.76,3.38-3.45,3-1.23,1.77-.25,4.17.74,6.09,2.92,5.6,5.88,11.26,10.1,16,2.07,2.32,4.63,5,4,8-.77,3.92-6.29,4.91-9.87,3.13s-6.07-5.18-9.39-7.4a47.73,47.73,0,0,0-7-3.42,55.47,55.47,0,0,1-18.21-13.24,6.53,6.53,0,0,1-9.64-8c-2.13,1.1-4.86-1.29-4.56-3.66s2.82-4,5.22-4c-.92-3.19-1.38-8.39,3.27-7.36a14.55,14.55,0,0,1,0-4.42c2.65.39,3,3.8,6.06,3.15,2-.43,3.68-3.64,4.89-5,3.43-3.94,12.3-9.28,14.54-.59A5.1,5.1,0,0,1,167,94.31Z" transform="translate(-3.98 -12.68)" fill="#f7aa35"/><path d="M161.51,129.86a3.74,3.74,0,0,1-.85-1.56c-.28-1.51,1.22-2.73,1.61-4.22.57-2.17-1.33-4.59-.34-6.61a15.2,15.2,0,0,1,2.48,4.36,11.31,11.31,0,0,0-.92-6.56,7.39,7.39,0,0,0,2.51-4c.22-1.6-1-3.47-2.59-3.32.56-1.27,1.13-2.71.62-4-.65-1.62-2.87-2.64-2.6-4.36a4.37,4.37,0,0,1,5.28.44c1.25,1.19,1.64,3,2,4.68a8.08,8.08,0,0,0,0-6.29c-.66-1.52-2.3-3-3.83-2.32-.48-1-1.86-.8-2.87-.5l-3.63,1a5,5,0,0,0-5.83-4.67l2.87,5.82c.51,1,1,2.09,1.57,3.11,1.34,2.48,2.89,5.59,1.28,7.91a25.08,25.08,0,0,1-7.08-8.47,3.46,3.46,0,0,0-.79-1.16,2.43,2.43,0,0,0-2.08-.39c-2.24.45-3.71,2.54-5,4.46a6.9,6.9,0,0,0-1.23,2.72c-.34,2.52,2.06,4.55,2.66,7s-.76,5.41.14,7.91c.53,1.49,1.79,2.59,2.48,4s.77,2.84,1.32,4.2a11.15,11.15,0,0,0,3.48,4.3c5.06,4.17,11.52,6.36,16.59,10.51A35.43,35.43,0,0,0,174,148c1.83,1,4.45,1.51,6.26.23C172.85,144.74,166.43,136.42,161.51,129.86Z" transform="translate(-3.98 -12.68)" fill="url(#linear-gradient-5)"/><path d="M144.92,99.59c2.35,1.2,3.82,3.57,5.18,5.84,1.23,2,2.51,4.41,1.87,6.72a9.27,9.27,0,0,1,2,4.67c.07,1.72-1.22,3.62-2.94,3.52-.94,1.93.39,4.16,1.67,5.9,3.74,5.08,7.54,10.22,12.43,14.22,2.41,2,5.34,4.19,5.22,7.29-.16,4-5.46,5.82-9.27,4.61s-6.8-4.18-10.42-5.86a46.79,46.79,0,0,0-7.44-2.31,55.25,55.25,0,0,1-20-10.28,6.53,6.53,0,0,1-10.76-6.45c-1.94,1.41-5-.52-5.07-2.91s2.17-4.41,4.54-4.74c-1.4-3-2.65-8.08,2.11-7.77a14.49,14.49,0,0,1-.67-4.37c2.68,0,3.56,3.29,6.47,2.17,1.9-.72,3.08-4.15,4.06-5.72,2.79-4.42,10.72-11.06,14.28-2.82A5.11,5.11,0,0,1,144.92,99.59Z" transform="translate(-3.98 -12.68)" fill="#f7aa35"/><path d="M151.25,144.14c-1.94-.9-4-2-4.81-4a6.64,6.64,0,0,0-1-2.31,3.67,3.67,0,0,0-1.92-.86L136,135.25a3.91,3.91,0,0,1-1.15-.39,2.67,2.67,0,0,1-1.11-2.39,7.71,7.71,0,0,1,.73-2.64,1.35,1.35,0,0,0,1.31-2.33,8.69,8.69,0,0,0,3.59,0,3,3,0,0,0,2.3-2.49,1.23,1.23,0,0,0,1.38-1.41.92.92,0,0,0,1.56-.49l.81.4a23.53,23.53,0,0,0,3-4.11,1.67,1.67,0,0,0,2.2-.28,3.22,3.22,0,0,0,.73-2.27,6.41,6.41,0,0,0-.64-2.69l.94.83-.77-2.26a3.39,3.39,0,0,1-.23-1,5.31,5.31,0,0,1,.23-1.24c.63-2.87-1.57-5.53-3.6-7.66A14.62,14.62,0,0,1,149.08,113c-.32-.47-1.08-.33-1.48.07a14,14,0,0,0-.94,1.42c-.28.37-.67.65-.92,1a1,1,0,0,0,0,1.29l-8-.21a9,9,0,0,0,3.65-2.22,3.16,3.16,0,0,0,.32-4c1.54-.68,1.54-3,.41-4.29s-2.88-1.65-4.53-2a1.83,1.83,0,0,0,.49-2.52,5.25,5.25,0,0,0-2.24-1.75,53.34,53.34,0,0,1,3,4.48,3.51,3.51,0,0,1,.64,1.71,1.28,1.28,0,0,1-1,1.35c.66.37,1.42,1,1.25,1.69-.07.3-.29.55-.37.85a3.17,3.17,0,0,0,.14,1.25c.26,1.54-.95,2.89-2,4.06a4.92,4.92,0,0,0-1.18,1.85,1.85,1.85,0,0,0,.54,2,27.24,27.24,0,0,1-7.83-1,7.66,7.66,0,0,0,1.41-4c-.07-1.43-1.34-2.9-2.75-2.61a5,5,0,0,0,.07,2.37,24,24,0,0,1-7-.82l3.16,6.56a2.19,2.19,0,0,0-1.89,1.83,6.4,6.4,0,0,0,.24,2.81l-7.38-2.85.61,2a4,4,0,0,1-2.9-2.38,6.73,6.73,0,0,0-1.86,3.55,2.8,2.8,0,0,0,0,1.38c.54,1.5,2.66,1.46,4.22,1.13a16,16,0,0,1-.09,4.09,5,5,0,0,0,1,3.84,2,2,0,0,0,1.15.62c1.07.13,1.9-.89,2.51-1.79a3.63,3.63,0,0,0,3.14,1.37,10.47,10.47,0,0,0,3.44-.89c3.37,4.82,9.65,6.36,15.15,8.44a57.08,57.08,0,0,1,9.83,4.83c2.6,1.6,5.12,3.43,8,4.37s6.38.82,8.67-1.2c-1.44-.44-3-.29-4.4-.71a28,28,0,0,1-3.38-1.69Z" transform="translate(-3.98 -12.68)" fill="url(#linear-gradient-6)"/><path d="M127,113.23c2.51.81,4.34,2.92,6,4.94,1.54,1.84,3.17,4,2.9,6.35a9.34,9.34,0,0,1,2.75,4.29c.34,1.69-.64,3.76-2.35,3.93-.63,2.06,1,4,2.57,5.57,4.5,4.43,9.07,8.9,14.52,12.08,2.69,1.57,5.94,3.29,6.3,6.38.48,4-4.47,6.61-8.42,6s-7.37-3.06-11.22-4.15a47.43,47.43,0,0,0-7.71-1.11,55.43,55.43,0,0,1-21.4-7,6.52,6.52,0,0,1-11.64-4.68c-1.69,1.7-5,.28-5.47-2.08s1.45-4.69,3.74-5.39c-1.86-2.75-3.89-7.56.86-8a14.29,14.29,0,0,1-1.35-4.21c2.64-.44,4,2.69,6.73,1.13,1.76-1,2.39-4.59,3.11-6.29,2.06-4.8,8.85-12.61,13.65-5A5.11,5.11,0,0,1,127,113.23Z" transform="translate(-3.98 -12.68)" fill="#f7aa35"/><path d="M140.23,156.22c-2-.58-4.29-1.31-5.37-3.15a6.48,6.48,0,0,0-1.34-2.13,3.67,3.67,0,0,0-2-.55l-7.77-.54a3.48,3.48,0,0,1-1.2-.21,2.63,2.63,0,0,1-1.47-2.17,7.68,7.68,0,0,1,.3-2.73,1.35,1.35,0,0,0,.93-2.51,8.68,8.68,0,0,0,3.55-.51,3,3,0,0,0,1.88-2.82,1.23,1.23,0,0,0,1.14-1.62.91.91,0,0,0,1.46-.73l.86.27a23.25,23.25,0,0,0,2.3-4.53,1.68,1.68,0,0,0,2.13-.61,3.24,3.24,0,0,0,.36-2.37,6.3,6.3,0,0,0-1.06-2.55l1.06.67-1.11-2.11a3.28,3.28,0,0,1-.39-.95,5.34,5.34,0,0,1,0-1.26c.16-2.94-2.42-5.21-4.77-7a14.59,14.59,0,0,1,3.43,9.66c-.38-.42-1.12-.16-1.45.3a15.38,15.38,0,0,0-.7,1.54c-.22.41-.56.75-.75,1.18a1,1,0,0,0,.23,1.26l-7.92,1a8.87,8.87,0,0,0,3.27-2.76,3.18,3.18,0,0,0-.31-4c1.4-.92,1-3.26-.27-4.31s-3.12-1.16-4.79-1.24a1.82,1.82,0,0,0,.08-2.56,5.22,5.22,0,0,0-2.49-1.37q1.92,1.89,3.64,4a3.58,3.58,0,0,1,.9,1.58,1.3,1.3,0,0,1-.77,1.49c.71.26,1.55.72,1.5,1.47,0,.31-.2.59-.23.9a3.15,3.15,0,0,0,.34,1.21c.49,1.48-.49,3-1.33,4.33a4.78,4.78,0,0,0-.89,2,1.87,1.87,0,0,0,.85,1.9,27.45,27.45,0,0,1-7.89.2,7.6,7.6,0,0,0,.76-4.18c-.29-1.41-1.78-2.66-3.12-2.15a4.8,4.8,0,0,0,.44,2.33,24.23,24.23,0,0,1-7.06.3l4.16,6a2.21,2.21,0,0,0-1.58,2.11,6.4,6.4,0,0,0,.68,2.73l-7.74-1.64.92,1.86a4,4,0,0,1-3.24-1.89,6.75,6.75,0,0,0-1.28,3.8,2.68,2.68,0,0,0,.26,1.35c.77,1.4,2.86,1,4.35.46a16.08,16.08,0,0,1,.55,4.05,5,5,0,0,0,1.64,3.63,2.06,2.06,0,0,0,1.23.43c1.09,0,1.75-1.18,2.2-2.16a3.67,3.67,0,0,0,3.32.86,10.71,10.71,0,0,0,3.25-1.43c4.1,4.23,10.54,4.77,16.3,6a58.13,58.13,0,0,1,10.47,3.22c2.82,1.17,5.59,2.58,8.61,3s6.43-.19,8.37-2.55c-1.48-.21-3,.18-4.45,0a28,28,0,0,1-3.61-1.14Z" transform="translate(-3.98 -12.68)" fill="url(#linear-gradient-7)"/><path d="M117.71,119.54a7.42,7.42,0,0,1,2,3.11,6.15,6.15,0,0,0,.78-3.32,5.66,5.66,0,0,0-.84-2.41,6.45,6.45,0,0,0-4.41-3,5.46,5.46,0,0,0-5,1.8,9,9,0,0,0-1.69,4.73c1.45-.7,2.2-1.64,3.88-1.82S116.26,118.38,117.71,119.54Z" transform="translate(-3.98 -12.68)" fill="url(#linear-gradient-8)"/><path d="M132,137.76l3.11,3.25a6.47,6.47,0,0,0,1.43,1.23,14.63,14.63,0,0,0,1.94.74,10.64,10.64,0,0,1,3.16,2.22c4.52,4.17,8.47,9.14,13.89,12,1,.52,2.15,1.24,2,2.34A4.74,4.74,0,0,0,157,155a15.1,15.1,0,0,0-3.5-3.31q-3.91-3-7.6-6.28a54.88,54.88,0,0,1-8.81-9.47,3.68,3.68,0,0,1-.72-1.52,4.78,4.78,0,0,1,.57-2.3,9.33,9.33,0,0,0-.43-7.48C138.89,129.28,134.44,134.28,132,137.76Z" transform="translate(-3.98 -12.68)" fill="url(#linear-gradient-9)"/><path d="M249.4,187a19.67,19.67,0,0,1-3,6.69c-3,3.73-8.09,4.74-12.61,6.25-3.67,1.22-7.19,2.92-11,3.7a47.58,47.58,0,0,1-11.13.51l-17.19-.59c-1.78-.06-3.56-.12-5.33-.3a29.49,29.49,0,0,1-3.35-.52,45.71,45.71,0,0,1-8.93-3.25c-3.56-1.58-7.15-3.26-10-5.91-4.86-4.46-7-11.07-10.35-16.77-2.48-4.23-6.52-8.85-6.53-14,0-3.47,4.21-6.16,6.71-8,2-1.46,4.55-2.47,5.82-4.7.38-.66.61-1.41,1-2,1.81-2.72,5.83-2.17,9-2.75,2.87-.54,5.38-2.17,8-3.34s5.85-1.89,8.43-.53a10.1,10.1,0,0,0,1.74.87,5.38,5.38,0,0,0,2,0l6.31-.77.77-.1c2.31-.3,4.85-.53,6.77.79.93.62,1.61,1.56,2.58,2.12,2.65,1.56,6.64-.08,8.77,2.14a17,17,0,0,1,1.48,2.3c1.45,2.07,4.13,2.78,6.42,3.85,6.79,3.17,10.9,10.1,14.56,16.65,1.82,3.25,3.87,6.75,7.31,8.22a4.84,4.84,0,0,1,2,1.11,3.06,3.06,0,0,1,.55,1.27C250.83,182.22,250.11,184.68,249.4,187Z" transform="translate(-3.98 -12.68)" fill="#fff"/><path d="M148.41,158c-9.65-5-15.55-5-26.38-5.5-4-.21-8.08.24-11.52,2.2-6.72,3.82-9.29,12.77-7.45,20.28s7.22,13.68,13.25,18.52a69.77,69.77,0,0,0,12.34,7.91c14.08,7,30,9.07,45.66,11,17,2.1,34.22,4.2,51.21,2-2.33-3.21-7-3.24-11-3.2-15.49.16-30.73-3.52-45.79-7.17-8.53-2.07-17.1-4.16-25.28-7.34,32.17-3.69,62.52,19.75,94.81,17.41-4.68-4-11-5.35-17-6.76a295.69,295.69,0,0,1-48.51-16l49.91,6.78c-4.84-5.08-12.11-6.78-18.87-8.67a171.24,171.24,0,0,1-27.53-10.34,39.71,39.71,0,0,1-8.46-5.05c-3.31-2.75-5.74-6.38-8.63-9.57s-6.53-6.05-10.81-6.47" transform="translate(-3.98 -12.68)" fill="#f7aa35"/><path d="M165,179.2c6.75,10.84,15.59,21.4,27.82,25.06,6.78,2,14,1.74,21.08,1.44-2.85,3.78-8,5-12.67,5.47-20.13,2.1-40.32-3.94-58.6-12.63-9.8-4.66-19.7-10.54-25-20a13,13,0,0,1-2-6.71,15.59,15.59,0,0,1,1.34-5c.82-2.06,1.78-4.23,3.63-5.47a10.25,10.25,0,0,1,5.26-1.37,42,42,0,0,1,19.82,3.91c4.27,2,8.91,3.66,12.56,6.71C161.08,173,163.07,176.06,165,179.2Z" transform="translate(-3.98 -12.68)" fill="url(#linear-gradient-10)"/><path d="M156.15,178c6.75,10.83,15.59,21.39,27.81,25.05,6.79,2,14,1.75,21.09,1.44-2.85,3.79-8,5-12.68,5.48-20.12,2.1-40.31-3.95-58.59-12.64-9.8-4.66-19.7-10.53-25-20a13,13,0,0,1-2-6.71,15.47,15.47,0,0,1,1.34-5c.82-2.07,1.78-4.23,3.63-5.48A10.15,10.15,0,0,1,117,158.8a42,42,0,0,1,19.82,3.9c4.27,2,8.91,3.66,12.56,6.71A34.2,34.2,0,0,1,156.15,178Z" transform="translate(-3.98 -12.68)" fill="#f7aa35"/><path d="M154.2,180.38c6.74,10.83,15.58,21.39,27.81,25.05,6.78,2,14,1.75,21.08,1.44-2.85,3.79-8,5-12.67,5.48-20.13,2.1-40.32-3.95-58.6-12.63-9.8-4.66-19.7-10.54-25-20a13,13,0,0,1-2-6.72,15.47,15.47,0,0,1,1.34-5c.82-2.07,1.78-4.23,3.63-5.48a10.24,10.24,0,0,1,5.26-1.36,42,42,0,0,1,19.82,3.9c4.27,2,8.92,3.66,12.56,6.71C150.25,174.18,152.24,177.24,154.2,180.38Z" transform="translate(-3.98 -12.68)" fill="url(#linear-gradient-11)"/><path d="M166.23,164.33A3.16,3.16,0,0,1,167,162,2.78,2.78,0,0,1,166.23,164.33Z" transform="translate(-3.98 -12.68)" fill="#f7aa35" opacity="0.18" style="isolation:isolate"/><path d="M231,198c-8.8,1.61-17.72.05-26.55-.41-3.07-.17-10.34-1.26-13,.55-1.53,1-1.55,3.16-2.24,5.1a29.49,29.49,0,0,1-3.35-.52,45.71,45.71,0,0,1-8.93-3.25c-3.56-1.58-7.15-3.26-10-5.91-4.86-4.46-7-11.07-10.35-16.77-2.48-4.23-6.52-8.85-6.53-14,0-3.47,4.21-6.16,6.71-8,2-1.46,4.55-2.47,5.82-4.7.38-.66.61-1.41,1-2,1.81-2.72,5.83-2.17,9-2.75,2.87-.54,5.38-2.17,8-3.34s5.85-1.89,8.43-.53a10.1,10.1,0,0,0,1.74.87,5.38,5.38,0,0,0,2,0l6.31-.77a12.7,12.7,0,0,0,.29,5.55,12,12,0,0,0-9.71,1.2,2.5,2.5,0,0,0,2.45,3.09,4.55,4.55,0,0,0-1.41,2.24l4.34-1a29.12,29.12,0,0,1-8.76,4.41c-.07.71-.15,1.44-.23,2.16-2.41.65-4.83,1.32-7.25,2q3.82-3.25,7.65-6.47a5.09,5.09,0,0,0,2-2.66c-.79.41-1.59.79-2.39,1.19,1.16-1.12,2.32-2.51,2.18-4.12s-2.46-2.8-3.41-1.51a4.91,4.91,0,0,1-5.83,2c-1.53-.59-3.71-1.77-4.41-.28-.2.42-.16.95-.46,1.32a1.69,1.69,0,0,1-1.34.4l-5.61.12,1.22,1.6a2.13,2.13,0,0,0-1.63.07c-.47.32-.47,1.21.09,1.31a4.06,4.06,0,0,0-3.9,5,8.7,8.7,0,0,1,7.5.48,1.36,1.36,0,0,1,.46-2,3.88,3.88,0,0,1,2.29-.34,3.51,3.51,0,0,1,3.06-3.53c-.8,1.37-1.59,2.72-2.38,4.09l1.7,1.21a2.48,2.48,0,0,0-1.17,2.9,19.1,19.1,0,0,0-7.86-.18,3.21,3.21,0,0,0-2.33,1.27c-.45.81.18,2.11,1.07,1.88a2.62,2.62,0,0,0,.89-.61,3,3,0,0,0,.12.72,8.91,8.91,0,0,1,7.14,4.2c-1.34.28-3,.91-3.05,2.27s1.88,2.22,3.34,2,2.89-1,4.36-.79c-.26,1-.52,2.06-.79,3.09,1.58.13,3.16.23,4.74.35a6,6,0,0,0,4,3.58,2.08,2.08,0,0,1,3.1-.3c-.48,1.63,2.15,2.66,3.54,1.66s1.79-2.86,2.36-4.47,1.75-3.37,3.47-3.33a1.67,1.67,0,0,1,1.13.44c.88.92-.06,2.41-1,3.19s-2.21,1.85-1.8,3.06L201,178c.32,1.55-1.19,2.79-2.43,3.78s-2.46,2.69-1.56,4c2.1-1.54,5.63.63,5.21,3.19a10.76,10.76,0,0,1,5.17-.75c-.48,1.19-1,2.37-1.46,3.54,6.58.86,13.13,2,19.61,3.41C227.62,195.63,229.88,196.25,231,198Z" transform="translate(-3.98 -12.68)" fill="#f7aa35" opacity="0.18" style="isolation:isolate"/><path d="M244.62,148.9l2.37-2.54,2-2.15q9.33-10,18.67-20c1-1.07,2.28-2.24,3.71-2a4.49,4.49,0,0,1,1.89,1.13,69.89,69.89,0,0,0,13.1,8.68c3.28,1.68,6.83,3.22,9,6.17a6.38,6.38,0,0,1,1.32,5.39c-.77,2.7-3.71,4-6.08,5.51-4.73,3-7.95,7.82-11.75,11.94-5.41,5.88-12.09,10.42-18.71,14.9l-9.33,6.33a6.41,6.41,0,0,1-3.61,1.47c-1.9-.07-3.33-1.81-4-3.59s-.78-3.73-1.52-5.48c-1.77-4.2-8.55-7.25-8.26-12.23C233.77,157.78,241.63,152.11,244.62,148.9Z" transform="translate(-3.98 -12.68)" fill="#f7aa35"/><path d="M242.09,144.86l2.37-2.54,2-2.15q9.33-10,18.67-20c1-1.07,2.28-2.24,3.71-2a4.49,4.49,0,0,1,1.89,1.13,70.22,70.22,0,0,0,13.1,8.68c3.28,1.68,6.84,3.21,9,6.17a6.41,6.41,0,0,1,1.33,5.39c-.78,2.7-3.72,4-6.09,5.51-4.73,3-7.94,7.82-11.74,11.94-5.42,5.88-12.1,10.42-18.71,14.9l-9.33,6.32a6.33,6.33,0,0,1-3.62,1.47c-1.89-.06-3.33-1.8-4-3.58s-.78-3.73-1.52-5.48c-1.76-4.2-8.55-7.26-8.25-12.23C231.24,153.74,239.1,148.07,242.09,144.86Z" transform="translate(-3.98 -12.68)" fill="#f7aa35"/><path d="M242.09,144.86l2.37-2.54,2-2.15q9.33-10,18.67-20c1-1.07,2.28-2.24,3.71-2a4.49,4.49,0,0,1,1.89,1.13,70.22,70.22,0,0,0,13.1,8.68c3.28,1.68,6.84,3.21,9,6.17a6.41,6.41,0,0,1,1.33,5.39c-.78,2.7-3.72,4-6.09,5.51-4.73,3-7.94,7.82-11.74,11.94-5.42,5.88-12.1,10.42-18.71,14.9l-9.33,6.32a6.33,6.33,0,0,1-3.62,1.47c-1.89-.06-3.33-1.8-4-3.58s-.78-3.73-1.52-5.48c-1.76-4.2-8.55-7.26-8.25-12.23C231.24,153.74,239.1,148.07,242.09,144.86Z" transform="translate(-3.98 -12.68)" fill="url(#linear-gradient-12)"/><path d="M245.31,145.71c1.43,3.17,2.88,6.8,1.52,10a11.93,11.93,0,0,0,2.31-6.66,4.47,4.47,0,0,0,3.73,1.13l-2.72-1.93c-.32-.23-.65-.72-.33-.94a.64.64,0,0,1,.41-.06l2.93.28a4.29,4.29,0,0,1-1.1-5.62c1.21-1.87,3.64-2.44,5.48-3.69a1.72,1.72,0,0,1-1.39-2.35,3.22,3.22,0,0,1,2.53-1.78,3.64,3.64,0,0,1,3.46,1c.8,1,.57,2.74-.62,3.15a1.25,1.25,0,0,1,2,.8c.08.87-.81,1.55-1.68,1.7s-1.75,0-2.62.05a4.12,4.12,0,0,0-3.54,3.46c.57-1.06,2.37-.65,2.91.43a5,5,0,0,1-.06,3.54,8.39,8.39,0,0,1,.73-4,2.9,2.9,0,0,1,3.44-1.49,2.36,2.36,0,0,0-.67-1l5.18-1.34c.9-.24,2-1,1.51-1.81L265.21,140c-1.56-.77.55-3.49-.53-4.86-.22-.28-.56-.46-.75-.77a2.05,2.05,0,0,1,0-1.68,32.52,32.52,0,0,1-7.5.46c-.28,1.51-1.69,2.5-2.87,3.48s-2.31,2.48-1.81,3.94h-2.26c.93.9.2,2.63-1,3.12a6,6,0,0,1-3.8-.2c.1,1.38.14,2.94-.82,3.94a5.7,5.7,0,0,1-1.7,1A20.81,20.81,0,0,0,236,153.1a1.23,1.23,0,0,1,1.26,1.05,3.57,3.57,0,0,1-.25,1.79l-1.67,5.2a13.26,13.26,0,0,1,5,1.1l-.62,1.86a17.06,17.06,0,0,0,5,2.27,4.24,4.24,0,0,0,3.11,4.39,8.53,8.53,0,0,0-2.12,5.31l-.7-4c-2.31-.64-2.88-4.11-5.2-4.77-.77-.21-1.71-.12-2.23-.73-.74-.89,0-2.63-1-3.21-.56-.31-1.33,0-1.85-.37s-.47-1.19-.19-1.77a5.16,5.16,0,0,0,.78-1.77,3.75,3.75,0,0,0-.19-1.19,8.85,8.85,0,0,1,2.07-7.44,17.09,17.09,0,0,1,6.53-4.5,1.55,1.55,0,0,1,.93-.18c.37.08.64.41,1,.58,1,.49,2.1-.36,3.17-.21" transform="translate(-3.98 -12.68)" fill="#f7aa35"/><path d="M291,144.39a9.23,9.23,0,0,0,1.46-5.55,2.12,2.12,0,0,0-.36-1.24,2.52,2.52,0,0,0-.85-.62l-5.8-3.07a25.06,25.06,0,0,0-6.77-2.78,4.52,4.52,0,0,0-2,0,5.32,5.32,0,0,0-1.81,1c-11.6,8.69-21.69,19.39-34,27.06a16.73,16.73,0,0,0-4,3,5.07,5.07,0,0,0-1.31,4.61c.73,2.47,3.7,3.45,6.27,3.62,9.06.63,17.54-3.93,25.83-7.63,2.95-1.33,6-2.62,8.29-4.95,1.28-1.32,2.23-2.94,3.58-4.19,3.37-3.1,8.72-3.54,11.68-7" transform="translate(-3.98 -12.68)" fill="url(#linear-gradient-13)"/><path d="M251.56,160.31l2.73-2.16,2.31-1.81q10.74-8.46,21.5-16.91c1.15-.9,2.59-1.86,4-1.35a4.41,4.41,0,0,1,1.7,1.4,69.87,69.87,0,0,0,11.62,10.58c3,2.16,6.26,4.22,8,7.48a6.4,6.4,0,0,1,.49,5.53c-1.18,2.54-4.29,3.39-6.86,4.51-5.13,2.25-9.05,6.52-13.43,10-6.25,5-13.55,8.45-20.77,11.87l-10.19,4.82a6.3,6.3,0,0,1-3.79.9c-1.87-.36-3-2.29-3.39-4.15s-.2-3.81-.66-5.65c-1.11-4.42-7.35-8.48-6.29-13.35C239.48,167.42,248.11,163,251.56,160.31Z" transform="translate(-3.98 -12.68)" fill="#f7aa35"/><path d="M249.68,155.92l2.73-2.15,2.31-1.81q10.74-8.46,21.5-16.91c1.15-.9,2.59-1.86,4-1.35a4.41,4.41,0,0,1,1.7,1.4,69.87,69.87,0,0,0,11.62,10.58c3,2.16,6.26,4.22,8,7.48a6.4,6.4,0,0,1,.49,5.53c-1.18,2.54-4.29,3.39-6.86,4.51-5.13,2.25-9.05,6.52-13.43,10-6.25,5-13.55,8.45-20.77,11.86l-10.19,4.83a6.37,6.37,0,0,1-3.79.9c-1.87-.36-3-2.29-3.39-4.15s-.2-3.81-.66-5.65c-1.11-4.42-7.35-8.48-6.29-13.35C237.6,163,246.23,158.63,249.68,155.92Z" transform="translate(-3.98 -12.68)" fill="#f7aa35"/><path d="M249.68,155.92l2.73-2.15,2.31-1.81q10.74-8.46,21.5-16.91c1.15-.9,2.59-1.86,4-1.35a4.41,4.41,0,0,1,1.7,1.4,69.87,69.87,0,0,0,11.62,10.58c3,2.16,6.26,4.22,8,7.48a6.4,6.4,0,0,1,.49,5.53c-1.18,2.54-4.29,3.39-6.86,4.51-5.13,2.25-9.05,6.52-13.43,10-6.25,5-13.55,8.45-20.77,11.86l-10.19,4.83a6.37,6.37,0,0,1-3.79.9c-1.87-.36-3-2.29-3.39-4.15s-.2-3.81-.66-5.65c-1.11-4.42-7.35-8.48-6.29-13.35C237.6,163,246.23,158.63,249.68,155.92Z" transform="translate(-3.98 -12.68)" fill="url(#linear-gradient-14)"/><path d="M252.73,157.25c.93,3.35,1.8,7.16,0,10.12a11.89,11.89,0,0,0,3.3-6.22,4.52,4.52,0,0,0,3.52,1.68l-2.39-2.32c-.29-.28-.54-.82-.18-1a.64.64,0,0,1,.41,0l2.85.73a4.29,4.29,0,0,1-.23-5.72c1.48-1.67,4-1.87,6-2.82a1.72,1.72,0,0,1-1-2.53,3.23,3.23,0,0,1,2.78-1.37A3.62,3.62,0,0,1,271,149.3c.65,1.07.14,2.79-1.09,3a1.26,1.26,0,0,1,1.81,1.09c-.06.88-1,1.41-1.93,1.42s-1.72-.31-2.6-.35a4.11,4.11,0,0,0-4,2.88c.73-1,2.44-.28,2.81.87a5.11,5.11,0,0,1-.6,3.49,8.44,8.44,0,0,1,1.33-3.85,2.9,2.9,0,0,1,3.63-1,2.34,2.34,0,0,0-.51-1.09l5.33-.54c.92-.1,2.17-.72,1.77-1.55l-3.65.93c-1.43-1,1.07-3.36.22-4.88a8.72,8.72,0,0,1-.63-.87,2.11,2.11,0,0,1,.28-1.67,31.44,31.44,0,0,1-7.49-.69c-.5,1.45-2,2.21-3.36,3s-2.67,2.1-2.39,3.61l-2.23-.35c.78,1-.2,2.63-1.46,2.93a6,6,0,0,1-3.72-.78c-.11,1.38-.31,2.93-1.41,3.77a5.83,5.83,0,0,1-1.85.78,20.72,20.72,0,0,0-6.86,3.61,1.24,1.24,0,0,1,1.09,1.24,3.59,3.59,0,0,1-.52,1.72L240.49,171a13.27,13.27,0,0,1,4.74,1.84l-.9,1.75a17,17,0,0,0,4.59,3,4.25,4.25,0,0,0,2.4,4.82,8.52,8.52,0,0,0-2.9,4.92l-.09-4.06c-2.18-1-2.22-4.5-4.4-5.5-.73-.34-1.68-.39-2.09-1.07-.6-1,.42-2.6-.48-3.32-.5-.4-1.32-.21-1.78-.65a1.42,1.42,0,0,1,.09-1.78,5.25,5.25,0,0,0,1-1.63,4.09,4.09,0,0,0,0-1.21,8.8,8.8,0,0,1,3.18-7,16.88,16.88,0,0,1,7.13-3.45,1.66,1.66,0,0,1,1,0c.35.14.56.5.87.73.87.63,2.12,0,3.15.27" transform="translate(-3.98 -12.68)" fill="#f7aa35"/><path d="M251.29,186.87c-5-.12-10.42.64-14.16,4-1.16,1-2.17,2.75-1.38,4.1a3.88,3.88,0,0,0,2.07,1.42,40.8,40.8,0,0,0,10.38,2.52,13.17,13.17,0,0,0,6.94-.69,7.86,7.86,0,0,0,4.19-4.85c.49-1.65.72-4.59-1-5.67S253.22,186.92,251.29,186.87Z" transform="translate(-3.98 -12.68)" fill="#f7aa35"/><path d="M251.48,185.78c-5-.13-10.42.64-14.16,4-1.16,1-2.17,2.74-1.38,4.09A3.85,3.85,0,0,0,238,195.3a41.66,41.66,0,0,0,10.38,2.52,13.07,13.07,0,0,0,6.94-.7,7.84,7.84,0,0,0,4.19-4.84c.49-1.65.72-4.59-1-5.67S253.41,185.83,251.48,185.78Z" transform="translate(-3.98 -12.68)" fill="url(#linear-gradient-15)"/><path d="M245.1,193c-5-.13-10.42.64-14.16,4-1.16,1-2.17,2.74-1.38,4.09a3.79,3.79,0,0,0,2.06,1.42A41.24,41.24,0,0,0,242,205a13.17,13.17,0,0,0,6.94-.7,7.88,7.88,0,0,0,4.2-4.84c.49-1.65.71-4.59-1-5.68S247,193,245.1,193Z" transform="translate(-3.98 -12.68)" fill="#f7aa35"/><path d="M245.29,191.88c-5-.12-10.42.64-14.16,4-1.16,1.05-2.17,2.75-1.38,4.1a3.9,3.9,0,0,0,2.06,1.42,41.24,41.24,0,0,0,10.38,2.53,13.27,13.27,0,0,0,6.94-.7,7.88,7.88,0,0,0,4.2-4.85c.49-1.65.71-4.59-1-5.67S247.22,191.93,245.29,191.88Z" transform="translate(-3.98 -12.68)" fill="url(#linear-gradient-16)"/><path d="M237.33,200.32c-4.67-1.88-10-3-14.67-1.2-1.45.57-3,1.81-2.72,3.35a3.83,3.83,0,0,0,1.44,2.06,41.08,41.08,0,0,0,8.84,6,13.18,13.18,0,0,0,6.74,1.77,7.85,7.85,0,0,0,5.63-3.07c1-1.38,2.27-4.05,1.08-5.65S239.12,201,237.33,200.32Z" transform="translate(-3.98 -12.68)" fill="#f7aa35"/><path d="M237.89,199.36c-4.66-1.88-10-3-14.67-1.2-1.45.57-3,1.81-2.72,3.35a3.83,3.83,0,0,0,1.44,2.06,41.08,41.08,0,0,0,8.84,6,13.09,13.09,0,0,0,6.75,1.77,7.85,7.85,0,0,0,5.62-3.07c1-1.37,2.27-4,1.08-5.65S239.68,200.08,237.89,199.36Z" transform="translate(-3.98 -12.68)" fill="url(#linear-gradient-17)"/><path d="M287.46,174.27c-4-.1-8.24.51-11.19,3.16-.92.83-1.72,2.17-1.09,3.24a3,3,0,0,0,1.63,1.12,32.56,32.56,0,0,0,8.2,2,10.49,10.49,0,0,0,5.48-.55,6.25,6.25,0,0,0,3.32-3.83c.38-1.3.56-3.63-.76-4.48S289,174.31,287.46,174.27Z" transform="translate(-3.98 -12.68)" fill="#f7aa35"/><path d="M287.61,173.41c-4-.1-8.24.51-11.19,3.16-.92.82-1.71,2.17-1.09,3.23a3,3,0,0,0,1.63,1.13,32.54,32.54,0,0,0,8.2,2,10.39,10.39,0,0,0,5.48-.55,6.25,6.25,0,0,0,3.32-3.83c.38-1.3.56-3.62-.76-4.48S289.13,173.45,287.61,173.41Z" transform="translate(-3.98 -12.68)" fill="url(#linear-gradient-18)"/><path d="M282.56,179.09c-4-.09-8.23.51-11.18,3.17-.92.82-1.72,2.16-1.1,3.23a3,3,0,0,0,1.64,1.12,32.59,32.59,0,0,0,8.19,2,10.42,10.42,0,0,0,5.49-.55,6.2,6.2,0,0,0,3.31-3.83c.39-1.3.57-3.62-.76-4.48S284.09,179.13,282.56,179.09Z" transform="translate(-3.98 -12.68)" fill="#f7aa35"/><path d="M282.71,178.23c-4-.1-8.23.51-11.18,3.16-.92.83-1.72,2.17-1.1,3.23a3,3,0,0,0,1.64,1.13,32.12,32.12,0,0,0,8.2,2,10.3,10.3,0,0,0,5.48-.55,6.19,6.19,0,0,0,3.31-3.82c.39-1.31.57-3.63-.75-4.49S284.24,178.27,282.71,178.23Z" transform="translate(-3.98 -12.68)" fill="url(#linear-gradient-19)"/><path d="M276.42,184.89c-3.68-1.48-7.89-2.4-11.58-.94-1.15.45-2.37,1.43-2.16,2.64a3.1,3.1,0,0,0,1.14,1.63,32.44,32.44,0,0,0,7,4.73,10.32,10.32,0,0,0,5.33,1.4,6.23,6.23,0,0,0,4.44-2.43c.82-1.08,1.79-3.2.85-4.46S277.84,185.46,276.42,184.89Z" transform="translate(-3.98 -12.68)" fill="#f7aa35"/><path d="M276.87,184.14c-3.69-1.48-7.89-2.4-11.59-.95-1.15.45-2.36,1.43-2.15,2.65a3,3,0,0,0,1.13,1.62,32.85,32.85,0,0,0,7,4.74,10.52,10.52,0,0,0,5.33,1.4,6.21,6.21,0,0,0,4.44-2.43c.82-1.09,1.8-3.2.86-4.47S278.28,184.7,276.87,184.14Z" transform="translate(-3.98 -12.68)" fill="url(#linear-gradient-20)"/><path d="M268.69,181.25c-4-.1-8.23.5-11.18,3.16-.92.82-1.72,2.16-1.09,3.23a3,3,0,0,0,1.63,1.12,32.56,32.56,0,0,0,8.2,2,10.39,10.39,0,0,0,5.48-.55,6.25,6.25,0,0,0,3.32-3.83c.38-1.3.56-3.62-.76-4.48S270.22,181.28,268.69,181.25Z" transform="translate(-3.98 -12.68)" fill="#f7aa35"/><path d="M268.85,180.38c-4-.1-8.24.51-11.19,3.16-.92.83-1.71,2.17-1.09,3.24a3,3,0,0,0,1.63,1.12,32.56,32.56,0,0,0,8.2,2,10.49,10.49,0,0,0,5.48-.55,6.25,6.25,0,0,0,3.32-3.83c.38-1.3.56-3.63-.76-4.48S270.37,180.42,268.85,180.38Z" transform="translate(-3.98 -12.68)" fill="url(#linear-gradient-21)"/><path d="M263.8,186.07c-4-.1-8.23.51-11.19,3.16-.91.82-1.71,2.17-1.09,3.23a3.12,3.12,0,0,0,1.63,1.13,32.75,32.75,0,0,0,8.2,2,10.42,10.42,0,0,0,5.49-.55,6.2,6.2,0,0,0,3.31-3.83c.39-1.3.56-3.62-.76-4.48S265.32,186.11,263.8,186.07Z" transform="translate(-3.98 -12.68)" fill="#f7aa35"/><path d="M264,185.2c-4-.09-8.23.51-11.18,3.16-.92.83-1.72,2.17-1.1,3.24a3,3,0,0,0,1.64,1.12,32.59,32.59,0,0,0,8.19,2,10.42,10.42,0,0,0,5.49-.55,6.2,6.2,0,0,0,3.31-3.83c.39-1.3.57-3.63-.76-4.48S265.48,185.24,264,185.2Z" transform="translate(-3.98 -12.68)" fill="url(#linear-gradient-22)"/><path d="M250.32,191.93c-2.16-.87-4.63-1.41-6.8-.56-.67.27-1.38.84-1.26,1.55a1.82,1.82,0,0,0,.67,1,18.64,18.64,0,0,0,4.09,2.77,6,6,0,0,0,3.13.82,3.6,3.6,0,0,0,2.6-1.42c.48-.64,1.06-1.88.5-2.62S251.15,192.26,250.32,191.93Z" transform="translate(-3.98 -12.68)" fill="#f7aa35"/><path d="M250.58,191.48c-2.16-.86-4.63-1.4-6.8-.55-.67.26-1.38.84-1.26,1.55a1.76,1.76,0,0,0,.67,1,18.68,18.68,0,0,0,4.09,2.78,6.13,6.13,0,0,0,3.13.82,3.67,3.67,0,0,0,2.6-1.42c.48-.64,1.06-1.88.5-2.62S251.41,191.82,250.58,191.48Z" transform="translate(-3.98 -12.68)" fill="url(#linear-gradient-23)"/><path d="M257.32,197c-2.16-.87-4.63-1.41-6.8-.55-.67.26-1.38.84-1.26,1.55a1.76,1.76,0,0,0,.67.95,19.17,19.17,0,0,0,4.09,2.78,6.13,6.13,0,0,0,3.13.82,3.69,3.69,0,0,0,2.61-1.42c.48-.64,1.05-1.88.5-2.62S258.15,197.33,257.32,197Z" transform="translate(-3.98 -12.68)" fill="#f7aa35"/><path d="M257.58,196.56c-2.16-.87-4.63-1.41-6.8-.56-.67.27-1.38.84-1.26,1.56a1.76,1.76,0,0,0,.67.95,19.13,19.13,0,0,0,4.09,2.77,6.14,6.14,0,0,0,3.13.83,3.67,3.67,0,0,0,2.61-1.43c.48-.63,1.05-1.87.5-2.62S258.41,196.89,257.58,196.56Z" transform="translate(-3.98 -12.68)" fill="url(#linear-gradient-24)"/><path d="M259.85,191.71c-2.16-.87-4.63-1.41-6.8-.56-.67.27-1.38.84-1.26,1.55a1.82,1.82,0,0,0,.67,1,19.25,19.25,0,0,0,4.09,2.77,6.13,6.13,0,0,0,3.13.82,3.62,3.62,0,0,0,2.6-1.42c.48-.64,1.06-1.88.51-2.62S260.68,192,259.85,191.71Z" transform="translate(-3.98 -12.68)" fill="#f7aa35"/><path d="M260.11,191.26c-2.16-.87-4.63-1.41-6.8-.55-.67.26-1.38.84-1.26,1.55a1.76,1.76,0,0,0,.67,1,18.92,18.92,0,0,0,4.09,2.78,6.13,6.13,0,0,0,3.13.82,3.69,3.69,0,0,0,2.61-1.42c.47-.64,1.05-1.88.5-2.62S260.94,191.59,260.11,191.26Z" transform="translate(-3.98 -12.68)" fill="url(#linear-gradient-25)"/><path d="M257.19,187.28c-2.16-.87-4.63-1.41-6.8-.55-.67.26-1.38.83-1.26,1.55a1.76,1.76,0,0,0,.67.95,19.55,19.55,0,0,0,4.09,2.78,6.13,6.13,0,0,0,3.13.82,3.67,3.67,0,0,0,2.61-1.43c.48-.63,1.05-1.87.5-2.61S258,187.61,257.19,187.28Z" transform="translate(-3.98 -12.68)" fill="#f7aa35"/><path d="M257.45,186.84c-2.16-.87-4.63-1.41-6.8-.56-.67.27-1.38.84-1.26,1.55a1.82,1.82,0,0,0,.67,1,19.5,19.5,0,0,0,4.09,2.77,6,6,0,0,0,3.13.82,3.62,3.62,0,0,0,2.61-1.42c.48-.64,1.05-1.88.5-2.62S258.28,187.17,257.45,186.84Z" transform="translate(-3.98 -12.68)" fill="url(#linear-gradient-26)"/><path d="M249.9,192.67c-2.16-.86-4.62-1.4-6.79-.55-.67.26-1.39.84-1.26,1.55a1.74,1.74,0,0,0,.66,1,19,19,0,0,0,4.1,2.78,6.1,6.1,0,0,0,3.12.82,3.67,3.67,0,0,0,2.61-1.42c.48-.64,1-1.88.5-2.62S250.73,193,249.9,192.67Z" transform="translate(-3.98 -12.68)" fill="#f7aa35"/><path d="M250.16,192.23c-2.16-.87-4.62-1.41-6.79-.56-.67.27-1.39.84-1.26,1.56a1.74,1.74,0,0,0,.66,1,19.35,19.35,0,0,0,4.1,2.78,6.2,6.2,0,0,0,3.12.82,3.65,3.65,0,0,0,2.61-1.43c.48-.63,1.05-1.87.5-2.62S251,192.56,250.16,192.23Z" transform="translate(-3.98 -12.68)" fill="url(#linear-gradient-27)"/><path d="M252,191.29c.48-2.28.58-4.8-.64-6.79-.38-.62-1.07-1.22-1.75-1a1.81,1.81,0,0,0-.82.82,19.7,19.7,0,0,0-2,4.52,6.12,6.12,0,0,0-.26,3.22,3.67,3.67,0,0,0,1.86,2.32c.71.36,2,.71,2.67,0S251.8,192.16,252,191.29Z" transform="translate(-3.98 -12.68)" fill="#f7aa35"/><path d="M252.47,191.47c.47-2.28.57-4.81-.65-6.79-.38-.62-1.07-1.22-1.75-1a1.76,1.76,0,0,0-.82.82,19.25,19.25,0,0,0-2,4.52,6.12,6.12,0,0,0-.26,3.22,3.63,3.63,0,0,0,1.85,2.32c.72.36,2,.7,2.67,0S252.28,192.34,252.47,191.47Z" transform="translate(-3.98 -12.68)" fill="url(#linear-gradient-28)"/><path d="M270,185.4c-4-.1-8.23.5-11.18,3.16-.92.82-1.72,2.16-1.09,3.23a3,3,0,0,0,1.63,1.13,32.54,32.54,0,0,0,8.2,2,10.39,10.39,0,0,0,5.48-.55,6.25,6.25,0,0,0,3.32-3.83c.38-1.3.56-3.62-.76-4.48S271.55,185.43,270,185.4Z" transform="translate(-3.98 -12.68)" fill="#f7aa35"/><path d="M270.17,184.53c-4-.1-8.23.51-11.18,3.16-.92.83-1.72,2.17-1.09,3.24a3,3,0,0,0,1.63,1.12,32.56,32.56,0,0,0,8.2,2,10.39,10.39,0,0,0,5.48-.55,6.25,6.25,0,0,0,3.32-3.83c.38-1.3.56-3.63-.76-4.48S271.7,184.57,270.17,184.53Z" transform="translate(-3.98 -12.68)" fill="url(#linear-gradient-29)"/><path d="M258.72,195.6c-1.66,2.78-2.93,6-2.23,9.19.21,1,.85,2.08,1.85,2.07a2.46,2.46,0,0,0,1.45-.71,26.84,26.84,0,0,0,4.69-5,8.45,8.45,0,0,0,1.8-4.11,5,5,0,0,0-1.39-3.88c-.76-.79-2.34-1.84-3.48-1.25S259.35,194.54,258.72,195.6Z" transform="translate(-3.98 -12.68)" fill="#f7aa35"/><path d="M258.16,195.15c-1.65,2.77-2.92,6-2.22,9.19.21,1,.85,2.08,1.85,2.07a2.46,2.46,0,0,0,1.45-.71,26.84,26.84,0,0,0,4.69-5,8.45,8.45,0,0,0,1.8-4.11,5.07,5.07,0,0,0-1.39-3.88c-.77-.79-2.34-1.84-3.48-1.25S258.8,194.09,258.16,195.15Z" transform="translate(-3.98 -12.68)" fill="url(#linear-gradient-30)"/><path d="M251.73,199.54c-3.68-1.48-7.89-2.4-11.58-.94-1.15.45-2.37,1.43-2.16,2.64a3.1,3.1,0,0,0,1.14,1.63,32.44,32.44,0,0,0,7,4.73,10.32,10.32,0,0,0,5.33,1.4,6.26,6.26,0,0,0,4.44-2.42c.82-1.09,1.79-3.21.85-4.47S253.15,200.11,251.73,199.54Z" transform="translate(-3.98 -12.68)" fill="#f7aa35"/><path d="M252.18,198.79c-3.69-1.48-7.89-2.4-11.59-.95-1.15.45-2.36,1.43-2.15,2.65a3,3,0,0,0,1.13,1.62,32.85,32.85,0,0,0,7,4.74,10.42,10.42,0,0,0,5.33,1.4,6.21,6.21,0,0,0,4.44-2.43c.82-1.09,1.8-3.2.86-4.47S253.59,199.35,252.18,198.79Z" transform="translate(-3.98 -12.68)" fill="url(#linear-gradient-31)"/><path d="M237.67,190.89c-3.63-1.45-7.77-2.36-11.42-.93-1.13.45-2.33,1.41-2.12,2.61a2.94,2.94,0,0,0,1.12,1.6,31.92,31.92,0,0,0,6.89,4.67,10.24,10.24,0,0,0,5.25,1.38,6.13,6.13,0,0,0,4.38-2.39c.81-1.07,1.77-3.16.84-4.41S239.07,191.45,237.67,190.89Z" transform="translate(-3.98 -12.68)" fill="#f7aa35"/><path d="M238.11,190.15c-3.63-1.46-7.78-2.37-11.42-.94-1.13.45-2.33,1.42-2.12,2.62a3,3,0,0,0,1.12,1.6,32.42,32.42,0,0,0,6.88,4.66,10.18,10.18,0,0,0,5.26,1.38,6.13,6.13,0,0,0,4.38-2.39c.8-1.07,1.77-3.16.84-4.4S239.51,190.71,238.11,190.15Z" transform="translate(-3.98 -12.68)" fill="url(#linear-gradient-32)"/><path d="M243.3,184.2c-2.9.49-5.91,1.54-7.68,3.88-.56.73-.94,1.82-.34,2.51a2.28,2.28,0,0,0,1.34.58,23.74,23.74,0,0,0,6.24.29,7.69,7.69,0,0,0,3.91-1.17,4.67,4.67,0,0,0,1.87-3.25c.09-1-.11-2.72-1.19-3.15S244.41,184,243.3,184.2Z" transform="translate(-3.98 -12.68)" fill="#f7aa35"/><path d="M243.28,183.55c-2.89.49-5.91,1.54-7.68,3.88-.55.73-.94,1.82-.33,2.51a2.22,2.22,0,0,0,1.34.58,23.74,23.74,0,0,0,6.24.29,7.71,7.71,0,0,0,3.91-1.17,4.6,4.6,0,0,0,1.86-3.25c.1-1-.1-2.72-1.18-3.15S244.4,183.37,243.28,183.55Z" transform="translate(-3.98 -12.68)" fill="url(#linear-gradient-33)"/></svg>