<svg id="Layer_1" data-name="Layer 1" xmlns="http://www.w3.org/2000/svg" xmlns:xlink="http://www.w3.org/1999/xlink" viewBox="0 0 416.08 348.56"><defs><linearGradient id="linear-gradient" x1="224.51" y1="300.8" x2="220.13" y2="372.97" gradientUnits="userSpaceOnUse"><stop offset="0.01"/><stop offset="1" stop-opacity="0"/></linearGradient><linearGradient id="linear-gradient-2" x1="340.93" y1="329.45" x2="364.51" y2="329.45" xlink:href="#linear-gradient"/><linearGradient id="linear-gradient-3" x1="269.47" y1="313.16" x2="357.44" y2="313.16" xlink:href="#linear-gradient"/><linearGradient id="linear-gradient-4" x1="158.64" y1="164.15" x2="209.09" y2="164.15" gradientUnits="userSpaceOnUse"><stop offset="0.01"/><stop offset="0.13" stop-opacity="0.69"/><stop offset="1" stop-opacity="0"/></linearGradient><linearGradient id="linear-gradient-5" x1="183.94" y1="300.4" x2="180.29" y2="367.84" xlink:href="#linear-gradient-4"/><linearGradient id="linear-gradient-6" x1="301.08" y1="249.97" x2="278.97" y2="296.38" xlink:href="#linear-gradient"/><linearGradient id="linear-gradient-7" x1="317.65" y1="242.91" x2="283.78" y2="247.12" xlink:href="#linear-gradient-4"/><linearGradient id="linear-gradient-8" x1="195.46" y1="224.97" x2="278.56" y2="224.97" xlink:href="#linear-gradient-4"/><linearGradient id="linear-gradient-9" x1="90.48" y1="223.51" x2="173.58" y2="223.51" xlink:href="#linear-gradient-4"/></defs><title>Watering Plant</title><path d="M423,266a203.64,203.64,0,0,1-10,41.85c-3,8.92-6.79,27.18-13.62,33.83C386.49,354.3,345.52,353.07,327.9,355c-19,2-38,3.48-57.13,4.44q-11,.55-21.94.91c-53,1.73-106,.28-159-1.17-10.73-.31-21.56-.62-31.91-3.44-1.3-.35-2.58-.75-3.85-1.18-20.6-7-37.42-24.56-43.37-45.54-6.12-21.6-1.09-45,8.33-65.41s23-38.53,35-57.51c6.69-10.58,12.91-21.45,19-32.41,15.51-28,30-56.73,48.56-82.81,9.4-13.19,20.25-26,34.7-33.31,10.57-5.33,22.48-7.41,34.28-8.34,14.86-1.17,30.21-.54,44.05,5,29.94,12,46.32,43.51,69.18,66.26,32.61,32.45,80.93,49,104.9,88.3a104.19,104.19,0,0,1,13,34A137.44,137.44,0,0,1,423,266Z" transform="translate(-8.03 -28.71)" fill="#f7aa35" opacity="0.18" style="isolation:isolate"/><path d="M423,266a203.64,203.64,0,0,1-10,41.85c-3,8.92-6.79,27.18-13.62,33.83C386.49,354.3,345.52,353.07,327.9,355c-19,2-38,3.48-57.13,4.44-71.71-5.89-144.44-5.24-216.69-4.88-20.6-7-37.42-24.56-43.37-45.54-6.12-21.6-1.09-45,8.33-65.41s23-38.53,35-57.51c6.69-10.58,12.91-21.45,19-32.41,16.3-4.7,32.5-2,45.67,13.33,10.9,12.68,17.2,28.55,25.85,42.85,9.23,15.27,21.62,29.12,37.57,37.1s35.81,9.33,51.43.71c26-14.31,32.52-49.52,55.29-68.5,5.44-4.52,12.09-8.12,19.17-8,12.24.18,21.44,10.86,28.45,20.89A430.85,430.85,0,0,1,361,231.5c3.77,6.85,7.94,14.34,15.22,17.18,11.59,4.51,23.57-5,32.13-14.06a82.43,82.43,0,0,1,13.33-11.88A137.44,137.44,0,0,1,423,266Z" transform="translate(-8.03 -28.71)" fill="#f7aa35" opacity="0.23" style="isolation:isolate"/><path d="M316,329.64c25.88-.16,52-.09,77.31,5.44,3.63.79,8,2.57,8.2,6.28.17,3.13-2.85,5.4-5.6,6.91-27,14.9-59.13,16.25-89.44,22.07-13.28,2.55-26.45,6-39.95,6.76-29.78,1.66-58.54-10-88.05-14.28-36.21-5.31-73.17.43-109.64-2.52-9.24-.74-19.6-2.75-24.66-10.52a8.48,8.48,0,0,1-1.54-6.45c1.18-4.82,7.46-5.85,12.41-5.89,67.49-.65,135.07-5.94,202.7-7.12C277.11,330,296.53,329.64,316,329.64Z" transform="translate(-8.03 -28.71)" fill="#f7aa35"/><path d="M316,329.64c25.88-.16,52-.09,77.31,5.44,3.63.79,8,2.57,8.2,6.28.17,3.13-2.85,5.4-5.6,6.91-27,14.9-59.13,16.25-89.44,22.07-13.28,2.55-26.45,6-39.95,6.76-29.78,1.66-58.54-10-88.05-14.28-36.21-5.31-73.17.43-109.64-2.52-9.24-.74-19.6-2.75-24.66-10.52a8.48,8.48,0,0,1-1.54-6.45c1.18-4.82,7.46-5.85,12.41-5.89,67.49-.65,135.07-5.94,202.7-7.12C277.11,330,296.53,329.64,316,329.64Z" transform="translate(-8.03 -28.71)" fill="url(#linear-gradient)"/><path d="M351.65,325a7.87,7.87,0,0,1,2.45,1.12,36.23,36.23,0,0,0,8.06,3.48c1.11.32,2.51,1,2.33,2.12a1.83,1.83,0,0,1-.84,1.15,8,8,0,0,1-4.65,1,70.7,70.7,0,0,1-14.75-1.13c-2.79-.57-4.75-3.3-2-5.44C344,326,349.64,324.66,351.65,325Z" transform="translate(-8.03 -28.71)" fill="#3e3e54"/><path d="M351.65,325a7.87,7.87,0,0,1,2.45,1.12,36.23,36.23,0,0,0,8.06,3.48c1.11.32,2.51,1,2.33,2.12a1.83,1.83,0,0,1-.84,1.15,8,8,0,0,1-4.65,1,70.7,70.7,0,0,1-14.75-1.13c-2.79-.57-4.75-3.3-2-5.44C344,326,349.64,324.66,351.65,325Z" transform="translate(-8.03 -28.71)" fill="url(#linear-gradient-2)"/><path d="M309,294.9c-11.53,5.75-23.17,11.57-32.94,19.65a20.45,20.45,0,0,0-5.57,6.29,7.74,7.74,0,0,0,.18,7.85c1.21,1.72,3.23,2.76,5.17,3.73,5.28,2.65,10.69,5.35,16.61,6.18a55.45,55.45,0,0,0,8.93.3c5.64-.11,11.29-.22,16.89-.82,6.43-.68,12.77-2,19.17-2.95a10.66,10.66,0,0,0,5-1.59c1.38-1.06,2-3.21.69-4.38-.92-.84-2.36-.87-3.64-.85a226.61,226.61,0,0,1-26.7-1.19,209.41,209.41,0,0,0,21-4.17c5.39-1.46,10.73-3.39,15.15-6.61s7.84-7.89,8.41-13.08c.3-2.76-.2-5.54-.43-8.31-.18-2.11-.28-4.43-1.79-6-2.07-2.17-5.71-1.95-8.8-1.56L326.14,290a80,80,0,0,0-8.4,1C314.69,291.73,311.71,293.53,309,294.9Z" transform="translate(-8.03 -28.71)" fill="#3e3e54"/><path d="M309,294.94c-11.53,5.77-23.17,11.62-32.94,19.74a20.63,20.63,0,0,0-5.57,6.31,7.83,7.83,0,0,0,.18,7.9c1.21,1.72,3.23,2.77,5.17,3.75,5.28,2.66,10.69,5.36,16.61,6.2a56.62,56.62,0,0,0,8.93.31c5.64-.12,11.29-.23,16.89-.83,6.43-.69,12.77-2,19.17-3a10.67,10.67,0,0,0,5-1.6c1.38-1.07,2-3.23.69-4.4-.92-.85-2.36-.87-3.64-.85a222.4,222.4,0,0,1-26.7-1.21,206.68,206.68,0,0,0,21-4.18c5.39-1.47,10.73-3.41,15.15-6.65s7.84-7.92,8.41-13.14c.3-2.77-.2-5.56-.43-8.34-.18-2.12-.28-4.45-1.79-6-2.07-2.18-5.71-2-8.8-1.57L326.14,290a77.39,77.39,0,0,0-8.4,1C314.69,291.76,311.71,293.56,309,294.94Z" transform="translate(-8.03 -28.71)" fill="url(#linear-gradient-3)"/><path d="M183.05,214.64c-3.78-3.35-10.61-6.72-14.62-9.8s-7.72-6.9-9.2-11.73-.17-10.79,4.1-13.49a26.41,26.41,0,0,0,2.94-1.78,5.63,5.63,0,0,0-.77-8.76c-4.22-2.42-1.77-10.59,2.09-13.54,2.8-2.14,6.94-2.89,8.42-6.1,1.75-3.8-1.59-8.2-.85-12.32.94-5.24,7.33-7,12.24-9a31,31,0,0,0,15.12-13.51,30.45,30.45,0,0,0,1.32,20.14c1.56,3.63,3.84,7,4.8,10.8a17.06,17.06,0,0,1-8.46,18.7,11.08,11.08,0,0,1,4.69,19.59c-1.63,1.28-3.59,2.09-5.16,3.44s-2.7,3.57-1.89,5.47c1.29,3.05,6,2.7,8.19,5.21s.43,6.89-2.52,8.61-6.56,1.69-10,2.1C188.23,209.26,185.1,209.72,183.05,214.64Z" transform="translate(-8.03 -28.71)" fill="#f7aa35"/><path d="M182.87,213.73c-3.78-3.35-10.43-5.81-14.44-8.89s-7.72-6.9-9.2-11.73-.17-10.79,4.1-13.49a26.41,26.41,0,0,0,2.94-1.78,5.63,5.63,0,0,0-.77-8.76c-4.22-2.42-1.77-10.59,2.09-13.54,2.8-2.14,6.94-2.89,8.42-6.1,1.75-3.8-1.59-8.2-.85-12.32.94-5.24,7.33-7,12.24-9a31,31,0,0,0,15.12-13.51,30.45,30.45,0,0,0,1.32,20.14c1.56,3.63,3.84,7,4.8,10.8a17.06,17.06,0,0,1-8.46,18.7,11.08,11.08,0,0,1,4.69,19.59c-1.63,1.28-3.59,2.09-5.16,3.44s-2.7,3.57-1.89,5.47c1.29,3.05,6,2.7,8.19,5.21s.43,6.89-2.52,8.61-6.56,1.69-10,2.1C188.23,209.26,184.91,208.81,182.87,213.73Z" transform="translate(-8.03 -28.71)" fill="url(#linear-gradient-4)"/><path d="M156.37,323.07a17.35,17.35,0,0,1,31.7-1.66c3.53-3.73,10-3.35,14.06-.28s6.27,8.11,7.45,13.1q-18.17,1-36.36.86c-3.72,0-13.49,1.52-16.53-.69S155.22,326.08,156.37,323.07Z" transform="translate(-8.03 -28.71)" fill="#f7aa35"/><path d="M156.37,323.07a17.35,17.35,0,0,1,31.7-1.66c3.53-3.73,10-3.35,14.06-.28s6.27,8.11,7.45,13.1q-18.17,1-36.36.86c-3.72,0-13.49,1.52-16.53-.69S155.22,326.08,156.37,323.07Z" transform="translate(-8.03 -28.71)" fill="url(#linear-gradient-5)"/><path d="M296.21,280.28c-8.67-5.17-20.39-1.2-29.55-5.43-2.49,1.35-7-1.2-5.78,1.37s-2.73,3.64-.45,5.32c8.33,6.12,29.88,10.34,39.39,14.41a8.17,8.17,0,0,0,4.46.93c2.61-.43,4.19-3.05,5.32-5.45a93,93,0,0,0,8.5-31.23c.39-4.38.46-8.87-.82-13.08s-1.72-7.81-5.77-9.52c-2.95-1.25-4.45-1.15-6.65,1.71s-3.16,7.65-2.93,10.76C302.68,260.28,298.46,270.29,296.21,280.28Z" transform="translate(-8.03 -28.71)" fill="#faaf90"/><path d="M296.21,280.28c-8.67-5.17-20.39-1.2-29.55-5.43-2.49,1.35-7-1.2-5.78,1.37s-2.73,3.64-.45,5.32c8.33,6.12,29.88,10.34,39.39,14.41a8.17,8.17,0,0,0,4.46.93c2.61-.43,4.19-3.05,5.32-5.45a93,93,0,0,0,8.5-31.23c.39-4.38.46-8.87-.82-13.08s-1.72-7.81-5.77-9.52c-2.95-1.25-4.45-1.15-6.65,1.71s-3.16,7.65-2.93,10.76C302.68,260.28,298.46,270.29,296.21,280.28Z" transform="translate(-8.03 -28.71)" fill="url(#linear-gradient-6)"/><path d="M300,250.28a2.11,2.11,0,0,0,.15,1.66,3.65,3.65,0,0,0,.86,1.14A28.93,28.93,0,0,0,316,261a72.67,72.67,0,0,0,.61-14.52,27.28,27.28,0,0,0-1.87-9.3,12.8,12.8,0,0,0-4.57-5.66c-2.76-1.81-3.14-5.68-4.6-3.05C302.65,233.77,304.25,241.74,300,250.28Z" transform="translate(-8.03 -28.71)" fill="#f7aa35"/><path d="M300,250.28a2,2,0,0,0,.15,1.66,3.65,3.65,0,0,0,.86,1.14A28.93,28.93,0,0,0,316,261a72.67,72.67,0,0,0,.61-14.52,27.28,27.28,0,0,0-1.87-9.3,12.8,12.8,0,0,0-4.57-5.66c-2.76-1.81-2.41-7.14-3.87-4.51C303.37,232.31,303.64,244.05,300,250.28Z" transform="translate(-8.03 -28.71)" fill="url(#linear-gradient-7)"/><path d="M315.63,218.09c-3.12,1.28-6.33,2.8-8.3,5.54s-2.38,6.14-2.38,9.43c0,11,4.16,21.42,8.28,31.57l7.62,18.77c1.28,3.16,2.61,6.38,4.91,8.89,3.75,4.09,9.56,5.65,15.1,6.07,7.05.53,14.84-.82,19.5-6.14,3.2-3.67,4.44-8.75,4.22-13.62s-1.74-9.58-3.51-14.12c-6.58-16.92-14.51-29-27.29-41.85C328.45,217.24,321.94,215.49,315.63,218.09Z" transform="translate(-8.03 -28.71)" fill="#f7aa35"/><path d="M295.83,209.77c.38,1.1,1.83,1.27,2.79,1.93,1.57,1.07,2,3.62,3.86,4,1.49.31,3.14-1.06,4.46-.3a2.81,2.81,0,0,1,1,1.41,12.8,12.8,0,0,1,.86,2.89c.15.85.31,1.87,1.09,2.25a2.6,2.6,0,0,0,1,.17,22.34,22.34,0,0,0,6.89-1,4.44,4.44,0,0,0,1.74-.86c1.47-1.31.94-3.67.46-5.58a32.85,32.85,0,0,1-1-8.13c0-3.23.46-6.62-.86-9.57a11.9,11.9,0,0,0-4.2-4.74,9.81,9.81,0,0,0-6.45-2.08c-3.55.39-9,4.24-9.52,8-.23,1.6.17,3.25,0,4.88C297.71,204.91,295.24,208.12,295.83,209.77Z" transform="translate(-8.03 -28.71)" fill="#faaf90"/><path d="M309.33,214.57A25,25,0,0,1,309,218a7,7,0,0,1-7.64,5.25,2.79,2.79,0,0,1-1.4-.56,3.39,3.39,0,0,1-.79-1.33,18.18,18.18,0,0,1-1.5-5.06,6.26,6.26,0,0,1,1.44-4.93,10.71,10.71,0,0,1,3.94-2.14,37.35,37.35,0,0,0,5.89-3,7.55,7.55,0,0,1,2.22-1.1c3.17-.73.8,2.13.15,3.2A14.25,14.25,0,0,0,309.33,214.57Z" transform="translate(-8.03 -28.71)" fill="#3e3e54"/><path d="M296,189.89c-2.11.65-4.52,1.13-5.77,3a4.85,4.85,0,0,0,.89,6.07,6.89,6.89,0,0,0,6.25,1.41c3.08-.74,6.3-3.12,9.05-1.55s3.06,6.53,6.25,7c-.28-1.62-.79-2.18-1.07-3.79.91-2.89,2.16-.45,2.5.49a9.81,9.81,0,0,1,.31,3,11.17,11.17,0,0,0,2.82,6.83c1,1.13,2.59,2.1,4,1.51,1.65-.69,1.84-2.91,1.76-4.7q-.24-5.74-.6-11.49a16,16,0,0,0-.79-4.77,11.27,11.27,0,0,0-2.83-4,14.88,14.88,0,0,0-11.62-4.34C303.17,184.9,300,188.67,296,189.89Z" transform="translate(-8.03 -28.71)" fill="#3e3e54"/><path d="M318,294c-11.53,6.18-23.17,12.43-32.94,21.13a21.7,21.7,0,0,0-5.57,6.76c-1.24,2.66-1.43,6,.18,8.44,1.21,1.85,3.23,3,5.18,4,5.27,2.85,10.68,5.74,16.6,6.64a51.21,51.21,0,0,0,8.93.32c5.64-.11,11.29-.23,16.89-.88,6.44-.73,12.77-2.16,19.17-3.17,1.77-.28,3.64-.57,5-1.71s2-3.46.69-4.71c-.92-.91-2.36-.93-3.64-.91a208.86,208.86,0,0,1-26.7-1.29,197.34,197.34,0,0,0,21-4.48c5.39-1.57,10.73-3.65,15.15-7.11s7.84-8.48,8.41-14.07c.3-3-.2-5.95-.43-8.93-.18-2.27-.28-4.76-1.79-6.46-2.07-2.34-5.71-2.1-8.8-1.68l-20.19,2.78c-2.73.37-5.76.41-8.4,1.1C323.68,290.62,320.7,292.55,318,294Z" transform="translate(-8.03 -28.71)" fill="#3e3e54"/><path d="M306.43,270.88a286.35,286.35,0,0,0-23.56-19c-2.69.84-3.85,4.26-3.19,7s2.65,5,4.57,7c7,7.61,14.17,15.2,22.72,21a8.19,8.19,0,0,0,4.2,1.76c2.64.08,4.71-2.19,6.27-4.32a92.89,92.89,0,0,0,14.33-29c1.23-4.22,2.16-8.62,1.71-13s-2.47-8.75-6.12-11.21c-2.66-1.79-7.81-2.92-10.52-.53s-1.95,7.62-2.32,10.71A104.26,104.26,0,0,1,306.43,270.88Z" transform="translate(-8.03 -28.71)" fill="#faaf90"/><path d="M312.71,237.62l-1.84,15.11a1.75,1.75,0,0,0,1.17,2.2,89.32,89.32,0,0,0,13.72,6.27,11.86,11.86,0,0,0,6.49.84,2,2,0,0,0,1.06-.53,2.28,2.28,0,0,0,.4-1.05A79.36,79.36,0,0,0,335,250.15a35.6,35.6,0,0,0-.55-9.94c-.73-3.25-2.09-13.61-4.5-15.91-3.11-3-6.71-2-10.94-1.45S313.12,234.28,312.71,237.62Z" transform="translate(-8.03 -28.71)" fill="#f7aa35"/><path d="M360,328.57a8.14,8.14,0,0,1,2.44,1.11,35.33,35.33,0,0,0,8.06,3.48c1.11.32,2.51,1,2.34,2.12a1.86,1.86,0,0,1-.84,1.16,8,8,0,0,1-4.65,1,71.38,71.38,0,0,1-14.75-1.12c-2.79-.57-4.75-3.31-2-5.44C352.36,329.54,358,328.19,360,328.57Z" transform="translate(-8.03 -28.71)" fill="#3e3e54"/><path d="M246.73,249.32h20.61a3.13,3.13,0,0,1,3.13,3.13v16.34A13.44,13.44,0,0,1,257,282.23h0a13.44,13.44,0,0,1-13.44-13.44V252.46a3.13,3.13,0,0,1,3.13-3.13Z" transform="translate(-72.97 55.3) rotate(-16.51)" fill="#f7aa35"/><path d="M269.87,265.89l-1.34-3.42c.84-.34,3.22-1.63,4-3.49a3.71,3.71,0,0,0-.11-3c-1.7-4.08-5.64-2.9-6.42-2.62l-1.27-3.44c2.73-1.05,8.57-1.37,11.08,4.65a7.31,7.31,0,0,1,.09,5.83C274.38,264,270.33,265.71,269.87,265.89Z" transform="translate(-8.03 -28.71)" fill="#f7aa35"/><path d="M227.29,260.31l16.35,2.7,2.76,9.33-19.5-9.4S225.13,260.59,227.29,260.31Z" transform="translate(-8.03 -28.71)" fill="#f7aa35"/><path d="M274.67,248.5a1,1,0,0,0-.76.37c-.16.33.07.7.1,1.06a1.52,1.52,0,0,1-.88,1.35,11.26,11.26,0,0,0-1.5.79,3,3,0,0,0-1,2.57,8.21,8.21,0,0,0,.84,2.71c.73,1.63,1.67,3.38,3.35,4a7,7,0,0,0,2.81.19l7.24-.51a.88.88,0,0,0,.51-.16.77.77,0,0,0,.16-.41c.52-3.06-1.12-6.71-2.67-9.27S277.25,248.17,274.67,248.5Z" transform="translate(-8.03 -28.71)" fill="#faaf90"/><polygon points="175.57 138.91 171.56 287.63 175.93 291.28 175.57 138.91" fill="#f7aa35"/><path d="M200.36,278.19s-2.67-10.69-4.61-19.68,6.56-9,10-15.07-11.18-15.79-2.92-25.52,19.69-4.61,17-13.85-4.61-12.39,6.81-14.33,16.28,4.61,17.74-4.14,3.16-11.9,14.82-11.17,16.28-2.68,16.28-2.68,3.89,2.19,1,5.11-2.19,2.43,1.45,9-8.5,5.59-11.42,12.88,7.54,6.32,1,14.33-18-5.58-15.31,6.32,9.24,12.64,1,16.53-18.6,2.59-15.13,9.31,9.29,12.32,1,12.07-18.95-4.86-17.49,1.46,6.31,11.18-1.46,13.37S200.36,278.19,200.36,278.19Z" transform="translate(-8.03 -28.71)" fill="#f7aa35"/><path d="M168.68,276.73s2.67-10.69,4.61-19.68-6.56-9-10-15.07,11.18-15.79,2.92-25.51-19.69-4.62-17-13.85,4.61-12.4-6.81-14.34-16.28,4.62-17.74-4.13-3.16-11.91-14.82-11.18-16.28-2.67-16.28-2.67-3.89,2.18-1,5.1,2.18,2.43-1.46,9,8.5,5.59,11.42,12.88-7.53,6.32-1,14.34,18-5.59,15.31,6.31-9.24,12.64-1,16.53,18.6,2.59,15.13,9.31-9.29,12.32-1,12.07,19-4.86,17.5,1.46-6.32,11.18,1.45,13.37S168.68,276.73,168.68,276.73Z" transform="translate(-8.03 -28.71)" fill="#f7aa35"/><path d="M200.36,278.19s-2.67-10.69-4.61-19.68,6.56-9,10-15.07-11.18-15.79-2.92-25.52,19.69-4.61,17-13.85-4.61-12.39,6.81-14.33,16.28,4.61,17.74-4.14,3.16-11.9,14.82-11.17,16.28-2.68,16.28-2.68,3.89,2.19,1,5.11-2.19,2.43,1.45,9-8.5,5.59-11.42,12.88,7.54,6.32,1,14.33-18-5.58-15.31,6.32,9.24,12.64,1,16.53-18.6,2.59-15.13,9.31,9.29,12.32,1,12.07-18.95-4.86-17.49,1.46,6.31,11.18-1.46,13.37S200.36,278.19,200.36,278.19Z" transform="translate(-8.03 -28.71)" fill="url(#linear-gradient-8)"/><path d="M168.68,276.73s2.67-10.69,4.61-19.68-6.56-9-10-15.07,11.18-15.79,2.92-25.51-19.69-4.62-17-13.85,4.61-12.4-6.81-14.34-16.28,4.62-17.74-4.13-3.16-11.91-14.82-11.18-16.28-2.67-16.28-2.67-3.89,2.18-1,5.1,2.18,2.43-1.46,9,8.5,5.59,11.42,12.88-7.53,6.32-1,14.34,18-5.59,15.31,6.31-9.24,12.64-1,16.53,18.6,2.59,15.13,9.31-9.29,12.32-1,12.07,19-4.86,17.5,1.46-6.32,11.18,1.45,13.37S168.68,276.73,168.68,276.73Z" transform="translate(-8.03 -28.71)" fill="url(#linear-gradient-9)"/><path d="M259.05,185.12s-61.6,64.4-66,114l-2.43,24.79h5.59S188.09,280.26,230,223.76,259.05,185.12,259.05,185.12Z" transform="translate(-8.03 -28.71)" fill="#f7aa35"/><path d="M96.11,175.28S130,198.61,145,220.84s33.17,72.17,28.79,95.5l-2.3,1S174.12,223,96.11,175.28Z" transform="translate(-8.03 -28.71)" fill="#f7aa35"/></svg>