<svg xmlns="http://www.w3.org/2000/svg" viewBox="0 0 500 500"><g id="freepik--Background--inject-336"><path d="M293,400.34c78.9,0,142.87-78.12,142.87-174.49S371.89,51.36,293,51.36a120.27,120.27,0,0,0-54.28,13C217.51,75,193.28,79.07,169.37,76.83c-18.13-1.7-35.65,1.3-51,9.67-52,28.29-59.89,107.08-17.68,176,15.31,25,35.12,45.27,56.63,59.59a236.05,236.05,0,0,1,41.6,35.06C224,384,256.94,400.34,293,400.34Z" style="fill:#455a64"></path></g><g id="freepik--Floor--inject-336"><path d="M380.74,304.72c0,.44,0,.89,0,1.33a157.29,157.29,0,0,1-314.58-.24c0-.36,0-.73,0-1.09s0-.73,0-1.09C66.62,280.75,82,258,112.22,240.5c61.43-35.46,161-35.46,222.46,0,30.12,17.41,45.48,40.1,46.05,62.89C380.74,303.83,380.74,304.28,380.74,304.72Z" style="fill:#E7B9B4"></path><path d="M139.51,393.75c-2.11-3.06-6.44-3.28-10.13-3.8-13.94-1.94-25.31-12-34.57-22.61-3.49-4-6.88-8.2-11.32-11.11A19,19,0,0,0,73.7,353a157.57,157.57,0,0,0,57.42,79.08,19.39,19.39,0,0,1,3.51-9.5c1.66-2.29,3.82-4.21,5.23-6.65,3-5.15,2.11-11.56,1.16-17.43A11.2,11.2,0,0,0,139.51,393.75Z" style="fill:#E7B9B4"></path><path d="M139.51,393.75c-2.11-3.06-6.44-3.28-10.13-3.8-13.94-1.94-25.31-12-34.57-22.61-3.49-4-6.88-8.2-11.32-11.11A19,19,0,0,0,73.7,353a157.57,157.57,0,0,0,57.42,79.08,19.39,19.39,0,0,1,3.51-9.5c1.66-2.29,3.82-4.21,5.23-6.65,3-5.15,2.11-11.56,1.16-17.43A11.2,11.2,0,0,0,139.51,393.75Z" style="fill:#fff;opacity:0.30000000000000004"></path><path d="M154.5,411.82c-1.54,1.88-3.46,3.62-4,6-.71,3.13,1.22,6.18,3.07,8.8a32.47,32.47,0,0,0,5.51,6.56,3.71,3.71,0,0,0,2,1c2.19.16,3.06-2.88,2.62-5s-1.32-4.66.09-6.35a16.06,16.06,0,0,1,1.92-1.55c1.84-1.61,2.11-4.48,1.31-6.79a18.65,18.65,0,0,0-4.13-6C157.73,402.69,157.45,408.22,154.5,411.82Z" style="fill:#E7B9B4"></path><path d="M154.5,411.82c-1.54,1.88-3.46,3.62-4,6-.71,3.13,1.22,6.18,3.07,8.8a32.47,32.47,0,0,0,5.51,6.56,3.71,3.71,0,0,0,2,1c2.19.16,3.06-2.88,2.62-5s-1.32-4.66.09-6.35a16.06,16.06,0,0,1,1.92-1.55c1.84-1.61,2.11-4.48,1.31-6.79a18.65,18.65,0,0,0-4.13-6C157.73,402.69,157.45,408.22,154.5,411.82Z" style="fill:#fff;opacity:0.30000000000000004"></path><path d="M223.44,462a156.6,156.6,0,0,0,89.92-28.22,46.79,46.79,0,0,0-9.64-6.58c-5-2.8-10.64-5.71-16.29-4.57-6.85,1.39-11.27,8.19-17.72,10.86-7.71,3.19-16.59-.14-23.57-4.72-5.07-3.32-9.68-7.55-15.07-10.35-5.19-2.7-8.71-.32-13.56-2a12.27,12.27,0,0,1-2.87-2c-3.19-2.32-7.59-1.58-11.45-.74a2.14,2.14,0,0,0-1.3.63,2,2,0,0,0-.29,1.16c0,2.38.59,4.73.76,7.1.53,7.26-4.74,9.31-10.33,11.92-8.12,3.79-12.82,11.62-16,20.26A157.24,157.24,0,0,0,223.44,462Z" style="fill:#E7B9B4"></path><path d="M223.44,462a156.6,156.6,0,0,0,89.92-28.22,46.79,46.79,0,0,0-9.64-6.58c-5-2.8-10.64-5.71-16.29-4.57-6.85,1.39-11.27,8.19-17.72,10.86-7.71,3.19-16.59-.14-23.57-4.72-5.07-3.32-9.68-7.55-15.07-10.35-5.19-2.7-8.71-.32-13.56-2a12.27,12.27,0,0,1-2.87-2c-3.19-2.32-7.59-1.58-11.45-.74a2.14,2.14,0,0,0-1.3.63,2,2,0,0,0-.29,1.16c0,2.38.59,4.73.76,7.1.53,7.26-4.74,9.31-10.33,11.92-8.12,3.79-12.82,11.62-16,20.26A157.24,157.24,0,0,0,223.44,462Z" style="fill:#fff;opacity:0.30000000000000004"></path><path d="M309.4,413.66a10.66,10.66,0,0,0,3.84,2.82c3.54,1.16,7-1.82,9.52-4.54a201.18,201.18,0,0,0,16.41-19.21c1.41-2,2.79-4.11,2.87-6.52s-1.73-5-4.14-4.95a5.14,5.14,0,0,0-3.95,2.86c-.85,1.48-1.32,3.14-2.17,4.62a10.31,10.31,0,0,1-10.18,4.91,22.87,22.87,0,0,1-4.93-1.59,29.16,29.16,0,0,0-10.18-2.46,12.48,12.48,0,0,0-9.51,3.72C288.74,402.55,304.22,408.64,309.4,413.66Z" style="fill:#E7B9B4"></path><path d="M353.23,374.15a4.86,4.86,0,0,0,2.69-3.67,5.13,5.13,0,0,0-.36-2.15c-.71-1.91-6.09-6.24-7-2.06-.11.53,0,1.1-.13,1.62-.5,1.95-2.25,2.82-1.14,5S351.24,375.2,353.23,374.15Z" style="fill:#E7B9B4"></path><path d="M309.4,413.66a10.66,10.66,0,0,0,3.84,2.82c3.54,1.16,7-1.82,9.52-4.54a201.18,201.18,0,0,0,16.41-19.21c1.41-2,2.79-4.11,2.87-6.52s-1.73-5-4.14-4.95a5.14,5.14,0,0,0-3.95,2.86c-.85,1.48-1.32,3.14-2.17,4.62a10.31,10.31,0,0,1-10.18,4.91,22.87,22.87,0,0,1-4.93-1.59,29.16,29.16,0,0,0-10.18-2.46,12.48,12.48,0,0,0-9.51,3.72C288.74,402.55,304.22,408.64,309.4,413.66Z" style="fill:#fff;opacity:0.30000000000000004"></path><path d="M353.23,374.15a4.86,4.86,0,0,0,2.69-3.67,5.13,5.13,0,0,0-.36-2.15c-.71-1.91-6.09-6.24-7-2.06-.11.53,0,1.1-.13,1.62-.5,1.95-2.25,2.82-1.14,5S351.24,375.2,353.23,374.15Z" style="fill:#fff;opacity:0.30000000000000004"></path><path d="M380.74,304.72c0,.44,0,.89,0,1.33-.57,22.8-15.93,45.49-46.05,62.89-61.43,35.47-161,35.47-222.46,0C82,351.48,66.62,328.7,66.15,305.81c0-.36,0-.73,0-1.09s0-.73,0-1.09C66.62,280.75,82,258,112.22,240.5c61.43-35.46,161-35.46,222.46,0,30.12,17.41,45.48,40.1,46.05,62.89C380.74,303.83,380.74,304.28,380.74,304.72Z" style="fill:#E7B9B4"></path><path d="M380.74,304.72c0,.44,0,.89,0,1.33-.57,22.8-15.93,45.49-46.05,62.89-61.43,35.47-161,35.47-222.46,0C82,351.48,66.62,328.7,66.15,305.81c0-.36,0-.73,0-1.09s0-.73,0-1.09C66.62,280.75,82,258,112.22,240.5c61.43-35.46,161-35.46,222.46,0,30.12,17.41,45.48,40.1,46.05,62.89C380.74,303.83,380.74,304.28,380.74,304.72Z" style="fill:#fff;opacity:0.30000000000000004"></path></g><g id="freepik--Shadows--inject-336"><ellipse cx="242.9" cy="304.85" rx="64.04" ry="31.16" transform="translate(-82.12 89.68) rotate(-17.95)" style="opacity:0.2"></ellipse><path d="M309.44,245.26c6.71,3.87,6.71,10.16,0,14s-17.59,3.87-24.3,0-6.71-10.16,0-14S302.73,241.39,309.44,245.26Z" style="opacity:0.2"></path><path d="M343,312.85c6.71,3.88,6.71,10.16,0,14s-17.59,3.87-24.3,0-6.71-10.15,0-14S336.29,309,343,312.85Z" style="opacity:0.2"></path></g><g id="freepik--wind-turbines--inject-336"><path d="M306.34,249.12V225.93h-18.1v23.4c0,1.34.88,2.67,2.65,3.7a14.17,14.17,0,0,0,12.81,0C305.56,252,306.43,250.53,306.34,249.12Z" style="fill:#e6e6e6"></path><path d="M303.7,222.23c3.54,2.05,3.54,5.36,0,7.4a14.17,14.17,0,0,1-12.81,0c-3.54-2-3.54-5.35,0-7.4A14.17,14.17,0,0,1,303.7,222.23Z" style="fill:#f5f5f5"></path><path d="M299.08,226.46h0a4.79,4.79,0,0,1-3.57,0h0a2.1,2.1,0,0,1-1.32-2V114.94h6.21V224.51A2.1,2.1,0,0,1,299.08,226.46Z" style="fill:#e0e0e0"></path><polygon points="305.82 114.97 293.76 121.94 287.59 111.39 299.81 104.34 305.82 114.97" style="fill:#e0e0e0"></polygon><path d="M299.32,81.26c0,21.56-7.35,34.8-7.35,34.8s-7.34-21.73-7.34-43.29S292,38,292,38,299.32,59.7,299.32,81.26Z" style="fill:#ebebeb"></path><path d="M321,154.73c-17.47-17.71-29-38.5-29-38.5s16.76,7.92,34.23,25.63,29,38.51,29,38.51S338.46,172.44,321,154.73Z" style="fill:#ebebeb"></path><path d="M263,121.22c17.47,2.46,29-5,29-5s-16.75-11.43-34.22-13.88-29,5-29,5S245.49,118.77,263,121.22Z" style="fill:#ebebeb"></path><path d="M296.3,118.41c0,2.76-1.94,3.88-4.33,2.5a9.55,9.55,0,0,1-4.32-7.49c0-2.76,1.93-3.88,4.32-2.5A9.56,9.56,0,0,1,296.3,118.41Z" style="fill:#e0e0e0"></path><path d="M294.87,119.24c0,2.76-1.93,3.88-4.32,2.5a9.58,9.58,0,0,1-4.33-7.5c0-2.76,1.94-3.88,4.33-2.5A9.57,9.57,0,0,1,294.87,119.24Z" style="fill:#ebebeb"></path><path d="M307.25,112.1c0,2.76-1.94,3.88-4.33,2.5a9.58,9.58,0,0,1-4.33-7.5c0-2.76,1.94-3.87,4.33-2.49A9.56,9.56,0,0,1,307.25,112.1Z" style="fill:#e0e0e0"></path><path d="M291.31,119.66c0,1.86-1.3,2.61-2.91,1.68a6.43,6.43,0,0,1-2.92-5c0-1.86,1.31-2.61,2.92-1.69A6.44,6.44,0,0,1,291.31,119.66Z" style="fill:#e0e0e0"></path><path d="M339.7,318.26V295.07H321.6v23.4c0,1.34.88,2.67,2.65,3.7a14.17,14.17,0,0,0,12.81,0C338.92,321.09,339.79,319.67,339.7,318.26Z" style="fill:#e6e6e6"></path><ellipse cx="330.66" cy="295.07" rx="9.06" ry="5.23" style="fill:#f5f5f5"></ellipse><path d="M332.44,295.6h0a4.79,4.79,0,0,1-3.57,0h0a2.1,2.1,0,0,1-1.32-2V184.08h6.21V293.65A2.1,2.1,0,0,1,332.44,295.6Z" style="fill:#e0e0e0"></path><polygon points="339.18 184.11 327.12 191.08 320.95 180.53 333.17 173.48 339.18 184.11" style="fill:#e0e0e0"></polygon><path d="M332.69,150.4c0,21.56-7.35,34.8-7.35,34.8S318,163.47,318,141.91s7.35-34.79,7.35-34.79S332.69,128.84,332.69,150.4Z" style="fill:#ebebeb"></path><path d="M354.36,223.87c-17.47-17.71-29-38.5-29-38.5s16.75,7.92,34.22,25.63,29,38.51,29,38.51S371.82,241.59,354.36,223.87Z" style="fill:#ebebeb"></path><path d="M296.31,190.36c17.47,2.46,29-5,29-5s-16.76-11.43-34.23-13.88-29,5-29,5S278.85,187.91,296.31,190.36Z" style="fill:#ebebeb"></path><path d="M329.66,187.55c0,2.76-1.93,3.88-4.32,2.5a9.56,9.56,0,0,1-4.33-7.49c0-2.76,1.94-3.88,4.33-2.5A9.55,9.55,0,0,1,329.66,187.55Z" style="fill:#e0e0e0"></path><path d="M328.24,188.38c0,2.76-1.94,3.88-4.33,2.5a9.58,9.58,0,0,1-4.33-7.5c0-2.76,1.94-3.88,4.33-2.5A9.58,9.58,0,0,1,328.24,188.38Z" style="fill:#ebebeb"></path><path d="M340.61,181.24c0,2.76-1.94,3.88-4.33,2.5a9.57,9.57,0,0,1-4.32-7.5c0-2.76,1.93-3.87,4.32-2.49A9.56,9.56,0,0,1,340.61,181.24Z" style="fill:#e0e0e0"></path><path d="M324.67,188.8c0,1.86-1.3,2.61-2.91,1.68a6.41,6.41,0,0,1-2.91-5c0-1.86,1.3-2.61,2.91-1.69A6.44,6.44,0,0,1,324.67,188.8Z" style="fill:#e0e0e0"></path></g><g id="freepik--Box--inject-336"><polygon points="202.03 212.24 152.36 240.92 119.14 221.74 168.81 193.06 202.03 212.24" style="fill:#E7B9B4"></polygon><polygon points="202.03 212.24 152.36 240.92 119.14 221.74 168.81 193.06 202.03 212.24" style="opacity:0.4"></polygon><polygon points="168.81 193.06 168.81 231.42 202.03 212.24 168.81 193.06" style="fill:#E7B9B4"></polygon><path d="M159.29,231.35c0,4.52-13.86,5.57-20.31,3.15-2-.73-3.23-1.77-3.23-3.15a11.47,11.47,0,0,1,3.43-7.8c1.75-1.6,4.38-2.81,8.34-2.81C158.56,220.74,159.29,230,159.29,231.35Z" style="fill:#f5f5f5"></path><path d="M153.75,222.25a13.82,13.82,0,0,0-12.51,0c-3.45,2-3.43,5.22,0,7.22a13.82,13.82,0,0,0,12.51,0C157.24,227.48,157.22,224.25,153.75,222.25Z" style="fill:#fafafa"></path><path d="M153.41,221.44a13.06,13.06,0,0,0-11.82,0c-3.26,1.88-3.24,4.94,0,6.83a13.06,13.06,0,0,0,11.82,0C156.7,226.39,156.68,223.33,153.41,221.44Z" style="fill:#e0e0e0"></path><path d="M135.75,231.35v20.36c0,1.71,1.14,3.41,3.36,4.72a.41.41,0,0,0,.11.07c4.61,2.67,12.06,2.68,16.64,0,2.3-1.32,3.44-3.07,3.43-4.82V231.35Z" style="fill:#f5f5f5"></path><path d="M156.36,223.15v-1.23h-.28a5.33,5.33,0,0,0-2.33-2.38,13.82,13.82,0,0,0-12.51,0,5.13,5.13,0,0,0-2.33,2.44h-.24v1.34h0a4.54,4.54,0,0,0,2.6,3.45,13.82,13.82,0,0,0,12.51,0c1.73-1,2.59-2.31,2.57-3.62Z" style="fill:#263238"></path><path d="M153.75,218.36a13.79,13.79,0,0,0-12.51,0c-3.45,2-3.43,5.23,0,7.23a13.82,13.82,0,0,0,12.51,0C157.24,223.59,157.22,220.36,153.75,218.36Z" style="fill:#455a64"></path><path d="M184.88,216.32c0,4.51-13.86,5.57-20.3,3.15-2-.73-3.23-1.77-3.23-3.15a11.42,11.42,0,0,1,3.43-7.8c1.74-1.6,4.38-2.81,8.34-2.81C184.16,205.71,184.88,215,184.88,216.32Z" style="fill:#f5f5f5"></path><path d="M179.35,207.22a13.79,13.79,0,0,0-12.51,0c-3.45,2-3.43,5.23,0,7.23a13.84,13.84,0,0,0,12.52,0C182.83,212.45,182.82,209.22,179.35,207.22Z" style="fill:#fafafa"></path><path d="M179,206.41a13.06,13.06,0,0,0-11.82,0c-3.25,1.88-3.23,4.93,0,6.82a13.06,13.06,0,0,0,11.82,0C182.29,211.36,182.28,208.3,179,206.41Z" style="fill:#e0e0e0"></path><path d="M161.35,216.32v20.36c0,1.7,1.13,3.41,3.36,4.72a.41.41,0,0,0,.11.07c4.6,2.67,12.06,2.68,16.64,0,2.3-1.32,3.43-3.07,3.42-4.82V216.32Z" style="fill:#f5f5f5"></path><path d="M182,208.11v-1.23h-.28a5.37,5.37,0,0,0-2.33-2.37,13.82,13.82,0,0,0-12.51,0,5.15,5.15,0,0,0-2.34,2.43h-.23v1.35h0a4.55,4.55,0,0,0,2.59,3.45,13.84,13.84,0,0,0,12.52,0c1.73-1,2.58-2.31,2.57-3.63Z" style="fill:#263238"></path><path d="M179.35,203.32a13.82,13.82,0,0,0-12.51,0c-3.45,2-3.43,5.22,0,7.23a13.84,13.84,0,0,0,12.52,0C182.83,208.56,182.82,205.32,179.35,203.32Z" style="fill:#455a64"></path><polygon points="152.36 240.92 152.36 275.48 119.14 256.3 119.14 221.74 152.36 240.92" style="fill:#E7B9B4"></polygon><polygon points="202.03 246.8 152.36 275.48 152.36 240.92 202.03 212.24 202.03 246.8" style="fill:#E7B9B4"></polygon><polygon points="202.03 246.8 152.36 275.48 152.36 240.92 202.03 212.24 202.03 246.8" style="opacity:0.5"></polygon><polygon points="152.36 240.92 164.77 253.33 213.23 224.84 202.03 212.24 152.36 240.92" style="fill:#E7B9B4"></polygon><polygon points="152.36 240.92 164.77 253.33 213.23 224.84 202.03 212.24 152.36 240.92" style="opacity:0.4"></polygon><path d="M129.67,251.87a.54.54,0,0,0,0,.47s0,.08,0,.08l4.17,1.78.23-3.58-2.61-1.11Z" style="fill:#fafafa"></path><path d="M138.55,252.13l2.87,1.22a.54.54,0,0,0,.55,0l-1.44-3.81-2.64.87Z" style="fill:#fafafa"></path><path d="M135.4,246.81l3.57,2.52,1.08-4-1,.33-1.31-3.48a2.47,2.47,0,0,0-1.21-1.37l-2.72-1.16,2.61,6.87Z" style="fill:#fafafa"></path><path d="M135.17,244,134,240.75a.91.91,0,0,0-.45-.52h0s-.08,0-.09,0l-2.36,3.1,2.39,3Z" style="fill:#fafafa"></path><path d="M132.54,249.81l-.52-4.72-3.69-.57.91,1.14-1.14,1.49a2,2,0,0,0-.16,1.82l1,3.16,2.65-3.47Z" style="fill:#fafafa"></path><path d="M137.18,251.94l.09-1.37-2.83,2.05,2.43,4.28.09-1.37,2.61,1.11a1,1,0,0,0,1.28-.35l1.42-2.19Z" style="fill:#fafafa"></path><polygon points="119.14 221.74 107.81 220.02 156.64 192.29 168.81 193.06 119.14 221.74" style="fill:#E7B9B4"></polygon><polygon points="119.14 221.74 107.81 220.02 156.64 192.29 168.81 193.06 119.14 221.74" style="opacity:0.2"></polygon></g><g id="freepik--Character--inject-336"><path d="M193,287.59s-15.6,15.13-11.95,24,16.5,13.23,32.95,6,35.12-22.92,35.12-22.92Z" style="fill:#ffa8a7"></path><path d="M213.05,294.93s-15.61,15.13-12,24,16.49,13.23,32.94,6,35.13-22.92,35.13-22.92l22.42-10.34s-1.51-5.31-15.5-2.76-11.66-1.9-11.66-1.9Z" style="fill:#ffa8a7"></path><path d="M263.24,288.05s3.82,6.78,13.18,4.3,13.66-2.37,15.17-.64l8.44-4.07a2.18,2.18,0,0,0,1.1-2.75c-1.11-2.81-4.18-7.58-12-6.45-6.13.89-6.13,4.12-14.31,2.29S262.34,283.31,263.24,288.05Z" style="fill:#455a64"></path><path d="M289.11,278.44c-6.13.89-6.13,4.12-14.31,2.29-3.45-.77-6.2-.42-8.16.58,1.92,2.31,6.25,6.68,11,5.74,6.35-1.26,21.66-5.85,23.53-2.16C300,282.08,297,277.31,289.11,278.44Z" style="fill:#263238"></path><path d="M232.41,316.89l-3.89,2.95s6,.06,13.89-5.75,17-16.92,17-16.92Z" style="fill:#f28f8f"></path><path d="M219.8,263.22s-22.07,17.23-30.13,28c0,0,24.34,0,42.74,25.7l23.35-16.76a34.6,34.6,0,0,0,13.32-37.67,24.26,24.26,0,0,0-1.56-4.08Z" style="fill:#E7B9B4"></path><path d="M219.8,263.22s-22.07,17.23-30.13,28c0,0,24.34,0,42.74,25.7l23.35-16.76a34.6,34.6,0,0,0,13.32-37.67,24.26,24.26,0,0,0-1.56-4.08Z" style="opacity:0.6000000000000001"></path><path d="M207.51,159h0a38.42,38.42,0,0,1,5.1-2.43,34,34,0,0,1,3.44-1.16c8.49-2.42,15.68-.86,20.73,4a21.11,21.11,0,0,1,3,3.65,28.58,28.58,0,0,1,3.69,8.81h0A44.74,44.74,0,0,0,251.3,188c7.34,9.6,19.17,27.29,16.45,38.38-4.66,18.95-39.85,11-50.93,12.87S204.71,191,204.71,191s-6.52-.72-8.76-6.05c-1.74-4.15-.09-6.5-.09-6.5a8.45,8.45,0,0,1-6.59-5.88C187.31,167.11,195.32,165.78,207.51,159Z" style="fill:#263238"></path><path d="M216,204.17s-8.84-1.41-16.55,18.75c-4.11,10.74-6.33,17-7.51,20.41a23.1,23.1,0,0,1-3.53,6.58c-3.42,4.43-9.93,14.58-13.94,31.67l9.2,6s18.77-27.84,20.69-31.5S212,234.25,212,234.25Z" style="fill:#ffa8a7"></path><path d="M210,206.41c.77,1.66,2.4,4.21,5.15,4.11l.83-6.35S213.5,203.77,210,206.41Z" style="fill:#f28f8f"></path><path d="M245.54,207.12l-8.78-1.62L216,204.17s-20.6,32.47-1.12,37.14a24.83,24.83,0,0,1,4.93,21.91S225.41,269,241,269s26.5-10.62,26.5-10.62-5.09-12-10.47-17.36-5-25.55-5-25.55Z" style="fill:#E7B9B4"></path><path d="M245.54,207.12l-8.78-1.62L216,204.17s-20.6,32.47-1.12,37.14a24.83,24.83,0,0,1,4.93,21.91S225.41,269,241,269s26.5-10.62,26.5-10.62-5.09-12-10.47-17.36-5-25.55-5-25.55Z" style="opacity:0.30000000000000004"></path><path d="M229,155.7s-.71-6,.29-6.27,2.76,4.51,2.76,4.51,4.35-2.18,4.39-.69-4.69,4.87-4.69,4.87Z" style="fill:#263238"></path><path d="M236.76,205.5l-3.65,6.09a8.6,8.6,0,0,1-9.64,3.88h0a4.38,4.38,0,0,1-2.81-6.07l1.06-2.28-5.14-20.32,14.52-3.67Z" style="fill:#ffa8a7"></path><path d="M231.77,185.76l.13.53a30.7,30.7,0,0,1-10.18,20.83l-5.26-20.82,14.11-3.57Z" style="fill:#f28f8f"></path><path d="M210.68,162.55c-5,2-14.46,8.89-10.55,22.39s9.05,23.12,16.15,21.44S237.05,193.7,232.51,176,215.53,160.64,210.68,162.55Z" style="fill:#ffa8a7"></path><polygon points="211.49 187.94 214.51 195.62 209.47 196.01 211.49 187.94" style="fill:#f28f8f"></polygon><path d="M218.05,185.18a1.68,1.68,0,1,1-2.11-1.09A1.68,1.68,0,0,1,218.05,185.18Z" style="fill:#263238"></path><path d="M207.16,187.41a1.68,1.68,0,1,1-2.11-1.09A1.68,1.68,0,0,1,207.16,187.41Z" style="fill:#263238"></path><path d="M202.55,185.2l2.54-2.85s-1.6-.87-2.56.26A2.29,2.29,0,0,0,202.55,185.2Z" style="fill:#263238"></path><path d="M215.23,198.12a7.15,7.15,0,0,0,3.34-3.29s1.45,1.92-.07,3.31S215.23,198.12,215.23,198.12Z" style="fill:#f28f8f"></path><path d="M199.81,171.94s8.95,17.23,33.6,8.17c0,0,.35-20.76-16.53-20.81S199.81,171.94,199.81,171.94Z" style="fill:#263238"></path><path d="M230.11,183s-.36-5.67,3.49-6.44c4.23-.84,5.5,3.15,5.69,4.62.5,3.84-1.89,8.5-7.62,9.64Z" style="fill:#ffa8a7"></path><path d="M125.2,327.13s58-46.54,66-43.85c6.37,2.17,36.66,38.05,48.21,51.93a9.93,9.93,0,0,1,.55,12c-5.38,7.74-16.33,19.54-33,19.54a70.3,70.3,0,0,1-30.63-6.56A22.67,22.67,0,0,0,160,359.06c-3,.88-6,1.42-7.47.7-2-1-3.36-5.07-4.18-8.64a8.1,8.1,0,0,0-6.5-6.17C134.92,343.75,124.06,339.86,125.2,327.13Z" style="fill:#455a64"></path><circle cx="162.61" cy="309.11" r="1.35" style="fill:#37474f"></circle><path d="M161.53,331.65a1.35,1.35,0,1,1-1.35-1.35A1.34,1.34,0,0,1,161.53,331.65Z" style="fill:#37474f"></path><path d="M173,324.12a1.36,1.36,0,1,1-1.35-1.35A1.35,1.35,0,0,1,173,324.12Z" style="fill:#37474f"></path><path d="M183.81,339.37a1.36,1.36,0,1,1-1.35-1.35A1.35,1.35,0,0,1,183.81,339.37Z" style="fill:#37474f"></path><path d="M198.84,346.36a1.36,1.36,0,1,1-1.36-1.35A1.35,1.35,0,0,1,198.84,346.36Z" style="fill:#37474f"></path><path d="M207,326.93a1.35,1.35,0,1,1-1.35-1.35A1.34,1.34,0,0,1,207,326.93Z" style="fill:#37474f"></path><path d="M145,329.29a1.36,1.36,0,1,1-1.35-1.35A1.35,1.35,0,0,1,145,329.29Z" style="fill:#37474f"></path><path d="M221.93,333a1.36,1.36,0,1,1-1.35-1.35A1.35,1.35,0,0,1,221.93,333Z" style="fill:#37474f"></path><path d="M193.77,312a1.36,1.36,0,1,1-1.35-1.35A1.35,1.35,0,0,1,193.77,312Z" style="fill:#37474f"></path><path d="M180.67,285.16s-2.18-4.61-6.21-3.58-10.1,5.16-10.78,6.89.13,10.65,4,11.4,11.31,1.87,9.81-3.78c-.49-1.84-.76-3.16-.92-4.11a3.29,3.29,0,0,1,1.57-3.34l2.08-1.25Z" style="fill:#ffa8a7"></path><path d="M179.6,284.38s-5.09,8.12.32,8.23c1.53,0,7.35-6.64,3.81-9.56C182.46,282,180.8,282.78,179.6,284.38Z" style="fill:#ffa8a7"></path><path d="M179.57,283.92a.37.37,0,0,1-.3-.14,4.61,4.61,0,0,0-4.71-1.81.39.39,0,0,1-.49-.29.4.4,0,0,1,.29-.49,5.37,5.37,0,0,1,5.52,2.07.41.41,0,0,1,0,.57A.39.39,0,0,1,179.57,283.92Z" style="fill:#f28f8f"></path><path d="M177.43,289.45l-.12,0a.41.41,0,0,1-.27-.5,26.87,26.87,0,0,1,2.22-4.75,4.45,4.45,0,0,1,2.88-2,2.38,2.38,0,0,1,1.84.55,3.36,3.36,0,0,1,1.16,1.79.42.42,0,0,1-.29.49.41.41,0,0,1-.49-.29,2.59,2.59,0,0,0-.89-1.37,1.56,1.56,0,0,0-1.24-.37,3.77,3.77,0,0,0-2.31,1.63h0a28.29,28.29,0,0,0-2.11,4.54A.41.41,0,0,1,177.43,289.45Z" style="fill:#f28f8f"></path><path d="M245.54,207.12s-6,2.7-5.71,14,.65,34.22.65,34.22a183.69,183.69,0,0,0-29.78,27.41l7.47,10.15S252.1,273,255.54,263.38s1.83-32.58,1.83-36.34S257.75,209.34,245.54,207.12Z" style="fill:#ffa8a7"></path><path d="M213,281.09a19.74,19.74,0,0,1-3.86.44c-1.82,0-3.29-.41-7.77,2.45-2.88,1.85-5.22.5-5.82,2.41s5.79,3.71,9,1.8c0,0-2.77,3.67-6,4.79s-8,3.13-8.81,5,6.63,9.31,14.28,7,16.14-13.91,16.14-13.91Z" style="fill:#ffa8a7"></path><path d="M195.8,240.94c0,5-4.74,9.11-4.74,9.11s-4.73-4.08-4.73-9.11,4.73-9.12,4.73-9.12S195.8,235.9,195.8,240.94Z" style="fill:#E7B9B4"></path><path d="M202.17,259.32c-3.56,3.56-9.8,3.1-9.8,3.1s-.46-6.24,3.1-9.8,9.8-3.1,9.8-3.1S205.73,255.76,202.17,259.32Z" style="fill:#E7B9B4"></path><path d="M180.21,266.57c-3.56-3.56-3.1-9.79-3.1-9.79s6.24-.47,9.8,3.09,3.1,9.8,3.1,9.8S183.77,270.13,180.21,266.57Z" style="fill:#E7B9B4"></path><path d="M191.06,289A1.07,1.07,0,0,1,190,288V245.34a1.07,1.07,0,1,1,2.14,0V288A1.07,1.07,0,0,1,191.06,289Z" style="fill:#E7B9B4"></path></g><g id="freepik--Clouds--inject-336"><path d="M137.28,97.06l6.8,3.87v-2.4c0-.18,0-.35,0-.52s0-.32,0-.48v-.06h0c.24-3.19,2.65-4.41,5.6-2.71A11,11,0,0,1,153,98c.66-4.33,4.2-5.9,8.47-3.43,4.74,2.74,8.59,9.4,8.59,14.88v5.16a2.32,2.32,0,0,0,1.16,2l4,2.35a5.78,5.78,0,0,1,2.85,5,2.38,2.38,0,0,1-3.56,2.06l-37.16-21.47a6.49,6.49,0,0,1-3.25-5.62A2.11,2.11,0,0,1,137.28,97.06Z" style="fill:#fafafa"></path><path d="M364.65,128.47l5.81,3.3v-2.05c0-.15,0-.29,0-.44s0-.28,0-.41v-.05h0c.21-2.72,2.27-3.77,4.79-2.31a9.16,9.16,0,0,1,2.86,2.74c.57-3.7,3.58-5,7.23-2.93A16.23,16.23,0,0,1,392.68,139v4.4a2,2,0,0,0,1,1.73l3.41,2a4.92,4.92,0,0,1,2.44,4.25,2,2,0,0,1-3,1.75l-31.73-18.33A5.55,5.55,0,0,1,362,130,1.79,1.79,0,0,1,364.65,128.47Z" style="fill:#fafafa"></path><path d="M121.62,141.63l4.15,2.36v-1.47c0-.11,0-.21,0-.31a2.91,2.91,0,0,1,0-.3v0h0c.15-1.95,1.62-2.69,3.42-1.66a6.69,6.69,0,0,1,2,2c.41-2.65,2.56-3.6,5.17-2.1a11.6,11.6,0,0,1,5.24,9.08v3.14a1.42,1.42,0,0,0,.7,1.23l2.44,1.43a3.53,3.53,0,0,1,1.74,3,1.45,1.45,0,0,1-2.17,1.25l-22.66-13.09a4,4,0,0,1-2-3.43A1.28,1.28,0,0,1,121.62,141.63Z" style="fill:#fafafa"></path></g><g id="freepik--Plants--inject-336"><path d="M278.8,345.16l6.77,3.93s-3.42-10.9-1.52-21.86a21,21,0,0,1,2.75-7.3c.53-1.1,4.61-7.94,1-11.09s-12,3.12-11.64,20A66,66,0,0,0,278.8,345.16Z" style="fill:#E7B9B4"></path><path d="M278.8,345.16l6.77,3.93s-3.42-10.9-1.52-21.86a21,21,0,0,1,2.75-7.3c.53-1.1,4.61-7.94,1-11.09s-12,3.12-11.64,20A66,66,0,0,0,278.8,345.16Z" style="opacity:0.30000000000000004"></path><path d="M282,347.3a.32.32,0,0,1-.3-.21c0-.07-2.58-7.17-2.45-18.57s6.16-17.57,6.22-17.63a.31.31,0,0,1,.45.44c-.06.06-5.91,6-6,17.2s2.39,18.28,2.41,18.35a.31.31,0,0,1-.18.4Z" style="fill:#fff"></path><path d="M284.05,348.23l11.17,6.57s5.12-.75,4.73-5.57-2.46-6,.13-8.07,3.25-2.26,3.13-4.33-1.52-3-2.18-3.8-2.48-2.55-1.2-5,3-4.92.45-6.06c-1.55-.69-4.15.17-5.88,2s-3.14,3.15-4.78,3.57-5,.46-4.92,3.27.84,3.79.16,5C283.58,338.15,278.08,339.42,284.05,348.23Z" style="fill:#E7B9B4"></path><path d="M288.6,351.22a.33.33,0,0,1-.32-.29c0-.17-1.23-16.83,10.35-27.78a.32.32,0,1,1,.44.46c-11.36,10.73-10.17,27.1-10.16,27.27a.31.31,0,0,1-.29.34Z" style="fill:#fff"></path><path d="M290.6,336.94a.32.32,0,0,1-.31-.29A9.51,9.51,0,0,0,286.9,330a.31.31,0,0,1-.08-.44.32.32,0,0,1,.44-.07,9.93,9.93,0,0,1,3.66,7.1.32.32,0,0,1-.29.34Z" style="fill:#fff"></path><path d="M289.78,339.78a.28.28,0,0,1-.21-.08.31.31,0,0,1,0-.44c.12-.14,3-3.29,9.78-2.37a.32.32,0,0,1-.08.63c-6.38-.87-9.2,2.13-9.23,2.16A.3.3,0,0,1,289.78,339.78Z" style="fill:#fff"></path><path d="M117.37,301.32l-6.77,3.93s3.41-10.9,1.52-21.86a21.12,21.12,0,0,0-2.75-7.29c-.53-1.11-4.61-7.94-1-11.1s12,3.12,11.64,20A65.92,65.92,0,0,1,117.37,301.32Z" style="fill:#E7B9B4"></path><path d="M117.37,301.32l-6.77,3.93s3.41-10.9,1.52-21.86a21.12,21.12,0,0,0-2.75-7.29c-.53-1.11-4.61-7.94-1-11.1s12,3.12,11.64,20A65.92,65.92,0,0,1,117.37,301.32Z" style="opacity:0.30000000000000004"></path><path d="M114.22,303.46a.22.22,0,0,1-.11,0,.32.32,0,0,1-.19-.4c0-.07,2.55-7.08,2.42-18.34s-6-17.14-6-17.2a.32.32,0,1,1,.45-.45c.06.06,6.08,6.17,6.22,17.64s-2.43,18.49-2.45,18.56A.32.32,0,0,1,114.22,303.46Z" style="fill:#fff"></path><path d="M112.12,304.39,100.94,311s-5.11-.75-4.73-5.57,2.47-5.95-.12-8.07S92.84,295.07,93,293s1.52-3,2.17-3.8,2.49-2.54,1.2-5.05-3-4.91-.44-6.06c1.55-.69,4.15.17,5.87,2s3.15,3.15,4.78,3.57,5,.46,4.93,3.28-.85,3.78-.16,5C112.59,294.32,118.09,295.58,112.12,304.39Z" style="fill:#E7B9B4"></path><path d="M107.57,307.38h0a.32.32,0,0,1-.29-.34c0-.16,1.21-16.54-10.15-27.27a.31.31,0,0,1,.43-.46c11.58,10.95,10.37,27.61,10.35,27.78A.31.31,0,0,1,107.57,307.38Z" style="fill:#fff"></path><path d="M105.56,293.1h0a.32.32,0,0,1-.29-.34,10,10,0,0,1,3.65-7.1.32.32,0,0,1,.44.07.31.31,0,0,1-.07.44,9.5,9.5,0,0,0-3.39,6.64A.31.31,0,0,1,105.56,293.1Z" style="fill:#fff"></path><path d="M106.39,296a.3.3,0,0,1-.23-.11s-2.84-3-9.23-2.16a.31.31,0,1,1-.09-.62c6.75-.93,9.66,2.23,9.78,2.36a.32.32,0,0,1-.23.53Z" style="fill:#fff"></path></g></svg>