<svg id="Layer_1" data-name="Layer 1" xmlns="http://www.w3.org/2000/svg" xmlns:xlink="http://www.w3.org/1999/xlink" viewBox="0 0 684.75 583.7"><defs><linearGradient id="linear-gradient" x1="333.96" y1="268.24" x2="349.51" y2="268.24" gradientUnits="userSpaceOnUse"><stop offset="0" stop-color="#e5c6d6"/><stop offset="0.42" stop-color="#ead4d0"/><stop offset="1" stop-color="#f0e9cb"/></linearGradient><linearGradient id="linear-gradient-2" x1="432.34" y1="254.02" x2="397.94" y2="219.62" gradientUnits="userSpaceOnUse"><stop offset="0" stop-color="#fff" stop-opacity="0"/><stop offset="0.95" stop-color="#fff"/></linearGradient><linearGradient id="linear-gradient-3" x1="-495.38" y1="95.29" x2="-489.78" y2="95.29" gradientTransform="matrix(-1, 0, 0, 1, -18.3, 0)" xlink:href="#linear-gradient"/><linearGradient id="linear-gradient-4" x1="-39.08" y1="92.4" x2="-33.48" y2="92.4" gradientTransform="translate(470.54)" xlink:href="#linear-gradient"/><linearGradient id="linear-gradient-5" x1="-564.64" y1="244.21" x2="-429.4" y2="230.88" gradientTransform="matrix(-1, 0, 0, 1, -18.3, 0)" xlink:href="#linear-gradient-2"/><linearGradient id="linear-gradient-6" x1="441.32" y1="382.1" x2="479.88" y2="85.02" gradientUnits="userSpaceOnUse"><stop offset="0.26" stop-color="#010101" stop-opacity="0"/><stop offset="0.99" stop-color="#010101"/></linearGradient><linearGradient id="linear-gradient-7" x1="-481.1" y1="50.03" x2="-475.64" y2="64.52" gradientTransform="matrix(-1, 0, 0, 1, -18.3, 0)" gradientUnits="userSpaceOnUse"><stop offset="0" stop-color="#010101" stop-opacity="0"/><stop offset="0.95" stop-color="#010101"/></linearGradient><linearGradient id="linear-gradient-8" x1="-486.63" y1="119.73" x2="-462.49" y2="119.73" gradientTransform="matrix(-1, 0, 0, 1, -18.3, 0)" xlink:href="#linear-gradient"/><linearGradient id="linear-gradient-9" x1="-476.96" y1="128.3" x2="-465.81" y2="73.24" gradientTransform="matrix(-1, 0, 0, 1, -18.3, 0)" gradientUnits="userSpaceOnUse"><stop offset="0.12" stop-color="#010101" stop-opacity="0"/><stop offset="0.95" stop-color="#010101"/></linearGradient><linearGradient id="linear-gradient-10" x1="-491.71" y1="89.66" x2="-453.49" y2="89.66" gradientTransform="matrix(-1, 0, 0, 1, -18.3, 0)" xlink:href="#linear-gradient"/><linearGradient id="linear-gradient-11" x1="-481.92" y1="520.78" x2="-455.94" y2="258.65" gradientTransform="matrix(-1, 0, 0, 1, -17.36, -1.58)" xlink:href="#linear-gradient-9"/><linearGradient id="linear-gradient-12" x1="-493.75" y1="172.3" x2="-474.13" y2="165.76" gradientTransform="matrix(-1, 0, 0, 1, -18.3, 0)" xlink:href="#linear-gradient-2"/><linearGradient id="linear-gradient-13" x1="-441.62" y1="164.33" x2="-463.32" y2="165.81" gradientTransform="matrix(-1, 0, 0, 1, -18.3, 0)" gradientUnits="userSpaceOnUse"><stop offset="0" stop-color="#fff" stop-opacity="0"/><stop offset="0.11" stop-color="#fff" stop-opacity="0.18"/><stop offset="0.29" stop-color="#fff" stop-opacity="0.42"/><stop offset="0.45" stop-color="#fff" stop-opacity="0.63"/><stop offset="0.6" stop-color="#fff" stop-opacity="0.79"/><stop offset="0.74" stop-color="#fff" stop-opacity="0.9"/><stop offset="0.86" stop-color="#fff" stop-opacity="0.98"/><stop offset="0.95" stop-color="#fff"/></linearGradient><linearGradient id="linear-gradient-14" x1="-450" y1="92.6" x2="-461.33" y2="90.25" xlink:href="#linear-gradient-9"/><linearGradient id="linear-gradient-15" x1="-5.91" y1="95.38" x2="-17.24" y2="93.03" gradientTransform="translate(482.42)" xlink:href="#linear-gradient-9"/><linearGradient id="linear-gradient-16" x1="297.55" y1="474.88" x2="298.84" y2="437.35" gradientTransform="matrix(1, 0, 0, 1, 0, 0)" xlink:href="#linear-gradient-9"/><linearGradient id="linear-gradient-17" x1="180.15" y1="510.29" x2="178.53" y2="545.55" gradientTransform="matrix(1, 0, 0, 1, 0, 0)" xlink:href="#linear-gradient-9"/><linearGradient id="linear-gradient-18" x1="160.99" y1="508.34" x2="172.42" y2="524.73" gradientTransform="matrix(1, 0, 0, 1, 0, 0)" xlink:href="#linear-gradient-9"/><linearGradient id="linear-gradient-19" x1="137.85" y1="520.81" x2="151.44" y2="529.54" gradientTransform="matrix(1, 0, 0, 1, 0, 0)" xlink:href="#linear-gradient-9"/><linearGradient id="linear-gradient-20" x1="191.48" y1="525.74" x2="209.6" y2="532.21" gradientTransform="matrix(1, 0, 0, 1, 0, 0)" xlink:href="#linear-gradient-9"/><linearGradient id="linear-gradient-21" x1="328.04" y1="402.73" x2="-2.81" y2="600.38" gradientTransform="matrix(1, 0, 0, 1, 0, 0)" xlink:href="#linear-gradient-9"/><linearGradient id="linear-gradient-22" x1="312.47" y1="410.99" x2="354.75" y2="384.25" gradientTransform="matrix(1, 0, 0, 1, 0, 0)" xlink:href="#linear-gradient-9"/><linearGradient id="linear-gradient-23" x1="200.55" y1="349.03" x2="270.58" y2="349.03" xlink:href="#linear-gradient"/><linearGradient id="linear-gradient-24" x1="180.39" y1="369.36" x2="417.89" y2="369.36" gradientTransform="matrix(1, 0, 0, 1, 0, 0)" xlink:href="#linear-gradient-9"/><linearGradient id="linear-gradient-25" x1="180.39" y1="364.95" x2="381.35" y2="364.95" gradientTransform="matrix(1, 0, 0, 1, 0, 0)" xlink:href="#linear-gradient-9"/><linearGradient id="linear-gradient-26" x1="393.98" y1="291.66" x2="434.04" y2="291.66" xlink:href="#linear-gradient"/><linearGradient id="linear-gradient-27" x1="273.09" y1="291.74" x2="516.38" y2="519.5" gradientTransform="matrix(1, 0, 0, 1, 0, 0)" xlink:href="#linear-gradient-9"/><linearGradient id="linear-gradient-28" x1="302.84" y1="326.97" x2="399.35" y2="417.32" gradientTransform="matrix(1, 0, 0, 1, 0, 0)" xlink:href="#linear-gradient-9"/><linearGradient id="linear-gradient-29" x1="301.45" y1="257.97" x2="330.98" y2="257.97" xlink:href="#linear-gradient"/><linearGradient id="linear-gradient-30" x1="303.93" y1="273.8" x2="362.59" y2="183.64" gradientTransform="matrix(1, 0, 0, 1, 0, 0)" xlink:href="#linear-gradient-9"/><linearGradient id="linear-gradient-31" x1="224.82" y1="406.57" x2="286.32" y2="471.04" gradientTransform="matrix(1, 0, 0, 1, 0, 0)" xlink:href="#linear-gradient-9"/><linearGradient id="linear-gradient-32" x1="164.93" y1="407.45" x2="215.18" y2="463.91" gradientTransform="matrix(1, 0, 0, 1, 0, 0)" xlink:href="#linear-gradient-9"/><linearGradient id="linear-gradient-33" x1="329.59" y1="392.35" x2="402.71" y2="536.64" gradientTransform="matrix(1, 0, 0, 1, 0, 0)" xlink:href="#linear-gradient-9"/><linearGradient id="linear-gradient-34" x1="253.99" y1="512.12" x2="266.61" y2="554.17" gradientTransform="matrix(1, 0, 0, 1, 0, 0)" xlink:href="#linear-gradient-9"/><linearGradient id="linear-gradient-35" x1="256.89" y1="512.69" x2="269.2" y2="553.74" gradientTransform="matrix(1, 0, 0, 1, 0, 0)" xlink:href="#linear-gradient-9"/><linearGradient id="linear-gradient-36" x1="223.89" y1="448.26" x2="173.42" y2="522.02" gradientTransform="matrix(1, 0, 0, 1, 0, 0)" xlink:href="#linear-gradient-9"/><linearGradient id="linear-gradient-37" x1="360.06" y1="464.98" x2="410.77" y2="506.5" gradientTransform="matrix(1, 0, 0, 1, 0, 0)" xlink:href="#linear-gradient-9"/><linearGradient id="linear-gradient-38" x1="278.11" y1="463.6" x2="340.09" y2="515.5" gradientTransform="matrix(1, 0, 0, 1, 0, 0)" xlink:href="#linear-gradient-9"/><linearGradient id="linear-gradient-39" x1="285.86" y1="222.15" x2="341.81" y2="222.15" xlink:href="#linear-gradient"/><linearGradient id="linear-gradient-40" x1="203.43" y1="361.93" x2="448.45" y2="524.99" gradientTransform="matrix(1, 0, 0, 1, 0, 0)" xlink:href="#linear-gradient-9"/><linearGradient id="linear-gradient-41" x1="295.22" y1="356.27" x2="383.02" y2="356.27" xlink:href="#linear-gradient"/><linearGradient id="linear-gradient-42" x1="401.46" y1="192.8" x2="504.27" y2="244.99" xlink:href="#linear-gradient-2"/></defs><title>Health 3</title><path d="M113.25,560.68a1229.65,1229.65,0,0,0,346.36,20.39c40.78-3.39,81.91-9,119.8-24.4s72.63-41.76,91.22-78.21,18.45-83.65-6.28-116.25c-14.66-19.33-37.36-33.79-43.92-57.14-5-17.92.76-36.82,4.51-55,5.7-27.64,6.35-57.71-6.7-82.73-24.33-46.65-85.53-59.73-121.54-98.09-10-10.61-17.89-23.09-28.54-33C452,21.1,430.46,12.91,408.91,7.81,345.12-7.29,272.18,4.39,225.33,50.24c-19,18.59-32.89,41.73-44.82,65.48C156.1,164.34,138.24,218,100.31,257,76.13,281.83,44.76,299.58,23.9,327.3.55,358.32-7,400.62,4.12,437.81c6.37,21.26,18.43,40.9,21.27,62.91,1.22,9.48.7,19.27,3.55,28.4C38.54,559.91,88.14,555.58,113.25,560.68Z" transform="translate(0.93 -1.58)" fill="#f7aa35" opacity="0.24" style="isolation:isolate"/><polygon points="406.38 161 406.38 252.89 339.73 252.89 339.73 321.52 247.88 321.52 247.88 252.89 181.27 252.89 181.27 161 247.88 161 247.88 96.42 339.73 96.42 339.73 161 406.38 161" fill="#f7aa35" opacity="0.24" style="isolation:isolate"/><path d="M335.54,266.81a3.94,3.94,0,0,0-1.56,2.24c-.26,1.74,1.58,3,3.22,3.67a26.43,26.43,0,0,0,10.44,1.81,1.8,1.8,0,0,0,1.14-.32,1.85,1.85,0,0,0,.44-1.31c.19-3.33,1.16-9.49-2-10.73S337.77,264.94,335.54,266.81Z" transform="translate(0.93 -1.58)" fill="url(#linear-gradient)"/><path d="M424.05,140.45S405.66,170.1,382,245.54c-3.56,11.35-34.94,14.88-34.94,14.88l7.76,21.36s21.35,1.94,38.18-7.12,28.47-44,28.47-44Z" transform="translate(0.93 -1.58)" fill="#f7aa35"/><path d="M424.05,140.45S405.66,170.1,382,245.54c-3.56,11.35-34.94,14.88-34.94,14.88l7.76,21.36s21.35,1.94,38.18-7.12,28.47-44,28.47-44Z" transform="translate(0.93 -1.58)" fill="url(#linear-gradient-2)"/><path d="M477,92.64a7.54,7.54,0,0,1-2,5.92,3,3,0,0,1-1.26.89c-2.53.84-2.68-4.34-1.94-5.81C472.71,92,476.66,89.31,477,92.64Z" transform="translate(0.93 -1.58)" fill="url(#linear-gradient-3)"/><path d="M431.51,89.75a7.51,7.51,0,0,0,2,5.91,3.18,3.18,0,0,0,1.25.9c2.54.83,2.69-4.35,1.95-5.82C435.83,89.06,431.89,86.41,431.51,89.75Z" transform="translate(0.93 -1.58)" fill="url(#linear-gradient-4)"/><path d="M390.73,553.67c-2.36-1.84-3.66-4.68-5.47-7.06-7.43-9.79-21.54-10.35-33.45-13.38a67.77,67.77,0,0,1-28.25-15c22.12-2.66,44.5-1.4,66.73-.14l150.39,8.51c8.43.47,16.9.95,25.15,2.7,2.25.47,4.69,1.18,5.94,3.12,1.41,2.2.66,5.26-1.06,7.23s-4.19,3.09-6.6,4.12c-23.82,10.13-50.15,16.59-75.6,11.9-1.77-.33-3.78-.9-4.5-2.55s.31-3.72,0-5.56c-.61-3.46-5.15-4.25-8.66-4.23l-33.5.17c-2,0-4.07.06-5.69,1.16-3.44,2.35-3,8-6.3,10.54-1.54,1.16-3.57,1.37-5.49,1.5C415.52,557.29,398.28,559.58,390.73,553.67Z" transform="translate(0.93 -1.58)" fill="#f7aa35" opacity="0.24" style="isolation:isolate"/><path d="M465.83,123.29c11.36,5.47,19.95,15.23,28.22,24.74,1.67,1.92,2.44,4.27,3.33,6.65,9.38,25.12,8,41.35,11,61.83,2.43,16.78,3.74,50.35,3.74,50.35s-.9,67.5-4.46,78.2l-111.47-2.67s8.48-109.11,9.22-122.46c3.56-64.8,16.64-79.07,26.45-88S465.83,123.29,465.83,123.29Z" transform="translate(0.93 -1.58)" fill="#f7aa35"/><path d="M465.83,123.29c11.36,5.47,19.95,15.23,28.22,24.74,1.67,1.92,2.44,4.27,3.33,6.65,9.38,25.12,8,41.35,11,61.83,2.43,16.78,3.74,50.35,3.74,50.35s-.9,67.5-4.46,78.2l-111.47-2.67s8.51-104.76,8.92-117.11c2.07-62.73,14.42-84,26.75-93.33C442.42,123.93,465.83,123.29,465.83,123.29Z" transform="translate(0.93 -1.58)" fill="url(#linear-gradient-5)"/><path d="M486,301.56c-16.9,7.43-34,16.37-52.1,12.88-4.2-.8-8.73-2-12.59-.16-9.16,4.34-5.41,19.93-13.31,26.29a6,6,0,0,1-5.5,1.39c-3.32-1.12-3.85-5.52-3.8-9l.44-27.53c0-2.68.15-5.56,1.78-7.69a12.08,12.08,0,0,1,4.11-3.08,205,205,0,0,1,51.07-19.5c8.67-2,17.48-3.6,26-6.19a82.91,82.91,0,0,0,12.92-4.9c2.13-1.05,12.87-29.2,13.31-27.52C514.3,259.07,504.42,293.47,486,301.56Z" transform="translate(0.93 -1.58)" fill="url(#linear-gradient-6)"/><path d="M425.51,194.92l-16.61-.56s-2.34,22.52,1.9,23.86,14.26.22,14.26.22Z" transform="translate(0.93 -1.58)" fill="#fff"/><path d="M468.87,130.61s-12.93,12.26-20.07,4-6.24-5.13-6.24-5.13L447.47,208Z" transform="translate(0.93 -1.58)" fill="#606161"/><path d="M451,49.5a14.5,14.5,0,0,1,9.59-5.22c3.63-.38,7.65.88,9.63,3.95,1.44,2.23,1.63,5,1.68,7.68,0,2.48,0,5.05-1.13,7.26a10.23,10.23,0,0,1-5.43,4.65c-5.32,2.1-11.62.39-15.74-3.4S447.79,53.43,451,49.5Z" transform="translate(0.93 -1.58)" fill="#606161"/><path d="M451,49.5a14.5,14.5,0,0,1,9.59-5.22c3.63-.38,7.65.88,9.63,3.95,1.44,2.23,1.63,5,1.68,7.68,0,2.48,0,5.05-1.13,7.26a10.23,10.23,0,0,1-5.43,4.65c-5.32,2.1-11.62.39-15.74-3.4S447.79,53.43,451,49.5Z" transform="translate(0.93 -1.58)" fill="url(#linear-gradient-7)"/><path d="M463.81,107.13s.15,16.94,4,20.51-15.46,20.21-23.63,1.63c0,0,4.75-8,3.12-21.55S463.81,107.13,463.81,107.13Z" transform="translate(0.93 -1.58)" fill="url(#linear-gradient-8)"/><path d="M464.41,111.14v3.71s-9.81,14.12-13.82,9.37-2.83-5.8-2.83-5.8l-.44-10.7Z" transform="translate(0.93 -1.58)" fill="url(#linear-gradient-9)"/><path d="M473.18,82.9s2.82,25.86-11,31-22.07-2.23-25.86-14.71S438.33,61.5,453,64,473.18,82.9,473.18,82.9Z" transform="translate(0.93 -1.58)" fill="url(#linear-gradient-10)"/><path d="M475.39,91.59a6.62,6.62,0,0,0,1.2-3,28.25,28.25,0,0,0-9.35-26.53A15.78,15.78,0,0,0,462.05,59a16.93,16.93,0,0,0-5.89-.6A29.6,29.6,0,0,0,439,64.6a22.47,22.47,0,0,0-8.48,15.93,11,11,0,0,0,.87,5.39,5.9,5.9,0,0,0,4.11,3.35c3.2.55,4.08-2.39,6.66-4.36,3.88-3,5.12-7.36,14-6.62C470.51,79.51,471.52,96.32,475.39,91.59Z" transform="translate(0.93 -1.58)" fill="#606161"/><polygon points="499.67 342.59 501.45 517.37 500.12 541.89 482.28 542.78 455.53 352.85 433.35 543.11 414.29 543 411.84 340.81 499.67 342.59" fill="#606161"/><polygon points="499.67 342.59 501.45 517.37 500.12 541.89 482.28 542.78 455.09 350.62 433.35 543.11 414.29 543 411.84 340.81 499.67 342.59" fill="url(#linear-gradient-11)"/><polygon points="514.83 556.15 483.62 555.71 482.28 542.78 500.12 541.89 514.83 556.15" fill="#606161"/><polygon points="400.8 556.15 432.01 555.71 433.35 542.78 415.52 541.89 400.8 556.15" fill="#606161"/><path d="M465.45,123.92s5.05,4.31,0,15S447,210,447,210l26.75-44.14-3-16.64,5.65-4.46s0-15.76-3-19S467.32,122.7,465.45,123.92Z" transform="translate(0.93 -1.58)" fill="#f7aa35"/><path d="M446.8,121.91s-8,2-9.37,5.8-6.91,14.94-6.91,14.94l3.57,4.9L428.52,154,447,210s-4.76-75.8-2.82-80.7S446.8,121.91,446.8,121.91Z" transform="translate(0.93 -1.58)" fill="#f7aa35"/><path d="M465.45,123.92s5.05,4.31,0,15S447,210,447,210l26.75-44.14-3-16.64,5.65-4.46s0-15.76-3-19S467.32,122.7,465.45,123.92Z" transform="translate(0.93 -1.58)" fill="url(#linear-gradient-12)"/><path d="M446.8,121.91s-8,2-9.37,5.8-6.91,14.94-6.91,14.94l3.57,4.9L428.52,154,447,210s-4.76-75.8-2.82-80.7S446.8,121.91,446.8,121.91Z" transform="translate(0.93 -1.58)" fill="url(#linear-gradient-13)"/><path d="M434.08,91.59a1.72,1.72,0,0,1-.41-.56,4.42,4.42,0,0,1-.1-.73,1,1,0,0,0-.34-.64.67.67,0,0,0-.69-.13.75.75,0,0,0-.42.48,2.11,2.11,0,0,0-.1.66,5.16,5.16,0,0,0,.37,2.5,5.67,5.67,0,0,0,1.2,1.43,1,1,0,0,0,.66.36.93.93,0,0,0,.47-.17.4.4,0,0,0,.16-.13.41.41,0,0,0,0-.19,4.73,4.73,0,0,0-.05-1.76A2.33,2.33,0,0,0,434.08,91.59Z" transform="translate(0.93 -1.58)" fill="url(#linear-gradient-14)"/><path d="M474.14,94.38a1.69,1.69,0,0,0,.4-.56,3.57,3.57,0,0,0,.1-.74,1.06,1.06,0,0,1,.34-.64.72.72,0,0,1,.7-.13.82.82,0,0,1,.42.49,2.44,2.44,0,0,1,.09.66,5,5,0,0,1-.37,2.5,5.44,5.44,0,0,1-1.19,1.43,1,1,0,0,1-.66.36.93.93,0,0,1-.47-.17.4.4,0,0,1-.16-.13.67.67,0,0,1,0-.19,5,5,0,0,1,0-1.77A2.39,2.39,0,0,1,474.14,94.38Z" transform="translate(0.93 -1.58)" fill="url(#linear-gradient-15)"/><rect x="293.5" y="436.48" width="9.19" height="44.86" fill="#f7aa35"/><rect x="293.5" y="436.48" width="9.19" height="44.86" fill="url(#linear-gradient-16)"/><path d="M178.89,569.17c-13.83,0-24.66-13.75-24.66-31.31s10.83-31.31,24.66-31.31,24.66,13.75,24.66,31.31S192.71,569.17,178.89,569.17Zm0-50.16c-6.62,0-12.2,8.63-12.2,18.85s5.58,18.85,12.2,18.85,12.2-8.63,12.2-18.85S185.5,519,178.89,519Z" transform="translate(0.93 -1.58)" fill="#606161"/><path d="M178.89,569.17c-13.83,0-24.66-13.75-24.66-31.31s10.83-31.31,24.66-31.31,24.66,13.75,24.66,31.31S192.71,569.17,178.89,569.17Zm0-50.16c-6.62,0-12.2,8.63-12.2,18.85s5.58,18.85,12.2,18.85,12.2-8.63,12.2-18.85S185.5,519,178.89,519Z" transform="translate(0.93 -1.58)" fill="url(#linear-gradient-17)"/><path d="M181.45,506.7c-12.37,1.61-21.75,14.71-21.75,31.17s9.38,29.55,21.75,31.16c12.59-1.61,22.1-14.71,22.1-31.16S194,508.31,181.45,506.7Zm2.52,50a6.82,6.82,0,0,1-2.52-.46,7.17,7.17,0,0,1-2.58.46c-6.62,0-12.18-8.64-12.18-18.84S172.25,519,178.87,519a8.39,8.39,0,0,1,2.58.41A8,8,0,0,1,184,519c6.48,0,12,8.59,12,18.85S190.45,556.71,184,556.71Z" transform="translate(0.93 -1.58)" fill="url(#linear-gradient-18)"/><path d="M109.66,517.65c-2.13,2.05-3.51,5.79-1.32,7.76,1.31,1.18,3.27,1.13,5,1,12.43-.85,26-.67,38.39-1.87,1.74-.17,2.52.79,3.72-.49.68-.72,1-4.09,1.33-5l2.27-6.36a2.1,2.1,0,0,0,.18-1.34,2.14,2.14,0,0,0-1.09-1.09c-3.56-2.1-9.75-5.92-14-5.78-4,.12-6.83,3.34-10.61,4.81C125.67,512.33,116.12,511.47,109.66,517.65Z" transform="translate(0.93 -1.58)" fill="#606161"/><path d="M109.66,517.65c-2.13,2.05-3.51,5.79-1.32,7.76,1.31,1.18,3.27,1.13,5,1,12.43-.85,26-.67,38.39-1.87,1.74-.17,2.52.79,3.72-.49.68-.72,1-4.09,1.33-5l2.27-6.36a2.1,2.1,0,0,0,.18-1.34,2.14,2.14,0,0,0-1.09-1.09c-3.56-2.1-9.75-5.92-14-5.78-4,.12-6.83,3.34-10.61,4.81C125.67,512.33,116.12,511.47,109.66,517.65Z" transform="translate(0.93 -1.58)" fill="url(#linear-gradient-19)"/><path d="M176.55,518.31c-4.84.18-10.07.74-13.63,4-.63.57-1.23,1.43-.92,2.22a2.25,2.25,0,0,0,1.1,1c11.19,6.47,25.08,6,37.1,10.77,1.15.45,2.5.94,3.54.29a3.91,3.91,0,0,0,1.2-1.52q2.69-5,5-10.24a2.09,2.09,0,0,0,.26-1.28c-.14-.67-.85-1-1.47-1.28q-4.12-1.73-8.25-3.39c-2.44-1-6.07-3.32-8.69-3.43-2.07-.1-4.42,1.66-6.55,2.09A51.2,51.2,0,0,1,176.55,518.31Z" transform="translate(0.93 -1.58)" fill="#606161"/><path d="M176.55,518.31c-4.84.18-10.07.74-13.63,4-.63.57-1.23,1.43-.92,2.22a2.25,2.25,0,0,0,1.1,1c11.19,6.47,25.08,6,37.1,10.77,1.15.45,2.5.94,3.54.29a3.91,3.91,0,0,0,1.2-1.52q2.69-5,5-10.24a2.09,2.09,0,0,0,.26-1.28c-.14-.67-.85-1-1.47-1.28q-4.12-1.73-8.25-3.39c-2.44-1-6.07-3.32-8.69-3.43-2.07-.1-4.42,1.66-6.55,2.09A51.2,51.2,0,0,1,176.55,518.31Z" transform="translate(0.93 -1.58)" fill="url(#linear-gradient-20)"/><path d="M290.17,563.44c-33.86,0-61.41-36.74-61.41-81.91s27.55-81.92,61.41-81.92,61.42,36.75,61.42,81.92S324,563.44,290.17,563.44Zm0-154.64c-28.79,0-52.22,32.63-52.22,72.73s23.43,72.72,52.22,72.72,52.22-32.63,52.22-72.72S319,408.8,290.17,408.8Z" transform="translate(0.93 -1.58)" fill="#606161"/><path d="M372.22,488.81H179.55V395.69a29.48,29.48,0,0,1,29.37-29.52h92.36v9.19H208.92a20.31,20.31,0,0,0-20.23,20.33v83.93H369.22l2.16-1.61v-43.4h9.15v48Z" transform="translate(0.93 -1.58)" fill="#f7aa35"/><path d="M372.32,488.81H179.55V395.69a29.48,29.48,0,0,1,29.39-29.52h92.41v9.19H208.94a20.31,20.31,0,0,0-20.24,20.33v83.93H369.32l2.17-1.61v-43.4h9.15v48Z" transform="translate(0.93 -1.58)" fill="url(#linear-gradient-21)"/><path d="M372.32,488.81H179.55V395.69a29.48,29.48,0,0,1,29.39-29.52h92.41v9.19H208.94a20.31,20.31,0,0,0-20.24,20.33v83.93H369.32l2.17-1.61v-43.4h9.15v48Z" transform="translate(0.93 -1.58)" fill="url(#linear-gradient-22)"/><path d="M254.54,344.68c-.59,2.16-1.27,4.4-2.81,6s-3.77,2.41-5.92,3.06c-8.32,2.51-17,3.8-25.12,6.93s-15.87,8.56-19.12,16.62c-1.5,3.73-1.64,8.67,1.57,11.09s7.6,1.06,11.27-.34L261.8,370c1.66-.64,3.42-1.34,4.5-2.76s1.28-3.43,1.41-5.27q1.43-20,2.84-40c.38-5.29-2.95-20-9.86-10.43-2.17,3-1.6,11.62-2.22,15.3A182.08,182.08,0,0,1,254.54,344.68Z" transform="translate(0.93 -1.58)" fill="url(#linear-gradient-23)"/><path d="M417.56,298.72c-.05.14-.46.28-.79.32-5.24.92-24.31,1.56-24.31,1.61a10.44,10.44,0,0,0-7.4,2.67c-2.71,2.34-4.18,6-4.46,10.8-.6,11.12-.09,112.06,0,129.2H180.39V416.66L326.6,404.43l27.76-69.77h20.5V305.89c.59-1.7,4.22-10.11,15.53-10.39,11.49-.23,22.66-.09,26.43,0C417.42,296.74,417.79,298.17,417.56,298.72Z" transform="translate(0.93 -1.58)" fill="#f7aa35"/><path d="M417.84,300.89c0,.12-29.53-.46-32.78,2.44-2.7,2.32-4.17,5.94-4.46,10.79-.22,3.62-.3,17-.3,33.95,0,8.73,0,18,0,27.05,0,21.24.13,43.06.17,56.75,0,5.1.09,9.1.09,11.46H180.39V416.66l146.19-12.21,27.77-69.77h20.52V305.9a15.68,15.68,0,0,1,6.48-7.88,18,18,0,0,1,9.06-2.52c11.46-.22,22.63-.09,26.42,0C417.42,296.76,418.09,300.34,417.84,300.89Z" transform="translate(0.93 -1.58)" fill="url(#linear-gradient-24)"/><path d="M380.6,302.66c-.26,4.46-.3,23.3-.3,45.41,0,8.73,0,18,0,27.05.09,25.28.21,49.21.26,56.75H180.39V405.2L326.58,393l27.77-69.81h20.52V305.9a15.68,15.68,0,0,1,6.48-7.88A19.25,19.25,0,0,0,380.6,302.66Z" transform="translate(0.93 -1.58)" fill="url(#linear-gradient-25)"/><path d="M410.78,282.55c-6.75,2.29-13.45,6.45-16,13.09-1.16,3-1.16,6.87,1.39,8.77,1.63,1.23,3.84,1.27,5.88,1.27a40.37,40.37,0,0,0,9.45-.77,13.5,13.5,0,0,0,7.9-4.91c1.78-2.51,2.46-5.89,5-7.68,2.95-2.11,7.88-1.61,9.37-4.92,1-2.21-.3-4.95-1.28-6.95-1.62-3.31-.69-3-4.36-2.5C422.46,278.68,416.12,280.75,410.78,282.55Z" transform="translate(0.93 -1.58)" fill="url(#linear-gradient-26)"/><path d="M326.32,262s25.68,4.69,36,11.33h0l-6.53,32.29,1.19,2.16s-3.24,72.47-9.54,79.27l-83.15-.16,5.23-54.09-16.39-3.88s17-49.15,19.84-53.06c4.31-6,18.36-9.25,24.17-11.47S326.32,262,326.32,262Z" transform="translate(0.93 -1.58)" fill="#f7aa35"/><path d="M326.32,262s25.68,4.69,36,11.33h0l-6.53,32.29,1.19,2.16s-3.24,72.47-9.54,79.27l-83.15-.16,6.09-60.13-12.51-2.15s12.4-52.74,16-56,17.5-2,23.31-4.24S326.32,262,326.32,262Z" transform="translate(0.93 -1.58)" fill="url(#linear-gradient-27)"/><path d="M341.6,313s-7.77,63-14.67,69.88-.33,21.59-.33,21.59l20.95-19.67,11.3-60.59Z" transform="translate(0.93 -1.58)" fill="url(#linear-gradient-28)"/><path d="M330.65,262.65c-.4,2.29-1.63,2.45-2.86,4.41a14.26,14.26,0,0,1-4.52,4.22c-3.64,2.34-8,3.88-12.3,3.2s-11.88-5.26-8.8-8.3c4.59-4.56,2.76-10.81,1.68-11.78-4.1-3.69,5.89-3.68,10.92-6,4-1.82,8.54-8.72,12.81-6.82C331.46,243.35,331.23,259.34,330.65,262.65Z" transform="translate(0.93 -1.58)" fill="url(#linear-gradient-29)"/><path d="M322.61,260.57a16.75,16.75,0,0,1-5.76,4,7.87,7.87,0,0,1-6.82-.41c-2.43-1.5-3.49-4.42-4.39-7.13-.36-1.07-.65-2.43.19-3.19a2.94,2.94,0,0,1,.92-.5l12.37-4.86a22.92,22.92,0,0,1,6.19-1.77c4-.34,5.87,1.33,4,5A36.06,36.06,0,0,1,322.61,260.57Z" transform="translate(0.93 -1.58)" fill="url(#linear-gradient-30)"/><path d="M265.19,416.8l-.83.14a38.6,38.6,0,0,0-5.61,3l13.15-.13c31.58-.33,49.64-.65,53.45-2.53a53.31,53.31,0,0,0,5.47-3.27C310.28,415.56,265.74,416.75,265.19,416.8Z" transform="translate(0.93 -1.58)" fill="#f7aa35"/><path d="M340.8,417.44c-9.7,2.12-68.85,3.77-75.06,3.91-2.62,1.15-8.41,4.37-9.51,7.9-1.75,5.66-39.49,89.45-41.09,93l-.79,1.79-30.15-7.54.78-2.34c3.41-10.48,33.65-102.18,41.65-109.3,7.4-6.62,25.64-19.44,41.45-20.87,14.62-1.24,76.81.69,79.47.78l2,.05.23,2C350.08,389.68,352.38,414.91,340.8,417.44Z" transform="translate(0.93 -1.58)" fill="#f7aa35"/><path d="M340.8,417.44c-9.7,2.12-68.85,3.77-75.06,3.91-2.62,1.15-8.41,4.37-9.51,7.9-1.75,5.66-39.49,89.45-41.09,93l-.79,1.79-30.15-7.54.78-2.34c2.62-8.09,21.19-64.44,33.23-93.08,3.59-8.5,6.58-14.57,8.42-16.22,6.2-5.56,20.08-15.49,33.73-19.35a39.74,39.74,0,0,1,7.72-1.52c14.62-1.24,76.81.69,79.47.78l2,.05.23,2C350.08,389.68,352.38,414.91,340.8,417.44Z" transform="translate(0.93 -1.58)" fill="url(#linear-gradient-31)"/><path d="M345.53,394.51c0,7.95-1.29,17.46-5.7,18.43a86.38,86.38,0,0,1-9,1.05C336.94,409.72,343.79,402.83,345.53,394.51Z" transform="translate(0.93 -1.58)" fill="#f7aa35"/><path d="M345.53,394.41c0-1.83-.09-3.63-.18-5.14-11.08-.33-64-1.84-76.9-.69a37.51,37.51,0,0,0-7.44,1.51c-11.86,3.54-24.59,12.23-31.35,18.21-1,.87-2.48,3.63-4.37,7.86-.64,1.37-1.33,2.94-2,4.64-10.94.55-19.35,1.28-22.25,2.53-8.68,3.76-26.56,56.16-35.8,88.24l-.64,2.3-27.67-8.73.59-2.16c1-3.36,23.4-82.18,27.67-92.94,4.51-11.21,17.84-16.64,27.54-20.59l1.33-.55c9.65-3.95,135-4,149.29-4h1.88l.37,1.89A19.57,19.57,0,0,1,345.53,394.41Z" transform="translate(0.93 -1.58)" fill="#f7aa35"/><path d="M260.36,385.5c-13.65,3.86-27.53,13.79-33.73,19.35-1.84,1.65-4.83,7.72-8.42,16.22-8.45.51-14.75,1.2-17.19,2.26-8.68,3.76-26.56,56.16-35.8,88.24l-.64,2.3-27.67-8.73.59-2.16c1-3.36,23.4-82.18,27.67-92.94,4.51-11.21,17.84-16.64,27.54-20.59l1.33-.55C198.54,387.06,228.37,386.05,260.36,385.5Z" transform="translate(0.93 -1.58)" fill="url(#linear-gradient-32)"/><path d="M375,397.4h-.37c-1,0-1.93-.09-2.9-.09-35.11,0-63.7,37.78-63.7,84.2s28.59,84.21,63.7,84.21c1,0,1.93-.05,2.9-.09H375c33.64-2.26,60.48-39.12,60.48-84.12S408.59,399.7,375,397.4Zm-3.27,154.53c-27.48,0-49.91-31.58-49.91-70.42s22.43-70.41,49.91-70.41c1,0,2.07,0,3.08.14,26.11,2.25,46.89,32.91,46.89,70.27s-20.78,68-46.89,70.28C373.75,551.88,372.7,551.93,371.68,551.93Z" transform="translate(0.93 -1.58)" fill="#606161"/><path d="M375,397.4h-.37c-33.6,2.3-60.44,39.16-60.44,84.11s26.84,81.86,60.44,84.12H375c33.64-2.26,60.48-39.12,60.48-84.12S408.59,399.7,375,397.4Zm2.89,154.53c-1,0-2.06,0-3.08-.14-1,.09-2.06.14-3.08.14-27.48,0-49.91-31.58-49.91-70.42s22.43-70.41,49.91-70.41c1,0,2.07,0,3.08.14,1-.09,2.07-.14,3.08-.14,27.54,0,49.92,31.58,49.92,70.41S405.38,551.93,377.84,551.93Z" transform="translate(0.93 -1.58)" fill="url(#linear-gradient-33)"/><path d="M261.71,569.17c-13.83,0-24.66-13.75-24.66-31.31s10.83-31.31,24.66-31.31,24.66,13.75,24.66,31.31S275.54,569.17,261.71,569.17Zm0-50.16c-6.61,0-12.2,8.63-12.2,18.85s5.59,18.85,12.2,18.85,12.2-8.63,12.2-18.85S268.32,519,261.71,519Z" transform="translate(0.93 -1.58)" fill="#606161"/><path d="M264.27,506.7a24.59,24.59,0,0,0-2.57-.14c-13.84,0-24.64,13.75-24.64,31.31s10.8,31.3,24.64,31.3a24.59,24.59,0,0,0,2.57-.14c12.59-1.61,22.11-14.71,22.11-31.16S276.86,508.31,264.27,506.7Zm-2.57,50c-6.62,0-12.18-8.64-12.18-18.84S255.08,519,261.7,519a8.32,8.32,0,0,1,2.57.41c5.42,1.89,9.65,9.56,9.65,18.44s-4.23,16.54-9.65,18.38A7.12,7.12,0,0,1,261.7,556.71Z" transform="translate(0.93 -1.58)" fill="url(#linear-gradient-34)"/><path d="M264.27,506.7c-12.36,1.61-21.74,14.71-21.74,31.17s9.38,29.55,21.74,31.16c12.59-1.61,22.11-14.71,22.11-31.16S276.86,508.31,264.27,506.7Zm2.53,50a6.87,6.87,0,0,1-2.53-.46,7.12,7.12,0,0,1-2.57.46c-6.62,0-12.18-8.64-12.18-18.84S255.08,519,261.7,519a8.32,8.32,0,0,1,2.57.41,8,8,0,0,1,2.53-.41c6.48,0,12,8.59,12,18.85S273.28,556.71,266.8,556.71Z" transform="translate(0.93 -1.58)" fill="url(#linear-gradient-35)"/><path d="M354.92,273.32a7,7,0,0,0-2.44.42c-2.39.89-4,3.06-4.68,6.28h0c-3.57,17.06,3.28,35.05,9.17,49.77a76,76,0,0,0,20.92-5.55c.33-.14,1.2-.5,1.37-.8a3.94,3.94,0,0,0,0-1.74c-1.22-7.8-3.62-15.55-5.94-23.05l-.25-.83c-2.26-7.29-5.35-17.29-11.33-21.9A11.43,11.43,0,0,0,354.92,273.32Z" transform="translate(0.93 -1.58)" fill="none" stroke="#f7aa35" stroke-miterlimit="10" stroke-width="4.6"/><path d="M381.6,328.06a6.83,6.83,0,0,1-3.54,2.66,79.8,79.8,0,0,1-24,6.07l-1.7.18-.64-1.6c-6.25-15.59-14-35-10.07-54,1-4.78,3.72-8.23,7.59-9.65,4.22-1.57,9.33-.51,13.65,2.85,7.12,5.47,10.48,16.27,12.91,24.17l.23.83c2.39,7.63,4.83,15.58,6.12,23.67A7.25,7.25,0,0,1,381.6,328.06Z" transform="translate(0.93 -1.58)" fill="#f7aa35"/><path d="M269.84,499.75h-9.19V411.22a29.55,29.55,0,0,1,29.52-29.52H383v9.19H290.17a20.35,20.35,0,0,0-20.33,20.33Z" transform="translate(0.93 -1.58)" fill="#f7aa35"/><path d="M213.48,546.18a19.4,19.4,0,0,1-4.51-.55c-8.37-2-24.3-9.84-28.5-12l-74.38.43,0-9.2,76.61-.43,1,.51c.19.09,19,9.69,27.45,11.7a7.78,7.78,0,0,0,8.05-2.26c1.32-5.42,8.31-33.84,14.55-52.94,2.55-7.81,6.88-13.26,12.88-16.18,9.1-4.44,18.54-1.09,18.94-.94L262.41,473c-.07,0-6.31-2.15-11.87.6-3.64,1.8-6.37,5.41-8.1,10.74-6.77,20.71-14.49,52.81-14.57,53.13l-.17.73-.4.64A16.54,16.54,0,0,1,213.48,546.18Z" transform="translate(0.93 -1.58)" fill="#f7aa35"/><path d="M213.48,546.18a19.4,19.4,0,0,1-4.51-.55c-8.37-2-24.3-9.84-28.5-12l-74.38.43,0-9.2,76.61-.43,1,.51c.19.09,19,9.69,27.45,11.7a7.78,7.78,0,0,0,8.05-2.26c1.32-5.42,8.31-33.84,14.55-52.94,2.55-7.81,6.88-13.26,12.88-16.18,9.1-4.44,18.54-1.09,18.94-.94L262.41,473c-.07,0-6.31-2.15-11.87.6-3.64,1.8-6.37,5.41-8.1,10.74-6.77,20.71-14.49,52.81-14.57,53.13l-.17.73-.4.64A16.54,16.54,0,0,1,213.48,546.18Z" transform="translate(0.93 -1.58)" fill="url(#linear-gradient-36)"/><ellipse cx="376.82" cy="480.37" rx="9.27" ry="15.42" fill="#f7aa35"/><ellipse cx="296.16" cy="480.37" rx="9.27" ry="15.42" fill="#f7aa35"/><ellipse cx="378.85" cy="480.37" rx="7.25" ry="15.42" fill="url(#linear-gradient-37)"/><ellipse cx="298.13" cy="480.37" rx="7.34" ry="15.42" fill="url(#linear-gradient-38)"/><polygon points="108.18 532.67 138.6 545.29 213.98 544 180.33 530.73 108.18 532.67" fill="#606161"/><path d="M289.94,232.86c.61,4.49,1.26,9.08,3.35,13.09,4,7.64,13.11,11.94,21.7,11.13s16.37-6.26,21-13.53,6.3-16.19,5.71-24.79c-.39-5.68-1.78-11.42-5-16.14-5.25-7.79-14.58-11.76-23.7-14-4.5-1.11-9.17-1.92-13.75-1.25C277.85,190.46,288.05,219,289.94,232.86Z" transform="translate(0.93 -1.58)" fill="url(#linear-gradient-39)"/><path d="M282.76,203.78A83.06,83.06,0,0,1,283,189c.1-1.37.43-3,1.73-3.48.51-.17,1.12-.12,1.53-.46a2.39,2.39,0,0,0,.56-1.61,9.35,9.35,0,0,1,3.45-5.52,10.77,10.77,0,0,1,5.75-2.79c3.73-.42,7.14,1.88,10.66,3.2,4.32,1.62,9,1.77,13.66,1.81s9.32,0,13.74,1.35,8.64,4.22,10.33,8.51a4.59,4.59,0,0,0,.72,1.41,5.64,5.64,0,0,0,1.16.82c2.74,1.75,3.5,5.38,3.67,8.63A45.14,45.14,0,0,1,344,225.62a1.51,1.51,0,0,1-.56.66,1.13,1.13,0,0,1-1.38-.47,3.28,3.28,0,0,1-.41-1.54,90.09,90.09,0,0,0-2.76-14.56c-.62-2.23-1.58-4.73-3.76-5.51a8.17,8.17,0,0,0-3-.24c-11.56.43-23.14-2.29-34.64-1.06-3.51.38-7.46,1.48-9,4.65-.82,1.69-.75,3.58-.81,5.4s-.11,4.59-1.72,2C284,211.7,283.14,207.48,282.76,203.78Z" transform="translate(0.93 -1.58)" fill="#606161"/><path d="M269.84,499.75h-9.19V411.22a29.55,29.55,0,0,1,29.52-29.52H383v9.19H290.17a20.35,20.35,0,0,0-20.33,20.33Z" transform="translate(0.93 -1.58)" fill="url(#linear-gradient-40)"/><path d="M378.06,330.72s11.85,46.08-1.09,49.1-81.75,1.73-81.75,1.73,5.4-12.84,17.48-13.27,43.56-4.42,43.56-4.42l-1.9-29.2Z" transform="translate(0.93 -1.58)" fill="url(#linear-gradient-41)"/><path d="M494.05,148s23.83,42.51,16.93,104.2S433.76,301,433.76,301l-6-29.33s41-2.59,49.18-12.94,4.31-69.88,4.31-69.88Z" transform="translate(0.93 -1.58)" fill="#f7aa35"/><path d="M494.05,148s23.83,42.51,16.93,104.2S433.76,301,433.76,301l-6-29.33s41-2.59,49.18-12.94,4.31-69.88,4.31-69.88Z" transform="translate(0.93 -1.58)" fill="url(#linear-gradient-42)"/></svg>