<svg xmlns="http://www.w3.org/2000/svg" viewBox="0 0 500 500"><g id="freepik--Floor--inject-235"><ellipse id="freepik--floor--inject-235" cx="249.05" cy="363.71" rx="208.58" ry="124.81" style="fill:#f0f0f0"></ellipse></g><g id="freepik--Shadow--inject-235"><path id="freepik--shadow--inject-235" d="M91.66,403l121.5,70.12a5.47,5.47,0,0,0,5,0l161.05-93c1.37-.79,1.37-2.08,0-2.87l-121.5-70.13a5.53,5.53,0,0,0-5,0l-161,93.05C90.29,401,90.29,402.24,91.66,403Z" style="fill:#e0e0e0"></path><ellipse id="freepik--shadow--inject-235" cx="401.37" cy="366.06" rx="24.79" ry="14.31" style="fill:#e0e0e0"></ellipse><ellipse id="freepik--shadow--inject-235" cx="168.95" cy="374.75" rx="52.46" ry="30.29" style="fill:#e0e0e0"></ellipse></g><g id="freepik--Character--inject-235"><g id="freepik--character--inject-235"><path d="M227.06,113.1c-5.62-5.75-9.07-4.56-9,1.93.08,4.8-1.53,3.77-1.53,3.77L213,126a5.49,5.49,0,0,1,0,3.75c-2.19,5.66-10,17.71-15.45,25.21a202.17,202.17,0,0,1-11.93-18.5c-5.16-8.71-10.23-18-19.72-17.67l-1.37,20.41c5.87,9.89,10,14.4,23.41,29.66a40.53,40.53,0,0,0,7.22,6.44c4.43,2.93,10.48-3.68,13.73-9.12,4.26-7.14,8.68-17.21,13.86-27.94,1.94-4,4.28-8.47,5.47-11.77C231.28,117.85,229.07,115.15,227.06,113.1Z" style="fill:#965656"></path><path d="M229.1,123.42l-2.29-2.78.77-2.79-1.69,3.07-9-2a.57.57,0,0,1-.27-.06h-.06l-.22.43c0,.64.45,1.55,1.95,2.8A7,7,0,0,0,223,124a3.32,3.32,0,0,0,1.11-.19l4.14,2.47C228.59,125.23,228.88,124.29,229.1,123.42Z" style="fill:#663838"></path><path d="M193.27,105.49c0,1.47-.05,4.41,4.63,6.51s9.89-.19,9.89-3.28Z" style="fill:#ebebeb"></path><path d="M237.35,126.63l-31.6-18.24L205.3,111l-.13,1,29.68,17.13a3.28,3.28,0,0,0,2.92.25.75.75,0,0,0,.42-.63c0-.2,0-.94,0-1.13C238.19,127.34,237.9,127,237.35,126.63Z" style="fill:#ebebeb"></path><path d="M196.46,109.4c3.32,1.92,7.84,2.43,10.08,1.13s1.38-3.91-1.94-5.83-7.83-2.44-10.08-1.14S193.14,107.47,196.46,109.4Z" style="fill:#f5f5f5"></path><path d="M203.25,109.84l2.5-1.45,31.61,18.24c.92.54,1.11,1.29.41,1.69h0a3.27,3.27,0,0,1-2.92-.24Z" style="fill:#f5f5f5"></path><polygon points="205.29 111.02 205.17 112.07 234.85 129.2 234.85 128.08 205.29 111.02" style="fill:#e0e0e0"></polygon><path d="M179,159.69l-12.55-17s-7.74-15.28-2.26-24.19c0,0,9.47-.69,14.51,6.2,4.19,5.75,10.3,15.08,14.57,22.11C192.13,152.6,186.1,158.33,179,159.69Z" style="fill:#37474f"></path><path d="M201.59,110c3.8,0,4.41-1.35,4.26-3s-2.13-4-5.81-4.63-6,.52-6.41,2C193,106.68,197.78,110,201.59,110Z" style="fill:#E7B9B4"></path><path d="M205.85,107a3.42,3.42,0,0,0-.47-1.35c-.23,1.4-2.35,2.55-5.21,2.23-3.3-.37-6.4-2.45-6.22-4.14a2.19,2.19,0,0,0-.32.65c-.6,2.34,4.15,5.65,8,5.65S206,108.64,205.85,107Z" style="opacity:0.1"></path><path d="M214.74,114.55a2.67,2.67,0,0,0-3.56-1.13c-.52.33.33,1.57.56,4,.3,3.17.07,5.36,1.21,8.57l3.33-6.65C215.63,117.49,215.36,115.44,214.74,114.55Z" style="fill:#965656"></path><path d="M221,109.4c-2.47,0-4.5,1-5.33,2.44s-.25,6,.61,7.55,5.51,4.06,7.44,3.55,3.75-5.09,3.75-5.09Z" style="fill:#965656"></path><path d="M197.12,92.4c-4-2.59-5.77-7.07-3.18-11.79s4.74-9.35,1.55-13.06A6.74,6.74,0,0,1,201,72.41c1.47,4.52-.79,8.6-3,11.58S195.32,90.35,197.12,92.4Z" style="fill:#f0f0f0"></path><path d="M204.43,95.65c-3.56-2.33-5.17-6.36-2.85-10.6s4.26-8.4,1.39-11.74a6.07,6.07,0,0,1,4.94,4.37c1.32,4.06-.71,7.73-2.72,10.41S202.82,93.81,204.43,95.65Z" style="fill:#f0f0f0"></path><rect x="128.69" y="348.64" width="11.32" height="20.19" style="fill:#965656"></rect><polygon points="165.71 348.66 176.91 349.06 177.47 327.93 165.71 327.53 165.71 348.66" style="fill:#965656"></polygon><path d="M127.36,179.18c0,10.59,1.56,95.85,1.56,95.85-.25,3.05-3,8.67-2.4,20.38.81,15.91,1.88,62.73,1.88,62.73a13.5,13.5,0,0,0,11.86.24s8.64-63.59,10.55-79.36c1.66-13.75,6.59-53.24,6.59-53.24l5.11,47.71a65.74,65.74,0,0,0-1.32,17.63c.5,7.29,3.93,50.28,3.93,50.28s5,3.55,12.29,1c0,0,6.06-62.21,6.19-68.89.14-7.63-3.54-94.43-3.54-94.43Z" style="fill:#E7B9B4"></path><path d="M127.36,179.18c0,10.59,1.56,95.85,1.56,95.85-.25,3.05-3,8.67-2.4,20.38.81,15.91,1.88,62.73,1.88,62.73a13.5,13.5,0,0,0,11.86.24s8.64-63.59,10.55-79.36c1.66-13.75,6.59-53.24,6.59-53.24l5.11,47.71a65.74,65.74,0,0,0-1.32,17.63c.5,7.29,3.93,50.28,3.93,50.28s5,3.55,12.29,1c0,0,6.06-62.21,6.19-68.89.14-7.63-3.54-94.43-3.54-94.43Z" style="opacity:0.2"></path><path d="M140,363v-1.69c1.09.49,5,12.06,9.51,16.33,3.57,3.39,8.44,7.31,9.68,11.09,1.29,3.94-6.79,6.11-10.12,5.49-3.88-.71-10.6-3.56-12.29-6.19s-2.47-6.52-3.84-8.46-5.94-5.65-6.68-7.89c-.41-1.22.07-3.91.64-6.19.53-2.08,1.1-4.37,1.78-4.18v1.29c.82.95,3.1,1.89,5.66,2C136,364.67,140,364.32,140,363Z" style="fill:#37474f"></path><path d="M177,345.47c.59,0,1.06.87,2.34,2.32,1.55,1.75,6.56,4.76,9.06,6.07,4.2,2.18,12.35,5.55,16,7.28,2.31,1.08,2.2,4-.18,5.63s-8.14,2.84-15.05,1.23c-3.76-.88-8.45-3.58-11.76-4.3-3-.66-11.38-1-13.67-2.62s-1.37-5.16-.72-8.17c.7-3.29,1.59-8.43,2.63-8.2v1.13c1.35,2.13,8.3,3,11.26,1.43Z" style="fill:#37474f"></path><path d="M157.88,221a35.26,35.26,0,0,0,13.69-8.48s-1.1,5.4-11.34,10.77L162,269.64l-4.63-43.86Z" style="opacity:0.2"></path><path d="M133.32,120.13s-10.13,3.09-9.54,19L127.67,167,127,201.29c7.83,8.88,42.56,8.23,54.44-.71,0,0-1.34-44.92-2.15-62.21-.57-12.29-3.39-18.48-15.47-19.83l-14.86.65Z" style="fill:#455a64"></path><path d="M133.32,120.13c-8.69,1.24-10,2.52-18.37,16.58-2.54,4.24-5.23,8.9-7.41,12.65-3-9.37-8.24-26-7.35-30.1.11-.48.52-1.52.83-2.33a22.7,22.7,0,0,0,1.33-6.24,20.36,20.36,0,0,1,.49-2.68,1.47,1.47,0,0,0,.07-.72.9.9,0,0,0-.44-.5,1.71,1.71,0,0,0-1.75.21c-1.22.88-1.56,2.56-2.15,3.84A1.77,1.77,0,0,1,96.89,112a2.33,2.33,0,0,1-1.35-.38c-1.6-1-1.36-3.16-1.09-4.16a5.69,5.69,0,0,1,2.45-3.08,2.07,2.07,0,0,1,1.8-.31c.85.33,1,1.33,1.69,1.81a1.15,1.15,0,0,0,1.53-.11,1.36,1.36,0,0,0,.25-.65,4.29,4.29,0,0,0-2.54-4.3,6.53,6.53,0,0,0-5.2.1A3.73,3.73,0,0,0,92.24,103c-.15-2.85-.32-4.58-.27-7.66C92,92,92.19,88,89.69,89.5,87.52,90.81,88,103.89,88,103.89A38.47,38.47,0,0,1,86.88,95c-.1-2.48.36-4.92-1.66-4.77-3.19.24-1.2,14.3-1.2,14.3-1.77-4.22-1.53-11-3.43-10.74s-1.89,3.09-1.06,10c.62,5.08,1.37,10.73,4,15.16a24.42,24.42,0,0,1,2,4.09c2,6.58,2.69,13.74,3.83,20.5,1.6,9.5,3.76,24.65,11.19,31.78a7.63,7.63,0,0,0,4.65,2.51,4.92,4.92,0,0,0,3-.69c6.89-4.8,11.8-13.53,15.13-19,3.13-5.2,5.53-8.23,7.8-12.47C136.11,136.4,135.26,125.06,133.32,120.13Z" style="fill:#965656"></path><path d="M107.54,149.36c1.6,4.62,2.9,9.56,2.17,14.8,0,0,3.67-8.65-.86-17Z" style="fill:#663838"></path><path d="M135.38,120c-8.3.11-14.1,2.64-18.75,11.42s-8.72,16.31-8.72,16.31,4,12.37,13.88,14.37l11.83-18.62S139.76,134.73,135.38,120Z" style="fill:#37474f"></path><path d="M144.51,87.11c0,9.13,7.1,16.52,15.86,16.52s13.94-7.6,15.86-16.52c3.51-16.31-7.1-16.51-15.86-16.51S144.51,78,144.51,87.11Z" style="fill:#263238"></path><path d="M136.42,93.8s2.43,11.9,3.41,13.85a5.18,5.18,0,0,0,3,2.51l-.17-8.37Z" style="fill:#263238"></path><path d="M139.48,76.74s-1.75-.43-3.6,2.46c-1.59,2.48-1.95,8.06.54,14.6l4.58.54Z" style="fill:#263238"></path><path d="M137.79,79.15l-5.62.11a2.65,2.65,0,0,1,2.56-3A3.11,3.11,0,0,1,137.79,79.15Z" style="fill:#263238"></path><path d="M137.1,77.82l-4.16-4a2.68,2.68,0,0,1,3.94-.15A3,3,0,0,1,137.1,77.82Z" style="fill:#263238"></path><path d="M142.38,94.35c-.92.57-2.23-1.27-3.36-2.5s-4.69-2.4-6.54,1.64,1.3,8.05,3.94,9.37c4.73,2.35,6.23-1.07,6.23-1.07l.38,18.85c6.67,10.31,21.87,11.66,16.33-.49v-5.74a30.19,30.19,0,0,0,6.76.36c3.69-.59,6-3.63,7.13-7.79,1.8-6.68,2.48-12.08,1-25.22-1.67-14.4-17.76-14.55-26.45-8.86S142.38,94.35,142.38,94.35Z" style="fill:#965656"></path><path d="M162.43,79.51c-3.84-.38-7.64-1.16-11.49-1.45a7.41,7.41,0,0,0-2.49.12c-3,.8-2.57,4.23-3,6.63-.81,4.12-1.48,11.12-3,11.15-.46,0-2.22-3-3.36-4.11-.74-.71-.87-2.22-1-3.16-.29-1.71-.45-3.44-.58-5.17-.11-1.46-.26-3-.26-4.42a20.36,20.36,0,0,1,.39-4.93,8.68,8.68,0,0,1,2.05-3.7l.3-.32a19.31,19.31,0,0,1,6.88-4.63A41.13,41.13,0,0,1,158.41,63c4-.41,8-.63,11.86-1.43a1.13,1.13,0,0,1,.68,0,1.1,1.1,0,0,1,.56.88,4.9,4.9,0,0,1-2,4.83c2.66.21,5.71-1.18,8.26-1.87a1.7,1.7,0,0,1,1.31,0,1.32,1.32,0,0,1,.51.75,4.74,4.74,0,0,1,.07,2.12,12.12,12.12,0,0,1-2.29,5.83,14.29,14.29,0,0,1-7.92,5.18A23,23,0,0,1,162.43,79.51Z" style="fill:#263238"></path><path d="M159.35,114.41s-8.24-1.73-11.12-3.32a9.65,9.65,0,0,1-4-4.11,13.78,13.78,0,0,0,2.26,4.84c2.11,2.81,12.84,4.87,12.84,4.87Z" style="fill:#663838"></path><path d="M157.37,92.2a1.66,1.66,0,1,1-1.65-1.79A1.73,1.73,0,0,1,157.37,92.2Z" style="fill:#263238"></path><path d="M154.72,85.08l-3.54,2a2.24,2.24,0,0,1,.83-2.92A1.93,1.93,0,0,1,154.72,85.08Z" style="fill:#263238"></path><path d="M158.6,104.08l3.77,1.47a2,2,0,0,1-2.56,1.3A2.22,2.22,0,0,1,158.6,104.08Z" style="fill:#663838"></path><path d="M172.51,86.6,169.29,84a1.9,1.9,0,0,1,2.8-.44A2.28,2.28,0,0,1,172.51,86.6Z" style="fill:#263238"></path><path d="M171.1,91.71a1.66,1.66,0,1,1-1.65-1.79A1.73,1.73,0,0,1,171.1,91.71Z" style="fill:#263238"></path><polygon points="162.26 90.33 162.45 100.76 168.37 99.4 162.26 90.33" style="fill:#663838"></polygon></g></g><g id="freepik--Table--inject-235"><g id="freepik--table--inject-235"><g id="freepik--table--inject-235"><path d="M229.58,449.45a1.43,1.43,0,0,0,.84,1.36,5,5,0,0,0,4.58,0,1.77,1.77,0,0,0,1.05-1.34h0V329l-6.47.09Z" style="fill:#455a64"></path><path d="M233.06,451.33a4.55,4.55,0,0,0,1.94-.54,1.77,1.77,0,0,0,1.05-1.34h0V329l-2.91,0Z" style="fill:#37474f"></path><path d="M230.51,330.34a5.09,5.09,0,0,0,4.58,0c1.27-.74,1.28-1.92,0-2.64a5,5,0,0,0-4.58,0C229.27,328.43,229.25,329.62,230.51,330.34Z" style="fill:#263238"></path><path d="M360.79,378a1.43,1.43,0,0,0,.84,1.36,5.09,5.09,0,0,0,4.58,0,1.77,1.77,0,0,0,1.05-1.35h0V257.44l-6.47.09Z" style="fill:#455a64"></path><path d="M364.27,379.82a4.55,4.55,0,0,0,1.94-.53,1.77,1.77,0,0,0,1.05-1.35h0V257.44l-2.9,0Z" style="fill:#37474f"></path><path d="M361.72,258.83a5,5,0,0,0,4.58,0c1.27-.73,1.28-1.92,0-2.64a5.09,5.09,0,0,0-4.58,0C360.48,256.93,360.46,258.11,361.72,258.83Z" style="fill:#263238"></path><path d="M102.84,398.39a1.45,1.45,0,0,0,.84,1.36,5,5,0,0,0,4.58,0,1.77,1.77,0,0,0,1-1.34h0V277.89l-6.47.09Z" style="fill:#455a64"></path><path d="M106.32,400.27a4.51,4.51,0,0,0,1.94-.54,1.77,1.77,0,0,0,1-1.34h0V277.89l-2.9,0Z" style="fill:#37474f"></path><path d="M103.77,279.28a5.09,5.09,0,0,0,4.58,0c1.27-.74,1.29-1.92,0-2.65a5,5,0,0,0-4.57,0C102.53,277.37,102.52,278.55,103.77,279.28Z" style="fill:#263238"></path><g id="freepik--Desk--inject-235"><path d="M89.17,278.76v-1a5.5,5.5,0,0,1,2.49-4.31l161.05-93a5.47,5.47,0,0,1,5,0l121.5,70.12a5.5,5.5,0,0,1,2.49,4.31v1a5.5,5.5,0,0,1-2.49,4.31l-161,93.05a5.53,5.53,0,0,1-5,0L91.66,283.08A5.54,5.54,0,0,1,89.17,278.76Z" style="fill:#E7B9B4"></path><g style="opacity:0.5"><path d="M89.17,278.76v-1a5.5,5.5,0,0,1,2.49-4.31l161.05-93a5.47,5.47,0,0,1,5,0l121.5,70.12a5.5,5.5,0,0,1,2.49,4.31v1a5.5,5.5,0,0,1-2.49,4.31l-161,93.05a5.53,5.53,0,0,1-5,0L91.66,283.08A5.54,5.54,0,0,1,89.17,278.76Z"></path></g><path d="M215.65,347.06v6.73a5.29,5.29,0,0,1-2.49-.59L91.67,283.08a5.49,5.49,0,0,1-2.49-4.31v-1a5.5,5.5,0,0,1,2-4c-.9.76-.75,1.84.46,2.55l121.49,70.12A5.07,5.07,0,0,0,215.65,347.06Z" style="fill:#E7B9B4"></path><g style="opacity:0.55"><path d="M215.65,347.06v6.73a5.29,5.29,0,0,1-2.49-.59L91.67,283.08a5.49,5.49,0,0,1-2.49-4.31v-1a5.49,5.49,0,0,1,2-4c-.9.76-.75,1.84.46,2.55l121.49,70.12A5.07,5.07,0,0,0,215.65,347.06Z"></path></g><path d="M91.66,276.34l121.5,70.12a5.53,5.53,0,0,0,5,0l161.05-93c1.37-.79,1.37-2.08,0-2.87l-121.5-70.12a5.47,5.47,0,0,0-5,0l-161,93C90.29,274.25,90.29,275.54,91.66,276.34Z" style="fill:#E7B9B4"></path><g style="opacity:0.4"><path d="M91.66,276.34l121.5,70.12a5.53,5.53,0,0,0,5,0l161.05-93c1.37-.79,1.37-2.08,0-2.87l-121.5-70.12a5.47,5.47,0,0,0-5,0l-161,93C90.29,274.25,90.29,275.54,91.66,276.34Z"></path></g></g></g><path d="M279.59,238.14,298.91,227a3.81,3.81,0,0,1,3.48,0l48.69,28.09a1.06,1.06,0,0,1,0,2l-19.33,11.16a3.86,3.86,0,0,1-3.47,0l-48.69-28.1A1.05,1.05,0,0,1,279.59,238.14Z" style="opacity:0.15"></path><path d="M295.92,236.72c0,3-2.44,6.39-5.44,6.39s-5.44-3.39-5.44-6.39a5.44,5.44,0,0,1,10.88,0Z" style="fill:#E7B9B4"></path><path d="M295.92,236.72c0,3-2.44,6.39-5.44,6.39s-5.44-3.39-5.44-6.39a5.44,5.44,0,0,1,10.88,0Z" style="opacity:0.6000000000000001"></path><path d="M305.67,242.35c0,3-2.44,6.39-5.44,6.39s-5.44-3.39-5.44-6.39a5.44,5.44,0,0,1,10.88,0Z" style="fill:#E7B9B4"></path><path d="M305.67,242.35c0,3-2.44,6.39-5.44,6.39s-5.44-3.39-5.44-6.39a5.44,5.44,0,0,1,10.88,0Z" style="opacity:0.6000000000000001"></path><path d="M315.42,248c0,3-2.44,6.39-5.44,6.39s-5.44-3.39-5.44-6.39a5.44,5.44,0,0,1,10.88,0Z" style="fill:#E7B9B4"></path><path d="M315.42,248c0,3-2.44,6.39-5.44,6.39s-5.44-3.39-5.44-6.39a5.44,5.44,0,0,1,10.88,0Z" style="opacity:0.6000000000000001"></path><path d="M325.17,253.61c0,3-2.44,6.4-5.44,6.4s-5.44-3.39-5.44-6.4a5.44,5.44,0,0,1,10.88,0Z" style="fill:#E7B9B4"></path><path d="M325.17,253.61c0,3-2.44,6.4-5.44,6.4s-5.44-3.39-5.44-6.4a5.44,5.44,0,0,1,10.88,0Z" style="opacity:0.6000000000000001"></path><path d="M334.92,259.26c0,3-2.44,6.39-5.44,6.39s-5.44-3.39-5.44-6.39a5.44,5.44,0,0,1,10.88,0Z" style="fill:#E7B9B4"></path><path d="M334.92,259.26c0,3-2.44,6.39-5.44,6.39s-5.44-3.39-5.44-6.39a5.44,5.44,0,0,1,10.88,0Z" style="opacity:0.6000000000000001"></path><path d="M345.68,252.94c0,3-2.44,6.39-5.44,6.39s-5.44-3.39-5.44-6.39a5.44,5.44,0,0,1,10.88,0Z" style="fill:#E7B9B4"></path><path d="M345.68,252.94c0,3-2.44,6.39-5.44,6.39s-5.44-3.39-5.44-6.39a5.44,5.44,0,0,1,10.88,0Z" style="opacity:0.6000000000000001"></path><path d="M351.79,249.66a1.21,1.21,0,0,0-.71-1l-48.69-28.09a3.81,3.81,0,0,0-3.48,0l-19.32,11.16a1.19,1.19,0,0,0-.72,1v1.88a1.22,1.22,0,0,0,.72,1l48.69,28.1a3.86,3.86,0,0,0,3.47,0l19.33-11.16a1.21,1.21,0,0,0,.71-1Z" style="fill:#E7B9B4"></path><path d="M351.79,249.66a1.21,1.21,0,0,0-.71-1l-48.69-28.09a3.81,3.81,0,0,0-3.48,0l-19.32,11.16a1.19,1.19,0,0,0-.72,1v1.88a1.22,1.22,0,0,0,.72,1l48.69,28.1a3.86,3.86,0,0,0,3.47,0l19.33-11.16a1.21,1.21,0,0,0,.71-1Z" style="opacity:0.2"></path><path d="M330,262.24v1.87a3.63,3.63,0,0,1-1.76-.41l-48.69-28.1a1.2,1.2,0,0,1-.72-1v-1.88a1.22,1.22,0,0,0,.72,1l48.69,28.1A3.61,3.61,0,0,0,330,262.24Z" style="opacity:0.1"></path><path d="M279.59,231.72l19.32-11.16a3.81,3.81,0,0,1,3.48,0l48.69,28.09a1.06,1.06,0,0,1,0,2l-19.33,11.16a3.86,3.86,0,0,1-3.47,0l-48.69-28.1A1.05,1.05,0,0,1,279.59,231.72Z" style="fill:#E7B9B4"></path><path d="M333.24,257.73c2.08-1.2,2.08-3.14,0-4.33a8.33,8.33,0,0,0-7.53,0c-2.09,1.2-2.1,3.14,0,4.33A8.33,8.33,0,0,0,333.24,257.73Z" style="opacity:0.1"></path><path d="M344,251.51c2.08-1.2,2.08-3.14,0-4.33a8.36,8.36,0,0,0-7.53,0c-2.09,1.19-2.1,3.13,0,4.33A8.36,8.36,0,0,0,344,251.51Z" style="opacity:0.1"></path><path d="M323.49,252.09c2.08-1.2,2.08-3.14,0-4.33a8.36,8.36,0,0,0-7.53,0c-2.09,1.19-2.1,3.13,0,4.33A8.36,8.36,0,0,0,323.49,252.09Z" style="opacity:0.1"></path><path d="M334.25,245.88c2.08-1.2,2.08-3.14,0-4.33a8.33,8.33,0,0,0-7.53,0c-2.09,1.2-2.1,3.14,0,4.33A8.33,8.33,0,0,0,334.25,245.88Z" style="opacity:0.1"></path><path d="M313.74,246.46c2.08-1.2,2.08-3.14,0-4.33a8.33,8.33,0,0,0-7.53,0c-2.09,1.2-2.1,3.14,0,4.33A8.33,8.33,0,0,0,313.74,246.46Z" style="opacity:0.1"></path><path d="M324.5,240.24c2.08-1.2,2.08-3.14,0-4.33a8.36,8.36,0,0,0-7.53,0c-2.09,1.19-2.1,3.13,0,4.33A8.36,8.36,0,0,0,324.5,240.24Z" style="opacity:0.1"></path><path d="M304,240.82c2.08-1.2,2.08-3.14,0-4.33a8.36,8.36,0,0,0-7.53,0c-2.09,1.19-2.1,3.13,0,4.33A8.36,8.36,0,0,0,304,240.82Z" style="opacity:0.1"></path><path d="M314.75,234.61c2.08-1.2,2.08-3.14,0-4.33a8.33,8.33,0,0,0-7.53,0c-2.09,1.2-2.1,3.14,0,4.33A8.33,8.33,0,0,0,314.75,234.61Z" style="opacity:0.1"></path><path d="M294.24,235.19c2.08-1.2,2.08-3.14,0-4.33a8.33,8.33,0,0,0-7.53,0c-2.09,1.2-2.1,3.14,0,4.33A8.33,8.33,0,0,0,294.24,235.19Z" style="opacity:0.1"></path><path d="M305,229c2.08-1.2,2.08-3.14,0-4.33a8.36,8.36,0,0,0-7.53,0c-2.09,1.19-2.1,3.13,0,4.33A8.36,8.36,0,0,0,305,229Z" style="opacity:0.1"></path><path d="M345.29,249.26a2.09,2.09,0,0,1,0,.25,4.52,4.52,0,0,1-.17,1.05,3.53,3.53,0,0,1-1.11.95,8.36,8.36,0,0,1-7.53,0,3.72,3.72,0,0,1-1.1-.93,4.88,4.88,0,0,1-.18-1.08c0-.08,0-.17,0-.25s0-.18,0-.26,0-.45,0-.67a10.16,10.16,0,0,1,2.91-6.22,3,3,0,0,1,4.19,0,10,10,0,0,1,2.9,6.17c0,.24,0,.48,0,.72A2.17,2.17,0,0,1,345.29,249.26Z" style="fill:#fffffa"></path><path d="M335.54,243.61a2.17,2.17,0,0,1,0,.26,4.61,4.61,0,0,1-.17,1,3.53,3.53,0,0,1-1.11,1,8.36,8.36,0,0,1-7.53,0,3.72,3.72,0,0,1-1.1-.93,4.88,4.88,0,0,1-.18-1.08c0-.08,0-.17,0-.26s0-.17,0-.25c0-.23,0-.45,0-.67a10.16,10.16,0,0,1,2.91-6.22,3,3,0,0,1,4.19,0,10,10,0,0,1,2.9,6.17c0,.24,0,.48,0,.72A2.09,2.09,0,0,1,335.54,243.61Z" style="fill:#fffffa"></path><path d="M334.53,255.47a2.17,2.17,0,0,1,0,.26,4.61,4.61,0,0,1-.17,1,3.65,3.65,0,0,1-1.11.94,8.29,8.29,0,0,1-7.53,0,3.45,3.45,0,0,1-1.1-.93,4.69,4.69,0,0,1-.18-1.07c0-.08,0-.17,0-.26s0-.18,0-.26,0-.44,0-.66a10.13,10.13,0,0,1,2.91-6.22,3,3,0,0,1,4.19,0,10,10,0,0,1,2.9,6.16c0,.24,0,.48,0,.72A2.17,2.17,0,0,1,334.53,255.47Z" style="fill:#fffffa"></path><path d="M324.78,249.83a2.17,2.17,0,0,1,0,.26,4.61,4.61,0,0,1-.17,1,3.65,3.65,0,0,1-1.11.94,8.29,8.29,0,0,1-7.53,0,3.45,3.45,0,0,1-1.1-.93,4.69,4.69,0,0,1-.18-1.07c0-.08,0-.17,0-.26s0-.18,0-.26,0-.45,0-.66a10.19,10.19,0,0,1,2.91-6.23,3,3,0,0,1,4.19,0,10,10,0,0,1,2.9,6.17c0,.24,0,.48,0,.72A2.17,2.17,0,0,1,324.78,249.83Z" style="fill:#fffffa"></path><path d="M325.79,238a2.17,2.17,0,0,1,0,.26,4.61,4.61,0,0,1-.17,1.05,3.53,3.53,0,0,1-1.11.95,8.33,8.33,0,0,1-7.53,0,3.45,3.45,0,0,1-1.1-.93,4.69,4.69,0,0,1-.18-1.07c0-.08,0-.17,0-.26s0-.17,0-.25,0-.45,0-.67a10.16,10.16,0,0,1,2.91-6.22,3,3,0,0,1,4.19,0,10,10,0,0,1,2.9,6.17c0,.24,0,.48,0,.72A2.09,2.09,0,0,1,325.79,238Z" style="fill:#fffffa"></path><path d="M316,232.33a2.17,2.17,0,0,1,0,.26,4.61,4.61,0,0,1-.17,1,3.67,3.67,0,0,1-1.11,1,8.33,8.33,0,0,1-7.53,0,3.45,3.45,0,0,1-1.1-.93,4.69,4.69,0,0,1-.18-1.07c0-.08,0-.17,0-.26s0-.17,0-.25c0-.23,0-.45,0-.67a10.16,10.16,0,0,1,2.91-6.22,3,3,0,0,1,4.19,0,10,10,0,0,1,2.9,6.16c0,.24,0,.49,0,.73A2,2,0,0,1,316,232.33Z" style="fill:#fffffa"></path><path d="M187.7,261.85l38.65,22.31a8.39,8.39,0,0,0,7.59,0l42.22-24.38c2.09-1.21,2.09-3.17,0-4.38L237.5,233.1a8.37,8.37,0,0,0-7.58,0L187.7,257.47C185.6,258.68,185.6,260.64,187.7,261.85Z" style="opacity:0.15"></path><path d="M277.72,251.44a2.69,2.69,0,0,0-1.56-2.14L237.5,227a8.43,8.43,0,0,0-7.58,0L187.7,251.37a2.63,2.63,0,0,0-1.56,2.19c0,.74,0,3.4,0,4.14a2.64,2.64,0,0,0,1.56,2.16l38.65,22.31a8.39,8.39,0,0,0,7.59,0l42.22-24.38a2.63,2.63,0,0,0,1.56-2.19C277.71,254.87,277.73,252.19,277.72,251.44Z" style="fill:#E7B9B4"></path><path d="M277.72,251.44a2.69,2.69,0,0,0-1.56-2.14L237.5,227a8.43,8.43,0,0,0-7.58,0L187.7,251.37a2.63,2.63,0,0,0-1.56,2.19c0,.74,0,3.4,0,4.14a2.64,2.64,0,0,0,1.56,2.16l38.65,22.31a8.39,8.39,0,0,0,7.59,0l42.22-24.38a2.63,2.63,0,0,0,1.56-2.19C277.71,254.87,277.73,252.19,277.72,251.44Z" style="fill:#fff;opacity:0.65"></path><path d="M187.7,255.75l38.65,22.31a8.39,8.39,0,0,0,7.59,0l42.22-24.38c2.09-1.21,2.09-3.17,0-4.38L237.5,227a8.43,8.43,0,0,0-7.58,0L187.7,251.37C185.6,252.58,185.6,254.54,187.7,255.75Z" style="fill:#E7B9B4"></path><path d="M187.7,255.75l38.65,22.31a8.39,8.39,0,0,0,7.59,0l42.22-24.38c2.09-1.21,2.09-3.17,0-4.38L237.5,227a8.43,8.43,0,0,0-7.58,0L187.7,251.37C185.6,252.58,185.6,254.54,187.7,255.75Z" style="fill:#fff;opacity:0.8"></path><path d="M230.15,279v4.11a7.82,7.82,0,0,1-3.8-.91l-38.66-22.31a2.65,2.65,0,0,1-1.56-2.16c0-.72,0-3.2,0-4a2.71,2.71,0,0,0,1.56,2.09l38.66,22.31A7.82,7.82,0,0,0,230.15,279Z" style="fill:#E7B9B4"></path><path d="M230.15,279v4.11a7.82,7.82,0,0,1-3.8-.91l-38.66-22.31a2.65,2.65,0,0,1-1.56-2.16c0-.72,0-3.2,0-4a2.71,2.71,0,0,0,1.56,2.09l38.66,22.31A7.82,7.82,0,0,0,230.15,279Z" style="fill:#fff;opacity:0.5"></path><path d="M207.19,237c-12.95,7.48-12.95,19.6,0,27.08s34,7.48,46.91,0,13-19.6,0-27.08S220.15,229.49,207.19,237Z" style="opacity:0.15"></path><path d="M258.61,225.67a.88.88,0,0,1-.44-1.64l3.55-2.05c.63-.36,1-.8,1-1.24s-.44-1.05-1.2-1.49l-6.65-3.84a7.26,7.26,0,0,0-6.47-.13l-3.56,2.05a.87.87,0,1,1-.87-1.51l3.55-2.06a9,9,0,0,1,8.23.14l6.65,3.83a3.65,3.65,0,0,1,2.08,3,3.22,3.22,0,0,1-1.85,2.75L259,225.55A.88.88,0,0,1,258.61,225.67Z" style="fill:#e0e0e0"></path><path d="M262.16,229.27c0-4.65-3.07-9.31-9.23-12.86-12.3-7.11-32.26-7.11-44.57,0-6.15,3.55-9.22,8.21-9.22,12.86v20.46c0,4.66,3.07,9.31,9.22,12.86,12.31,7.11,32.26,7.11,44.57,0,6.16-3.56,9.23-8.21,9.23-12.87Z" style="fill:#263238"></path><path d="M208.36,216.41c-12.3,7.1-12.3,18.62,0,25.73s32.26,7.11,44.57,0,12.31-18.62,0-25.73S220.67,209.3,208.36,216.41Z" style="fill:#37474f"></path><path d="M210.2,218c-11.29,6.25-11.29,16.4,0,22.65s29.6,6.26,40.9,0,11.29-16.4,0-22.65S221.49,211.69,210.2,218Z" style="fill:#263238"></path><path d="M251.1,225.79c-11.3-6.26-29.61-6.26-40.9,0-3.83,2.12-6.36,4.69-7.59,7.4,1.23,2.72,3.76,5.29,7.59,7.41,11.29,6.26,29.6,6.26,40.9,0,3.83-2.12,6.36-4.69,7.59-7.41C257.46,230.48,254.93,227.91,251.1,225.79Z" style="fill:#E7B9B4"></path><path d="M208.89,253.21a8.81,8.81,0,0,1-4.32-1.07l-6.65-3.84a3.63,3.63,0,0,1-2.07-3,3.26,3.26,0,0,1,1.86-2.77l3.58-2.07a.88.88,0,1,1,.88,1.52l-3.58,2.07c-.64.36-1,.81-1,1.25s.44,1,1.2,1.49l6.64,3.83a7.29,7.29,0,0,0,6.48.14l3.56-2a.87.87,0,1,1,.87,1.51l-3.56,2.06A8,8,0,0,1,208.89,253.21Z" style="fill:#e0e0e0"></path><path d="M206.32,233.63a30.74,30.74,0,0,1,6-22.06c2.7-3.47,10-6.2,14.23-7.32,3.38-.9,7.8-2,9.62-5.49a6.61,6.61,0,0,0,.68-3.09,13,13,0,0,0-2.23-6.94c-2.66-4.17-8.19-7.58-6.09-13.25,1-2.65,3.5-5.22,6.54-5a7.4,7.4,0,0,1,2,.41,5.57,5.57,0,0,1,2.57,2c-1.45-.55-5.07-1.52-6.69,2.58s6,8.86,9,11c3.34,2.45,6.72,5.33,8,9.4,1.13,3.57.08,7.27-1.69,10.44s-3,6.37-2.16,10.31c.72,3.51,2.8,5.93,5.15,8.47s4.48,5.19,4.48,8.87C248.29,245.83,212,246.63,206.32,233.63Z" style="fill:#e0e0e0;opacity:0.5"></path><path d="M138.21,264.94c-4.19,2.41-4.19,6.33,0,8.75a16.8,16.8,0,0,0,15.16,0c4.19-2.42,4.19-6.34,0-8.75A16.74,16.74,0,0,0,138.21,264.94Z" style="opacity:0.15"></path><path d="M151.56,271.25a11.27,11.27,0,0,0,5-10.17,8.48,8.48,0,0,0-5-6.74h0a13.82,13.82,0,0,0-11.43,0h0a8.47,8.47,0,0,0-5,6.74,11.28,11.28,0,0,0,5,10.19l.05,0c.15.11.31.21.47.31a11.61,11.61,0,0,0,10.46,0l.07-.05.37-.24Z" style="fill:#E7B9B4"></path><path d="M156.53,261.08a7.18,7.18,0,0,0-.14-.85,7.67,7.67,0,0,0-6.12,5,10.38,10.38,0,0,0-.22,6.84,9.57,9.57,0,0,0,1-.45l.07-.05.37-.24.1-.07A11.27,11.27,0,0,0,156.53,261.08Z" style="opacity:0.1"></path><path d="M153,261.42a.28.28,0,0,0,.11-.13c.91-1.68-.24-4.14-1.71-5.12a4.06,4.06,0,0,1,2.6.19,4.41,4.41,0,0,0,.58.28,10.23,10.23,0,0,0-3.09-2.3h0a10.62,10.62,0,0,0-2-.75h0a3.38,3.38,0,0,1-.45,0,1.53,1.53,0,0,1-.59-.24,14.11,14.11,0,0,0-3.68-.21,1.68,1.68,0,0,1-.37.21l-.05,0a1.94,1.94,0,0,1-.68,0l-.51-.05a11.31,11.31,0,0,0-3.09,1h0a11.87,11.87,0,0,0-1.71,1h.17a7,7,0,0,1,3.51.37,7.65,7.65,0,0,0-2.47,2.36A6,6,0,0,0,139,260c-.05.32.05.9.51.8a1.07,1.07,0,0,0,.45-.31,11.81,11.81,0,0,1,3.61-2.34,1,1,0,0,1,.67-.1c.39.13.28.92.33,1.24.08.58.18,1.16.29,1.73s.25,2.54,1.31,1.95a1.59,1.59,0,0,0,.53-.59A9.14,9.14,0,0,0,147.9,258a1.41,1.41,0,0,1,.63.17,13.7,13.7,0,0,1,1.79,1,7.11,7.11,0,0,1,2.31,2C152.72,261.33,152.87,261.5,153,261.42Z" style="opacity:0.1"></path><path d="M144.4,252.92l-.05,0a1.56,1.56,0,0,1-.68,0,9.86,9.86,0,0,0-2.87,0,5.24,5.24,0,0,0-1.69.71c-.23.14-1.47,1-.94,1.24a.63.63,0,0,0,.36,0,7.15,7.15,0,0,1,3.51.37,7.57,7.57,0,0,0-2.47,2.37,6,6,0,0,0-.6,1.85c-.05.32.05.9.51.79a1.05,1.05,0,0,0,.45-.3,11.84,11.84,0,0,1,3.61-2.35.93.93,0,0,1,.67-.09c.39.13.28.91.33,1.24.08.58.18,1.15.29,1.73s.25,2.54,1.31,1.95a1.62,1.62,0,0,0,.53-.6,9.08,9.08,0,0,0,1.23-4.37,1.4,1.4,0,0,1,.63.16,15,15,0,0,1,1.79,1,7,7,0,0,1,2.31,2c.09.13.24.3.38.22a.24.24,0,0,0,.11-.13c.91-1.68-.24-4.13-1.71-5.12a4.06,4.06,0,0,1,2.6.2,2.65,2.65,0,0,0,.76.31.27.27,0,0,0,.31-.11.3.3,0,0,0,0-.13,1.81,1.81,0,0,0-.44-1,5.54,5.54,0,0,0-2.35-1.54,7.08,7.08,0,0,0-2.82-.29,1.7,1.7,0,0,1-.45,0,2.46,2.46,0,0,1-1.08-.6,2.34,2.34,0,0,0-1.2-.44,2.9,2.9,0,0,0-1.85.5A3,3,0,0,1,144.4,252.92Z" style="fill:#E7B9B4"></path><path d="M144.4,252.92l-.05,0a1.56,1.56,0,0,1-.68,0,9.86,9.86,0,0,0-2.87,0,5.24,5.24,0,0,0-1.69.71c-.23.14-1.47,1-.94,1.24a.63.63,0,0,0,.36,0,7.15,7.15,0,0,1,3.51.37,7.57,7.57,0,0,0-2.47,2.37,6,6,0,0,0-.6,1.85c-.05.32.05.9.51.79a1.05,1.05,0,0,0,.45-.3,11.84,11.84,0,0,1,3.61-2.35.93.93,0,0,1,.67-.09c.39.13.28.91.33,1.24.08.58.18,1.15.29,1.73s.25,2.54,1.31,1.95a1.62,1.62,0,0,0,.53-.6,9.08,9.08,0,0,0,1.23-4.37,1.4,1.4,0,0,1,.63.16,15,15,0,0,1,1.79,1,7,7,0,0,1,2.31,2c.09.13.24.3.38.22a.24.24,0,0,0,.11-.13c.91-1.68-.24-4.13-1.71-5.12a4.06,4.06,0,0,1,2.6.2,2.65,2.65,0,0,0,.76.31.27.27,0,0,0,.31-.11.3.3,0,0,0,0-.13,1.81,1.81,0,0,0-.44-1,5.54,5.54,0,0,0-2.35-1.54,7.08,7.08,0,0,0-2.82-.29,1.7,1.7,0,0,1-.45,0,2.46,2.46,0,0,1-1.08-.6,2.34,2.34,0,0,0-1.2-.44,2.9,2.9,0,0,0-1.85.5A3,3,0,0,1,144.4,252.92Z" style="opacity:0.5"></path><path d="M147.9,256.07a10,10,0,0,1,0,1.47,1.4,1.4,0,0,1,.63.16,15,15,0,0,1,1.79,1,7,7,0,0,1,2.31,2C152.87,258.8,147.84,255.74,147.9,256.07Z" style="opacity:0.15"></path><path d="M144.39,256c-.62,0-4,2.54-4.46,4a11.84,11.84,0,0,1,3.61-2.35.93.93,0,0,1,.67-.09c.14,0,.21.17.26.34h0C144.45,256.62,144.71,256,144.39,256Z" style="opacity:0.15"></path><path d="M152.92,272.51c-4.19,2.42-4.19,6.34,0,8.75a16.74,16.74,0,0,0,15.16,0c4.18-2.41,4.18-6.33,0-8.75A16.8,16.8,0,0,0,152.92,272.51Z" style="opacity:0.15"></path><path d="M163.06,280.48a11.27,11.27,0,0,0,9-6.87,8.47,8.47,0,0,0-1.48-8.27h0a13.73,13.73,0,0,0-10.22-5.12h0a8.49,8.49,0,0,0-7.51,3.78,11.26,11.26,0,0,0-.1,11.34l0,.05a4.85,4.85,0,0,0,.29.49,11.54,11.54,0,0,0,9.34,4.68h.09l.44-.05Z" style="fill:#E7B9B4"></path><path d="M168.76,272.34a.26.26,0,0,0,.16-.07c1.56-1.09,1.63-3.8.76-5.34a4.12,4.12,0,0,1,2.24,1.34,3.73,3.73,0,0,0,.39.5,10.35,10.35,0,0,0-1.73-3.43h0a10.24,10.24,0,0,0-1.41-1.55l0,0a1.9,1.9,0,0,1-.4-.21,1.47,1.47,0,0,1-.42-.48,14.83,14.83,0,0,0-3.19-1.83,1.57,1.57,0,0,1-.43,0h-.06A1.78,1.78,0,0,1,164,261l-.44-.27a11.38,11.38,0,0,0-3.21-.49h0a11.37,11.37,0,0,0-2,.17l.16.08a7.07,7.07,0,0,1,3,1.9,7.55,7.55,0,0,0-3.27,1,5.75,5.75,0,0,0-1.36,1.38c-.19.27-.36.83.1.94a1.12,1.12,0,0,0,.54-.07,11.86,11.86,0,0,1,4.27-.48,1,1,0,0,1,.65.21c.29.29-.16.95-.26,1.26-.19.56-.36,1.11-.52,1.67s-.91,2.39.3,2.34a1.49,1.49,0,0,0,.74-.3,9.07,9.07,0,0,0,3.06-3.36,1.44,1.44,0,0,1,.49.43,15,15,0,0,1,1.15,1.71,7.1,7.1,0,0,1,1.15,2.86C168.54,272.13,168.6,272.35,168.76,272.34Z" style="opacity:0.1"></path><path d="M164.86,260.89h-.06a1.87,1.87,0,0,1-.61-.28,9.17,9.17,0,0,0-2.56-1.28,5.42,5.42,0,0,0-1.84-.14c-.27,0-1.76.25-1.39.7a.79.79,0,0,0,.31.2,7.13,7.13,0,0,1,3,1.9,7.55,7.55,0,0,0-3.27,1,5.75,5.75,0,0,0-1.36,1.38c-.19.27-.37.83.09.94a1.11,1.11,0,0,0,.54-.07,11.91,11.91,0,0,1,4.28-.48,1,1,0,0,1,.65.22c.28.28-.16.94-.27,1.25-.18.56-.35,1.11-.51,1.67s-.92,2.39.3,2.34a1.49,1.49,0,0,0,.74-.3,9.15,9.15,0,0,0,3.06-3.36,1.44,1.44,0,0,1,.49.43,15,15,0,0,1,1.14,1.71,7.27,7.27,0,0,1,1.16,2.86c0,.16.07.38.23.37a.31.31,0,0,0,.16-.06c1.57-1.1,1.64-3.81.76-5.35a4.08,4.08,0,0,1,2.24,1.34,2.89,2.89,0,0,0,.53.62c.1.07.25.12.34,0a.41.41,0,0,0,.07-.11,1.76,1.76,0,0,0,0-1.09,5.67,5.67,0,0,0-1.4-2.43,7.2,7.2,0,0,0-2.4-1.52,1.9,1.9,0,0,1-.4-.21,2.57,2.57,0,0,1-.69-1,2.36,2.36,0,0,0-.87-.93,2.9,2.9,0,0,0-1.89-.38A2.93,2.93,0,0,1,164.86,260.89Z" style="fill:#E7B9B4"></path><path d="M164.86,260.89h-.06a1.87,1.87,0,0,1-.61-.28,9.17,9.17,0,0,0-2.56-1.28,5.42,5.42,0,0,0-1.84-.14c-.27,0-1.76.25-1.39.7a.79.79,0,0,0,.31.2,7.13,7.13,0,0,1,3,1.9,7.55,7.55,0,0,0-3.27,1,5.75,5.75,0,0,0-1.36,1.38c-.19.27-.37.83.09.94a1.11,1.11,0,0,0,.54-.07,11.91,11.91,0,0,1,4.28-.48,1,1,0,0,1,.65.22c.28.28-.16.94-.27,1.25-.18.56-.35,1.11-.51,1.67s-.92,2.39.3,2.34a1.49,1.49,0,0,0,.74-.3,9.15,9.15,0,0,0,3.06-3.36,1.44,1.44,0,0,1,.49.43,15,15,0,0,1,1.14,1.71,7.27,7.27,0,0,1,1.16,2.86c0,.16.07.38.23.37a.31.31,0,0,0,.16-.06c1.57-1.1,1.64-3.81.76-5.35a4.08,4.08,0,0,1,2.24,1.34,2.89,2.89,0,0,0,.53.62c.1.07.25.12.34,0a.41.41,0,0,0,.07-.11,1.76,1.76,0,0,0,0-1.09,5.67,5.67,0,0,0-1.4-2.43,7.2,7.2,0,0,0-2.4-1.52,1.9,1.9,0,0,1-.4-.21,2.57,2.57,0,0,1-.69-1,2.36,2.36,0,0,0-.87-.93,2.9,2.9,0,0,0-1.89-.38A2.93,2.93,0,0,1,164.86,260.89Z" style="opacity:0.5"></path><path d="M166.58,265.27a10.49,10.49,0,0,1-.65,1.31,1.44,1.44,0,0,1,.49.43,15,15,0,0,1,1.14,1.71,7.27,7.27,0,0,1,1.16,2.86C169.81,269.94,166.68,265,166.58,265.27Z" style="opacity:0.15"></path><path d="M163.46,263.66c-.55-.28-4.68.49-5.78,1.58a11.91,11.91,0,0,1,4.28-.48,1,1,0,0,1,.65.22.42.42,0,0,1,.07.41h0C163.25,264.21,163.75,263.8,163.46,263.66Z" style="opacity:0.15"></path><path d="M261.89,295.58c.06-.79.8-1.39.9-2.18.14-1.08-1.07-1.95-2.16-1.88a6.23,6.23,0,0,0-2.88,1.32c-1.05-2-2.65-3.7-4.8-1.44a8.71,8.71,0,0,0-1.63,3.12,1.22,1.22,0,0,0-1.57-.72,2.27,2.27,0,0,0-1.26,1.41,4,4,0,0,0,0,2.68,1.66,1.66,0,0,0-2.51-.14,3.37,3.37,0,0,0-.78,2.69c-.53-.83-1.9-.55-2.48.24a5.68,5.68,0,0,0-.73,2.81,3.34,3.34,0,0,1-1.23,2.55l-.06.08a63.92,63.92,0,0,1-13.78,2.57c-1.24.12-2.49.21-3.75.26a1.2,1.2,0,0,0-.1-1.49,5.56,5.56,0,0,0,3.43.82,2.16,2.16,0,0,0,1.82-2.58,7.75,7.75,0,0,0,3,.27,2.59,2.59,0,0,0,2.16-1.88,5.72,5.72,0,0,1,.17-1c.24-.61,1-.89,1.27-1.49a1.63,1.63,0,0,0-1.23-2.06,5.32,5.32,0,0,0-2.62.31c-.32-1.85-1.15-3.62-3.44-2.39a7.26,7.26,0,0,0-2.11,2.06,1,1,0,0,0-1.06-1,1.88,1.88,0,0,0-1.36.8,3.32,3.32,0,0,0-.7,2.12,1.38,1.38,0,0,0-1.95-.76,2.81,2.81,0,0,0-1.32,1.93c-.21-.79-1.37-.93-2-.45a4.76,4.76,0,0,0-1.31,2,3.88,3.88,0,0,1-.9,1.31,50,50,0,0,1-12.19-1.28,57.18,57.18,0,0,1-8.13-2.41,27.85,27.85,0,0,1-6.28-8c-.28-.55-1.32-.11-1.21.47a12.78,12.78,0,0,0,2.47,5.26,28.3,28.3,0,0,1-8.31-6.68c-.39-.47-1.31.19-1.07.72,2,4.43,6.31,6.71,10.45,8.7.9.44,1.84.84,2.8,1.21.64.54,1.29,1.07,1.93,1.58a55.78,55.78,0,0,0,10.12,6.15,45.31,45.31,0,0,0,12,4.05l.61.1c.91,1.44,2.19,3.25,3.11,2.87l.09-.71a4.36,4.36,0,0,0,2.1,1.54,2.38,2.38,0,0,0,1.94-.06,1.27,1.27,0,0,0,.51-1.71,5.55,5.55,0,0,0,3.17,1.56c1.2.05,2.49-.92,2.34-2.11a7.7,7.7,0,0,0,2.89.92,2.58,2.58,0,0,0,2.52-1.35,5,5,0,0,1,.39-.95c.37-.55,1.16-.66,1.57-1.18a1.63,1.63,0,0,0-.74-2.28,5.35,5.35,0,0,0-2.63-.28,5.21,5.21,0,0,0-.25-2.13,47.51,47.51,0,0,0,6.51-1.93l.68-.27c1.82.91,4.25,2,5,1l-.34-.78a5.35,5.35,0,0,0,3.11.29,2.88,2.88,0,0,0,2-1.26,1.52,1.52,0,0,0-.53-2.07,6.67,6.67,0,0,0,4.22-.33c1.26-.69,2-2.49,1.11-3.62a9.08,9.08,0,0,0,3.54-.82,3.1,3.1,0,0,0,1.76-2.94A6.34,6.34,0,0,1,261.89,295.58Zm-35.2,15.17a2.38,2.38,0,0,0-.15.52,1,1,0,0,0-.13-.5Zm-3.07.14a5.28,5.28,0,0,0-.53.8.94.94,0,0,0-.54-.8ZM218.69,309c0-.09,0-.18,0-.28a4.17,4.17,0,0,0,.4.3Zm-4.24-1.64.62,0a17,17,0,0,0,1.81,1.6,44.1,44.1,0,0,1-11.2-2.11A42.13,42.13,0,0,0,214.45,307.33Zm-12.54-.21a40.5,40.5,0,0,0,10.87,3,81.89,81.89,0,0,0,8.32.75,5.15,5.15,0,0,0-1.62,1.63,4,4,0,0,1-1.16,1.08,50.17,50.17,0,0,1-11.61-3.94C205.1,308.88,203.48,308,201.91,307.12Z" style="opacity:0.15"></path><path d="M240.75,303.68a3.34,3.34,0,0,0,1.23-2.55,5.67,5.67,0,0,1,.73-2.8c.58-.79,1.95-1.07,2.48-.25a3.38,3.38,0,0,1,.78-2.69,1.67,1.67,0,0,1,2.51.15,4,4,0,0,1,0-2.68,2.24,2.24,0,0,1,1.26-1.41,1.22,1.22,0,0,1,1.57.72A8.67,8.67,0,0,1,253,289c2.15-2.25,3.75-.54,4.8,1.45a6.35,6.35,0,0,1,2.88-1.33c1.09-.06,2.3.81,2.16,1.89-.1.78-.84,1.38-.9,2.17a6.44,6.44,0,0,0,.19,1.22,3.11,3.11,0,0,1-1.76,2.94,9.26,9.26,0,0,1-3.54.82c.89,1.13.15,2.93-1.11,3.61a6.6,6.6,0,0,1-4.22.33,1.54,1.54,0,0,1,.53,2.08,2.87,2.87,0,0,1-2,1.25,5.26,5.26,0,0,1-3.11-.29l.34.78c-1,1.34-5.42-1.34-6.73-1.93" style="fill:#E7B9B4"></path><path d="M240.75,303.68a3.34,3.34,0,0,0,1.23-2.55,5.67,5.67,0,0,1,.73-2.8c.58-.79,1.95-1.07,2.48-.25a3.38,3.38,0,0,1,.78-2.69,1.67,1.67,0,0,1,2.51.15,4,4,0,0,1,0-2.68,2.24,2.24,0,0,1,1.26-1.41,1.22,1.22,0,0,1,1.57.72A8.67,8.67,0,0,1,253,289c2.15-2.25,3.75-.54,4.8,1.45a6.35,6.35,0,0,1,2.88-1.33c1.09-.06,2.3.81,2.16,1.89-.1.78-.84,1.38-.9,2.17a6.44,6.44,0,0,0,.19,1.22,3.11,3.11,0,0,1-1.76,2.94,9.26,9.26,0,0,1-3.54.82c.89,1.13.15,2.93-1.11,3.61a6.6,6.6,0,0,1-4.22.33,1.54,1.54,0,0,1,.53,2.08,2.87,2.87,0,0,1-2,1.25,5.26,5.26,0,0,1-3.11-.29l.34.78c-1,1.34-5.42-1.34-6.73-1.93" style="opacity:0.25"></path><path d="M256,294.52a41.59,41.59,0,0,1-14.24,8.89,60.8,60.8,0,0,1-14.84,2.92c-9.71.95-20.11,0-28.48-5.31-.63-.39-1.52.8-1,1.22,3.88,2.9,9.86,4.8,15.31,5.53a64.35,64.35,0,0,0,14,.62,54.51,54.51,0,0,0,14.83-3.2c5.2-2,11.91-5.5,14.88-10.52C256.66,294.39,256.13,294.37,256,294.52Z" style="fill:#E7B9B4"></path><path d="M256,294.52a41.59,41.59,0,0,1-14.24,8.89,60.8,60.8,0,0,1-14.84,2.92c-9.71.95-20.11,0-28.48-5.31-.63-.39-1.52.8-1,1.22,3.88,2.9,9.86,4.8,15.31,5.53a64.35,64.35,0,0,0,14,.62,54.51,54.51,0,0,0,14.83-3.2c5.2-2,11.91-5.5,14.88-10.52C256.66,294.39,256.13,294.37,256,294.52Z" style="opacity:0.1"></path><path d="M214.16,303.55a2.74,2.74,0,0,0,1.64-1.7,4.7,4.7,0,0,1,1.31-2c.66-.48,1.82-.34,2,.45a2.85,2.85,0,0,1,1.32-1.94,1.39,1.39,0,0,1,1.95.76,3.32,3.32,0,0,1,.7-2.12,1.9,1.9,0,0,1,1.36-.79,1,1,0,0,1,1.06,1,7.26,7.26,0,0,1,2.11-2.06c2.29-1.23,3.12.53,3.44,2.39a5.21,5.21,0,0,1,2.62-.31,1.63,1.63,0,0,1,1.23,2.06c-.28.59-1,.88-1.27,1.49a5.76,5.76,0,0,0-.17,1,2.58,2.58,0,0,1-2.16,1.88,7.74,7.74,0,0,1-3-.26c.41,1.12-.64,2.36-1.82,2.58a5.51,5.51,0,0,1-3.43-.83,1.27,1.27,0,0,1-.12,1.78,2.36,2.36,0,0,1-1.88.49,4.41,4.41,0,0,1-2.39-1l.06.71c-1.13.8-3.95-2.48-4.84-3.28" style="fill:#E7B9B4"></path><path d="M214.16,303.55a2.74,2.74,0,0,0,1.64-1.7,4.7,4.7,0,0,1,1.31-2c.66-.48,1.82-.34,2,.45a2.85,2.85,0,0,1,1.32-1.94,1.39,1.39,0,0,1,1.95.76,3.32,3.32,0,0,1,.7-2.12,1.9,1.9,0,0,1,1.36-.79,1,1,0,0,1,1.06,1,7.26,7.26,0,0,1,2.11-2.06c2.29-1.23,3.12.53,3.44,2.39a5.21,5.21,0,0,1,2.62-.31,1.63,1.63,0,0,1,1.23,2.06c-.28.59-1,.88-1.27,1.49a5.76,5.76,0,0,0-.17,1,2.58,2.58,0,0,1-2.16,1.88,7.74,7.74,0,0,1-3-.26c.41,1.12-.64,2.36-1.82,2.58a5.51,5.51,0,0,1-3.43-.83,1.27,1.27,0,0,1-.12,1.78,2.36,2.36,0,0,1-1.88.49,4.41,4.41,0,0,1-2.39-1l.06.71c-1.13.8-3.95-2.48-4.84-3.28" style="opacity:0.25"></path><path d="M228.63,300.22c-3.79,2-9.3,2.78-13.52,2.93a49.64,49.64,0,0,1-12.39-1.27c-8-1.76-16.19-5-21.47-11.39-.39-.47-1.31.19-1.07.72,2,4.42,6.31,6.71,10.45,8.7a55.12,55.12,0,0,0,11.23,3.76,45.28,45.28,0,0,0,12.59,1.3c4.65-.22,10.89-1.28,14.54-4.5C229.2,300.29,228.79,300.14,228.63,300.22Z" style="fill:#E7B9B4"></path><path d="M217.51,311.45a2.78,2.78,0,0,0,2-1.3,4.85,4.85,0,0,1,1.73-1.7c.75-.32,1.85.07,1.88.88a2.79,2.79,0,0,1,1.71-1.59,1.39,1.39,0,0,1,1.74,1.17,3.34,3.34,0,0,1,1.15-1.91,1.91,1.91,0,0,1,1.5-.48,1,1,0,0,1,.82,1.19,7.28,7.28,0,0,1,2.51-1.54c2.51-.7,2.93,1.21,2.83,3.09a5.35,5.35,0,0,1,2.63.28,1.63,1.63,0,0,1,.74,2.28c-.41.52-1.2.63-1.57,1.17a5.27,5.27,0,0,0-.39.95,2.59,2.59,0,0,1-2.52,1.36,7.54,7.54,0,0,1-2.89-.93c.15,1.19-1.14,2.17-2.34,2.12a5.56,5.56,0,0,1-3.17-1.57,1.26,1.26,0,0,1-.51,1.71,2.38,2.38,0,0,1-1.94.07,4.43,4.43,0,0,1-2.1-1.54l-.09.71c-1.29.53-3.31-3.29-4-4.27" style="fill:#E7B9B4"></path><path d="M217.51,311.45a2.78,2.78,0,0,0,2-1.3,4.85,4.85,0,0,1,1.73-1.7c.75-.32,1.85.07,1.88.88a2.79,2.79,0,0,1,1.71-1.59,1.39,1.39,0,0,1,1.74,1.17,3.34,3.34,0,0,1,1.15-1.91,1.91,1.91,0,0,1,1.5-.48,1,1,0,0,1,.82,1.19,7.28,7.28,0,0,1,2.51-1.54c2.51-.7,2.93,1.21,2.83,3.09a5.35,5.35,0,0,1,2.63.28,1.63,1.63,0,0,1,.74,2.28c-.41.52-1.2.63-1.57,1.17a5.27,5.27,0,0,0-.39.95,2.59,2.59,0,0,1-2.52,1.36,7.54,7.54,0,0,1-2.89-.93c.15,1.19-1.14,2.17-2.34,2.12a5.56,5.56,0,0,1-3.17-1.57,1.26,1.26,0,0,1-.51,1.71,2.38,2.38,0,0,1-1.94.07,4.43,4.43,0,0,1-2.1-1.54l-.09.71c-1.29.53-3.31-3.29-4-4.27" style="opacity:0.25"></path><path d="M232.36,311.4c-4.14,1.12-9.69.65-13.84-.13a49.39,49.39,0,0,1-11.81-4c-7.36-3.46-14.67-8.47-18.41-15.84-.28-.55-1.32-.11-1.21.46.95,4.75,4.67,7.94,8.27,10.8a55.78,55.78,0,0,0,10.12,6.15,45.67,45.67,0,0,0,12,4c4.58.8,10.9,1.15,15.17-1.18C232.9,311.59,232.52,311.35,232.36,311.4Z" style="fill:#E7B9B4"></path></g></g><g id="freepik--Plant--inject-235"><g id="freepik--Pot--inject-235"><path d="M417.35,369.14c8.55-8.72,13.57-44.22,5.23-51.13H380.16c-8.33,6.91-3.32,42.4,5.22,51.13l.24.24.29.28a8.72,8.72,0,0,0,.78.69,1.56,1.56,0,0,0,.2.16c.21.17.42.33.65.49a10.13,10.13,0,0,0,1.1.7c7,4.06,18.43,4.06,25.46,0h0a10.47,10.47,0,0,0,1.12-.71c.21-.14.4-.3.6-.45l.25-.2c.27-.22.51-.44.75-.66l.34-.33Z" style="fill:#E7B9B4"></path><g style="opacity:0.5"><path d="M417.35,369.14c8.55-8.72,13.57-44.22,5.23-51.13H380.16c-8.33,6.91-3.32,42.4,5.22,51.13l.24.24.29.28a8.72,8.72,0,0,0,.78.69,1.56,1.56,0,0,0,.2.16c.21.17.42.33.65.49a10.13,10.13,0,0,0,1.1.7c7,4.06,18.43,4.06,25.46,0h0a10.47,10.47,0,0,0,1.12-.71c.21-.14.4-.3.6-.45l.25-.2c.27-.22.51-.44.75-.66l.34-.33Z" style="fill:#fff"></path></g><path d="M383.85,315.22c-9.68,5.59-9.68,14.65,0,20.24s25.37,5.59,35,0,9.68-14.65,0-20.24S393.52,309.63,383.85,315.22Z" style="fill:#E7B9B4"></path><g style="opacity:0.7000000000000001"><path d="M383.85,315.22c-9.68,5.59-9.68,14.65,0,20.24s25.37,5.59,35,0,9.68-14.65,0-20.24S393.52,309.63,383.85,315.22Z" style="fill:#fff"></path></g><path d="M388.5,317.91c-7.11,4.1-7.11,10.76,0,14.86s18.63,4.1,25.74,0,7.11-10.76,0-14.86S395.61,313.8,388.5,317.91Z" style="fill:#E7B9B4"></path><g style="opacity:0.2"><path d="M388.5,317.91c-7.11,4.1-7.11,10.76,0,14.86s18.63,4.1,25.74,0,7.11-10.76,0-14.86S395.61,313.8,388.5,317.91Z" style="fill:#fff"></path></g><path d="M414.24,325c-7.11-4.1-18.63-4.1-25.74,0a11.83,11.83,0,0,0-4.26,3.91,11.9,11.9,0,0,0,4.26,3.9c7.11,4.1,18.63,4.1,25.74,0a11.82,11.82,0,0,0,4.26-3.9A11.75,11.75,0,0,0,414.24,325Z" style="fill:#f5f5f5"></path><g id="freepik--Plants--inject-235"><path d="M397.24,313.75l6.09-4.33s5-26.14.68-37.42-12.24-11.2-16-8.19-1.71,12.45-.16,17.92c1.86,6.57,7.8,36,3.62,46.46Z" style="fill:#E7B9B4"></path><g style="opacity:0.2"><path d="M397.24,313.75l6.09-4.33s5-26.14.68-37.42-12.24-11.2-16-8.19-1.71,12.45-.16,17.92c1.86,6.57,7.8,36,3.62,46.46Z"></path></g><path d="M398.45,310.71a.51.51,0,0,1-.3-.58c4.93-22.36-5.26-43.14-5.36-43.35a.51.51,0,0,1,.91-.46c.1.21,10.46,21.31,5.44,44a.51.51,0,0,1-.61.38Z" style="fill:#fff"></path><path d="M399.85,307s.68-2.06-2.35-2.58-4.18-3-4.47-7.26-1.55-7.25-5.35-7.87-6.85,1.29-9.31-.61-8.84-6.49-14.14-4.4-3.57,6.62-.81,9.56,3.56,3.92,1.45,8.7-.58,9.24,4.31,10.36,7.61.55,7.68,5.9c.07,4.79,1,9.27,6,11.08a25.34,25.34,0,0,0,12.36,1.22,6.84,6.84,0,0,0,3.79-1.58c1-1,.8-2.16.8-3.49V307Z" style="fill:#E7B9B4"></path><g style="opacity:0.1"><path d="M399.85,307s.68-2.06-2.35-2.58-4.18-3-4.47-7.26-1.55-7.25-5.35-7.87-6.85,1.29-9.31-.61-8.84-6.49-14.14-4.4-3.57,6.62-.81,9.56,3.56,3.92,1.45,8.7-.58,9.24,4.31,10.36,7.61.55,7.68,5.9c.07,4.79,1,9.27,6,11.08a25.34,25.34,0,0,0,12.36,1.22,6.84,6.84,0,0,0,3.79-1.58c1-1,.8-2.16.8-3.49V307Z"></path></g><path d="M399.85,329a.42.42,0,0,1-.4-.29c-8.88-26.38-29-37-29.2-37.14a.42.42,0,0,1,.39-.75c.2.11,20.61,10.91,29.61,37.63a.43.43,0,0,1-.27.53Z" style="fill:#fff"></path><path d="M387.1,306H387c-5.8-1.32-15.09-.61-15.18-.6a.42.42,0,0,1-.07-.84c.39,0,9.51-.73,15.44.62a.43.43,0,0,1,.31.51A.42.42,0,0,1,387.1,306Z" style="fill:#fff"></path><path d="M391.83,318.69c-2.65,0-5.46-.17-5.64-.18a.42.42,0,0,1-.39-.45.41.41,0,0,1,.44-.39,66,66,0,0,0,9.08,0,.43.43,0,0,1,.48.35.42.42,0,0,1-.35.48A24.83,24.83,0,0,1,391.83,318.69Z" style="fill:#fff"></path><path d="M384.38,302.91h0a.42.42,0,0,1-.39-.44,32,32,0,0,1,1.87-8.84.41.41,0,0,1,.54-.23.41.41,0,0,1,.24.54,31.55,31.55,0,0,0-1.81,8.58A.42.42,0,0,1,384.38,302.91Z" style="fill:#fff"></path><path d="M400,331.87a24.91,24.91,0,0,0,12.89.47c7.39-1.58,9.18-6.1,9.18-6.1s-5.26-5.48-9.93-5.79a41.64,41.64,0,0,1,14,.3s4.28-1.58,3.47-8.73c0,0-4-2.93-13.3-1.78,0,0,4.65-3.28,12.79-4.25.64,0-.22-9.31-1-13.46s-2.32-3.51-5.65-3.15-13.81,3.82-15.06,6.21,0,8.44,0,8.44-3.05-2.52-3.73-5.55a11.54,11.54,0,0,0-6.36,2.63c-2.94,2.49-2.09,4.06-1.13,6.53a27.69,27.69,0,0,0,3.85,7s-3.13-1.12-6.09-8.57c0,0-3.08,5.7-3.62,9.78S393.64,328.54,400,331.87Z" style="fill:#E7B9B4"></path><path d="M400.16,332.26a.43.43,0,0,0,.27-.36c1.11-13.85,16.79-35.49,23.72-39.84a.42.42,0,0,0-.45-.71c-7,4.42-23,26.41-24.11,40.49a.42.42,0,0,0,.38.45A.58.58,0,0,0,400.16,332.26Z" style="fill:#fff"></path></g></g></g><g id="freepik--Window--inject-235"><g id="freepik--window--inject-235"><polygon points="415.59 191.85 411.53 194.2 309.98 135.57 314.04 133.22 415.59 191.85" style="fill:#455a64"></polygon><polygon points="314.04 133.22 411.53 189.51 411.53 99.9 314.04 43.61 314.04 133.22" style="fill:#E7B9B4"></polygon><g style="opacity:0.8"><polygon points="314.04 133.22 411.53 189.51 411.53 99.9 314.04 43.61 314.04 133.22" style="fill:#fff"></polygon></g><polygon points="360.75 68.24 360.75 162.54 356.69 160.2 356.69 65.9 360.75 68.24" style="fill:#37474f"></polygon><polygon points="362.79 67.06 360.75 68.24 360.75 162.54 362.79 161.36 362.79 67.06" style="fill:#263238"></polygon><polygon points="360.75 68.24 356.69 65.9 358.72 64.72 362.79 67.06 360.75 68.24" style="fill:#fafafa"></polygon><path d="M305.92,137.91l109.67,63.32V97.55L305.92,34.23ZM310,41.27,411.53,99.9v94.3L310,135.57Z" style="fill:#37474f"></path><polygon points="309.98 135.57 314.04 133.22 314.04 43.61 309.98 41.27 309.98 135.57" style="fill:#263238"></polygon><polygon points="305.92 34.23 309.98 31.89 419.65 95.21 415.59 97.55 305.92 34.23" style="fill:#455a64"></polygon><polygon points="419.65 95.21 415.59 97.55 415.59 201.23 419.65 198.89 419.65 95.21" style="fill:#263238"></polygon><polygon points="360.75 70.58 356.7 68.24 356.7 70.59 360.75 72.93 360.75 70.58" style="fill:#263238"></polygon><polygon points="360.75 72.93 362.79 71.75 360.75 70.58 360.75 72.93"></polygon></g></g></svg>