<?xml version="1.0" encoding="iso-8859-1"?>
<!-- Generator: Adobe Illustrator 19.0.0, SVG Export Plug-In . SVG Version: 6.00 Build 0)  -->
<svg version="1.1" id="Layer_1" xmlns="http://www.w3.org/2000/svg" xmlns:xlink="http://www.w3.org/1999/xlink" x="0px" y="0px"
	 viewBox="0 0 512 512" style="enable-background:new 0 0 512 512;" xml:space="preserve">
<g>
	<g>
		<path d="M256,0C114.84,0,0,114.84,0,256s114.84,256,256,256s256-114.84,256-256S397.16,0,256,0z M237.268,473.725
			c-36.569-3.119-70.596-15.275-99.831-34.232c1.379-43.17,26.031-81.98,64.224-101.655c11.129,5.09,23.081,8.677,35.608,10.476
			V473.725z M188.566,283.433v0.094c-6.293-6.534-11.577-13.933-15.723-21.936c54.287-4.205,96.478-27.853,117.787-42.442
			c11.409,12.247,29.671,28.925,50.905,37.498c-4.421,9.913-10.533,19.021-18.101,26.88v-0.094
			c-17.05,17.709-40.969,28.762-67.434,28.762S205.615,301.142,188.566,283.433z M162.546,224.662
			c-0.134-2.032-0.205-4.072-0.205-6.125c0-51.643,42.015-93.659,93.659-93.659s93.659,42.015,93.659,93.659
			c0,0.197-0.009,0.393-0.01,0.592c-6.261-3.343-12.967-8.105-19.859-14.18c-12.593-11.1-21.27-22.534-21.34-22.627l-12.163-16.218
			l-15.208,13.406C280.58,179.949,231.909,222.147,162.546,224.662z M274.733,473.726V348.315h-0.001
			c12.525-1.799,24.479-5.386,35.608-10.476c38.193,19.675,62.845,58.484,64.225,101.656
			C345.328,458.45,311.301,470.607,274.733,473.726z M408.914,411.961c-8.046-39.363-30.992-74.146-64.044-97.014
			c26.588-24.525,42.251-59.335,42.251-96.411c0-72.301-58.821-131.122-131.122-131.122s-131.122,58.821-131.122,131.122
			c0,37.076,15.663,71.886,42.25,96.411c-33.051,22.868-55.998,57.65-64.044,97.014C62.616,372.275,37.463,317.024,37.463,256
			c0-120.501,98.035-218.537,218.537-218.537S474.537,135.499,474.537,256C474.537,317.024,449.384,372.275,408.914,411.961z"/>
	</g>
</g>
<g>
</g>
<g>
</g>
<g>
</g>
<g>
</g>
<g>
</g>
<g>
</g>
<g>
</g>
<g>
</g>
<g>
</g>
<g>
</g>
<g>
</g>
<g>
</g>
<g>
</g>
<g>
</g>
<g>
</g>
</svg>
