<svg id="Layer_1" data-name="Layer 1" xmlns="http://www.w3.org/2000/svg" xmlns:xlink="http://www.w3.org/1999/xlink" viewBox="0 0 480.26 461.3"><defs><linearGradient id="linear-gradient" x1="272.18" y1="179.95" x2="365.17" y2="179.95" gradientUnits="userSpaceOnUse"><stop offset="0" stop-color="#010101" stop-opacity="0"/><stop offset="0.95" stop-color="#010101"/></linearGradient><linearGradient id="linear-gradient-2" x1="279.23" y1="169.87" x2="252.75" y2="244.68" xlink:href="#linear-gradient"/><linearGradient id="linear-gradient-3" x1="172.69" y1="243.98" x2="341.15" y2="243.98" xlink:href="#linear-gradient"/><linearGradient id="linear-gradient-4" x1="273.93" y1="262.19" x2="167.68" y2="504.49" xlink:href="#linear-gradient"/><linearGradient id="linear-gradient-5" x1="356.44" y1="289.86" x2="227.49" y2="583.91" xlink:href="#linear-gradient"/><linearGradient id="linear-gradient-6" x1="240.04" y1="300.6" x2="267.97" y2="300.6" gradientUnits="userSpaceOnUse"><stop offset="0" stop-color="#fff" stop-opacity="0"/><stop offset="0.66" stop-color="#fff"/></linearGradient><linearGradient id="linear-gradient-7" x1="254.99" y1="292.13" x2="283.52" y2="292.13" xlink:href="#linear-gradient-6"/><linearGradient id="linear-gradient-8" x1="271.07" y1="283.75" x2="297.59" y2="283.75" xlink:href="#linear-gradient-6"/><linearGradient id="linear-gradient-9" x1="285.64" y1="275.71" x2="312.16" y2="275.71" xlink:href="#linear-gradient-6"/><linearGradient id="linear-gradient-10" x1="297.59" y1="285.85" x2="326.76" y2="285.85" xlink:href="#linear-gradient-6"/><linearGradient id="linear-gradient-11" x1="311.88" y1="296.73" x2="340.41" y2="296.73" xlink:href="#linear-gradient-6"/><linearGradient id="linear-gradient-12" x1="325.28" y1="306.98" x2="353.25" y2="306.98" xlink:href="#linear-gradient-6"/><linearGradient id="linear-gradient-13" x1="311.24" y1="315.44" x2="337.94" y2="315.44" xlink:href="#linear-gradient-6"/><linearGradient id="linear-gradient-14" x1="295.69" y1="324.05" x2="323.94" y2="324.05" xlink:href="#linear-gradient-6"/><linearGradient id="linear-gradient-15" x1="281.3" y1="332.73" x2="308.46" y2="332.73" xlink:href="#linear-gradient-6"/><linearGradient id="linear-gradient-16" x1="267.86" y1="322.34" x2="295.69" y2="322.34" xlink:href="#linear-gradient-6"/><linearGradient id="linear-gradient-17" x1="253.51" y1="311.39" x2="282.29" y2="311.39" xlink:href="#linear-gradient-6"/><linearGradient id="linear-gradient-18" x1="283.52" y1="294.14" x2="311.88" y2="294.14" xlink:href="#linear-gradient-6"/><linearGradient id="linear-gradient-19" x1="267.97" y1="302.71" x2="297.81" y2="302.71" xlink:href="#linear-gradient-6"/><linearGradient id="linear-gradient-20" x1="297.81" y1="305.11" x2="325.28" y2="305.11" xlink:href="#linear-gradient-6"/><linearGradient id="linear-gradient-21" x1="282.29" y1="313.68" x2="311.24" y2="313.68" xlink:href="#linear-gradient-6"/></defs><title>Card Payment</title><path d="M520.79,277.83c-3.77,6.74-8.47,13-13,19.3-4.9,6.91-9.52,14-12.27,22-4.13,12-3.67,25.15-5.68,37.7-5.54,35.13-30.58,65.18-61.44,82.81s-67,24.09-102.53,25.12-71-3.07-106.47-5.15C199.1,458.41,178,457.71,160,448.36c-11.5-5.92-21-15.06-29.8-24.58C74.42,363.15,43.78,280.13,46.81,197.84c.7-19.08,3.17-38.3,10-56.14,20.31-52.63,74-83.52,125-107.72,28.61-13.61,58.23-26.59,89.73-29.66,18.9-1.83,37.95,0,56.68,3.07,39.07,6.42,78.68,19.22,107.46,46.45,30.47,28.82,44.47,69.34,57.59,108.07,6.88,20.45,13,41.79,22.65,61.15,1.2,2.4,2.33,4.73,3.42,7C526.89,245.92,531,259.64,520.79,277.83Z" transform="translate(-46.6 -3.59)" fill="#f7aa35" opacity="0.24" style="isolation:isolate"/><path d="M102.23,244.63c-6.48,0-13.73.2-18.27,4.84s-4.59,12.17-1.82,18,7.83,10.09,13,13.93c41.94,31.34,96,41.53,141.21,67.92,27.4,16,53.93,38.65,85.65,38.13,25.14-.41,47.35-15.56,67.85-30.13,1.83-1.3,3.8-2.82,4.19-5,.57-3.18-2.35-5.79-5-7.69l-94-68.46c-11.34-8.26-22.79-16.58-35.59-22.33C212.9,232.84,151.91,245,102.23,244.63Z" transform="translate(-46.6 -3.59)" fill="#f7aa35" opacity="0.51" style="isolation:isolate"/><path d="M172.94,290.78s-27.31-24.66-.25-53.37l80.44-44.94a41,41,0,0,1,20.11,4.64c9.6,5.29,123.47,94.34,132.4,103.27s10.59,27.15,10.59,27.15.67,6-1.65,8.6-79.44,44.69-82.42,44-13.24-4.64-13.24-4.64Z" transform="translate(-46.6 -3.59)" fill="#f7aa35"/><path d="M273.05,131a4.49,4.49,0,0,1,6.47-3.89L360,166.16s5.34,3.35,5.16,9.49,0,55.06,0,55.06.64,5.54-8.14.41-81.09-47.34-81.09-47.34-3.17-1.31-3.64-9.43C271.92,168.06,272.65,143.22,273.05,131Z" transform="translate(-46.6 -3.59)" fill="#f7aa35"/><path d="M273.05,131a4.49,4.49,0,0,1,6.47-3.89L360,166.16s5.34,3.35,5.16,9.49,0,55.06,0,55.06.64,5.54-8.14.41-81.09-47.34-81.09-47.34-3.17-1.31-3.64-9.43C271.92,168.06,272.65,143.22,273.05,131Z" transform="translate(-46.6 -3.59)" fill="url(#linear-gradient)"/><path d="M271.8,133.44a4.5,4.5,0,0,1,6.47-3.89l80.49,39.09s5.34,3.35,5.15,9.5,0,55.05,0,55.05.65,5.54-8.13.41-81.09-47.33-81.09-47.33-3.17-1.31-3.65-9.44C270.67,170.55,271.41,145.71,271.8,133.44Z" transform="translate(-46.6 -3.59)" fill="#f7aa35"/><polygon points="224.15 157.11 316.5 206.76 318.55 227.12 224.44 173.25 224.15 157.11" fill="url(#linear-gradient-2)"/><path d="M520.79,277.83c-3.77,6.74-8.47,13-13,19.3-7.83-2.4-17.11-3.92-22.43-10.16-39.35-46.17-59.77-45.5-95-60.73-24.83-10.76-53.24-17.85-74.86-34.18-3.53-2.64-7.13-6.81-5.54-10.9s6.74-4.76,11-4.72a144.39,144.39,0,0,1,34.31,4.4,7.79,7.79,0,0,0,4.13.32c2.43-.7,3.56-3.6,3.46-6.13-.39-7.91-7-11.11-14.22-14.32C338.13,156,326.53,149.88,316,145.19c10.47.6,20.17-5.15,30.5-7.06A88,88,0,0,1,358.94,137q15.71-.58,31.46-1.13c3.53-.14,7.16-.28,10.55.74,4,1.24,7.37,3.92,10.51,6.7,16,14,28.88,31.18,43.2,46.91s60.35,37.6,64.72,39.82C526.89,245.92,531,259.64,520.79,277.83Z" transform="translate(-46.6 -3.59)" fill="#f3a984"/><path d="M168.72,186c-14-18.53-40.82-24.28-53.56-43.68,22.05-12.79,47.31-18.71,72.15-24.46,6.81,9.42,16.7,16,25.92,23.11s18.27,15.32,22.17,26.27c2.42,6.8,2.67,14.16,2.89,21.37l.32,10.56a3.6,3.6,0,0,1-2.3,4.12,191.57,191.57,0,0,1-19.5,10.37c-3.81,1.67-7.73,3.09-11.48,4.9-6.34,3.05-12,7.18-17.59,11.43-7.35,5.6-6.33-3.11-7-8.82C179.18,208.8,176.36,196.1,168.72,186Z" transform="translate(-46.6 -3.59)" fill="#fff"/><path d="M172.69,237.41s78.45-44.44,80.44-44.94,15.64,1.24,25.32,9.44,62.31,49.65,62.31,49.65S342,256.28,340,259s-64.55,38.23-71,36.49S200.25,228.47,172.69,237.41Z" transform="translate(-46.6 -3.59)" fill="#f7aa35"/><path d="M172.69,237.41s78.45-44.44,80.44-44.94,15.64,1.24,25.32,9.44,62.31,49.65,62.31,49.65S342,256.28,340,259s-64.55,38.23-71,36.49S200.25,228.47,172.69,237.41Z" transform="translate(-46.6 -3.59)" fill="url(#linear-gradient-3)"/><path d="M172.44,242.62s2.49-9.43,28.31,9.93S339.27,362.78,339.27,362.78l-3,15.39s-160.88-78.95-163.36-87.39S151.09,263,172.44,242.62Z" transform="translate(-46.6 -3.59)" fill="url(#linear-gradient-4)"/><polygon points="296.64 357.21 365.66 317.49 367.98 332.55 294.16 370.12 296.64 357.21" fill="url(#linear-gradient-5)"/><polygon points="325.28 306.34 311.24 314.49 297.81 303.88 311.88 295.73 325.28 306.34" fill="none"/><polygon points="267.97 301.55 253.51 309.91 240.03 299.29 254.99 291.28 267.97 301.55" fill="url(#linear-gradient-6)"/><polygon points="283.52 292.55 267.97 301.55 254.99 291.28 271.07 282.71 283.52 292.55" fill="url(#linear-gradient-7)"/><polygon points="297.6 284.41 283.52 292.55 271.07 282.71 285.6 274.95 285.64 274.95 297.6 284.41" fill="url(#linear-gradient-8)"/><polygon points="312.16 275.98 297.6 284.41 285.64 274.95 300.45 267.02 312.16 275.98" fill="url(#linear-gradient-9)"/><polygon points="326.76 287.12 311.88 295.73 297.6 284.41 312.16 275.98 326.76 287.12" fill="url(#linear-gradient-10)"/><polygon points="340.41 297.6 325.28 306.34 311.88 295.73 326.76 287.12 340.41 297.6" fill="url(#linear-gradient-11)"/><polygon points="353.25 307.4 337.94 316.36 325.28 306.34 340.41 297.6 353.25 307.4" fill="url(#linear-gradient-12)"/><polygon points="337.94 316.36 323.94 324.54 311.24 314.49 325.28 306.34 337.94 316.36" fill="url(#linear-gradient-13)"/><polygon points="323.94 324.54 308.46 333.61 295.69 323.49 311.24 314.49 323.94 324.54" fill="url(#linear-gradient-14)"/><polygon points="308.46 333.61 294.17 341.97 281.3 331.81 295.69 323.49 308.46 333.61" fill="url(#linear-gradient-15)"/><polygon points="295.69 323.49 281.3 331.81 267.86 321.23 282.29 312.87 295.69 323.49" fill="url(#linear-gradient-16)"/><polygon points="282.29 312.87 267.86 321.23 253.51 309.91 267.97 301.55 282.29 312.87" fill="url(#linear-gradient-17)"/><polygon points="311.88 295.73 297.81 303.88 283.52 292.55 297.6 284.41 311.88 295.73" fill="url(#linear-gradient-18)"/><polygon points="297.81 303.88 282.29 312.87 267.97 301.55 283.52 292.55 297.81 303.88" fill="url(#linear-gradient-19)"/><polygon points="325.28 306.34 311.24 314.49 297.81 303.88 311.88 295.73 325.28 306.34" fill="url(#linear-gradient-20)"/><polygon points="311.24 314.49 295.69 323.49 282.29 312.87 297.81 303.88 311.24 314.49" fill="url(#linear-gradient-21)"/></svg>