<svg id="Layer_1" data-name="Layer 1" xmlns="http://www.w3.org/2000/svg" xmlns:xlink="http://www.w3.org/1999/xlink" viewBox="0 0 317.62 296.85"><defs><linearGradient id="linear-gradient" x1="170.89" y1="237.44" x2="229.46" y2="320.59" gradientTransform="matrix(1, 0, 0, -1, 0, 352)" gradientUnits="userSpaceOnUse"><stop offset="0.01"/><stop offset="0.13" stop-opacity="0.69"/><stop offset="0.25" stop-opacity="0.32"/><stop offset="1" stop-opacity="0"/></linearGradient></defs><title>13</title><path d="M342.71,241.47c-.21,1.13-.43,2.25-.67,3.38-.35,1.71-.73,3.42-1.12,5.13a94.15,94.15,0,0,1-20.46,40.36A74.32,74.32,0,0,1,301,306.45a62.16,62.16,0,0,1-6,3,66.66,66.66,0,0,1-7,2.58,89.15,89.15,0,0,1-13.71,3c-3.44.49-6.93.82-10.45,1.05-15.11,1-30.83.08-46,1.5-13.36,1.24-25.76,5.46-38.82,7.73-20.62,3.57-42.17,1-62.35-6.27a148.09,148.09,0,0,1-45.76-26.65c-.27-.22-.53-.45-.79-.68q-4.86-4.23-9.3-8.83a133,133,0,0,1-11.37-13.47c-.15-.19-.29-.39-.43-.58a120.93,120.93,0,0,1-10.14-16.56A103.07,103.07,0,0,1,27.45,209.1c-1.24-36.62,14.83-69.39,33.43-98.86,14.7-23.3,31.54-45.8,54.88-61.35a111.45,111.45,0,0,1,55.48-18.7A99.34,99.34,0,0,1,200.39,33h0a106.05,106.05,0,0,1,13.49,4.36q5,2,9.8,4.41a141.92,141.92,0,0,1,17.6,10.57c2.82,2,5.58,4,8.25,6.19,8.61,6.89,16.71,14.81,21.68,24.22,8.67,16.43,12.61,33.8,22.54,49.92,11.05,18,28.47,31.46,40,49.07C346.9,201.92,346.47,221.68,342.71,241.47Z" transform="translate(-27.38 -30.06)" fill="#f7aa35" opacity="0.18" style="isolation:isolate"/><path d="M342,244.85c-.35,1.71-.73,3.42-1.12,5.13-5.09,22.42-19.55,45-39.91,56.47a62.16,62.16,0,0,1-6,3,66.66,66.66,0,0,1-7,2.58,89.15,89.15,0,0,1-13.71,3c-3.44.49-6.93.82-10.45,1.05-15.11,1-30.83.08-46,1.5-13.36,1.24-25.76,5.46-38.82,7.73-20.62,3.57-42.17,1-62.35-6.27a148.09,148.09,0,0,1-45.76-26.65c-.27-.22-.53-.45-.79-.68a137.38,137.38,0,0,1-20.67-22.3,122,122,0,0,0,71.88-22.73c6.86-5,13.42-10.8,21.51-13.36,15.57-4.94,31.84,3.32,46.91,9.62s34.5,10,46.11-1.49c2.2-2.17,4-4.79,6.38-6.72,3.14-2.52,7.13-3.68,11.06-4.52C283.41,223.73,314.28,232.89,342,244.85Z" transform="translate(-27.38 -30.06)" fill="#f7aa35" opacity="0.18" style="isolation:isolate"/><path d="M320.46,290.34A74.32,74.32,0,0,1,301,306.45a62.16,62.16,0,0,1-6,3,66.66,66.66,0,0,1-7,2.58,89.15,89.15,0,0,1-13.71,3c-3.44.49-6.93.82-10.45,1.05-15.11,1-30.83.08-46,1.5-13.36,1.24-25.76,5.46-38.82,7.73-20.62,3.57-42.17,1-62.35-6.27a148.09,148.09,0,0,1-45.76-26.65c-.27-.22-.53-.45-.79-.68q-4.86-4.23-9.3-8.83c6.56.41,14.35,1.34,14.84,1.35a36,36,0,0,0,24.63-8.78c2.71-2.4,5.29-5.35,8.84-6,5.36-1,10.64,3.59,16,2.45,2.65-.57,4.77-2.46,6.92-4.11a48.09,48.09,0,0,1,29.22-9.9c2.49,6.47-2.1,13.53-7.35,18.06s-11.64,8.3-14.6,14.57c4.94,5,13.43,2.09,19.51-1.49,1.42-.83,3-1.72,4.59-1.52,2.28.27,3.73,2.46,5.18,4.24,5.06,6.2,13.79,8.45,21.44,6.85,4.35-.91,6.9-3.2,10.47-5.48,2.38-1.53.67-.75,2.71-.39,2.2.39,1.92,1.67,4.81-.26a51.25,51.25,0,0,0,9-7,51.55,51.55,0,0,0,5.91-8.16l7-11.23c3.52-5.59,7-11.19,10.14-17a45.62,45.62,0,0,1,5.16-8.41,39.06,39.06,0,0,1,7.33-6.18c2.69-1.91,5.69-3.92,9-3.59a9.41,9.41,0,0,1,6.53,4.35c3.46,5.11,3.21,12,1,17.78s-6,10.77-9.45,15.86-6.73,10.61-7.51,16.73c-.28,2.24-.18,4.67,1.13,6.51,2.89,4.07,8.86,3.31,12.52,1.29,5.41-3,11.19-5.91,17.42-6.58C295.73,285.36,308.56,293.52,320.46,290.34Z" transform="translate(-27.38 -30.06)" fill="#f7aa35" opacity="0.18" style="isolation:isolate"/><path d="M174.67,99.77c-1.56,1.56-1.44,4.16-2.66,6a17.06,17.06,0,0,0-1.37,1.91,6.26,6.26,0,0,0-.45,1.53,102,102,0,0,0-1.85,11.91,29,29,0,0,1-.52,4.54,21.39,21.39,0,0,1-1,2.92c-3.33,8.31-9.85,15.17-12.4,23.75,0,0-1.3-.63,2.36,2,1.85,1.36,2.11,4.22,1.93,6.72a12.65,12.65,0,0,1-2.29,6.14c-1.67,2.45-3.78,8.13-.79,19.79,5,19.27-3.22,46.85-4.72,50.22s-29.84,20.28-32.47,21.22-3.57,8.07-3.57,8.07-1.31,7.88-2.81,8.07-3.38-.75-5.07-1.32-1.32-6.19-.57-7.32,2.07-11.07,3-13,4-1.78,4-1.78S123,243.91,126,239.12s15.76-8.44,15.76-8.44L143,206.26s-14.76,21.74-16.87,24a13.7,13.7,0,0,1-5.41,3.22,201.33,201.33,0,0,1-31.47,6.76,7.5,7.5,0,0,0-3.07.85,7,7,0,0,0-1.77,1.79,77.93,77.93,0,0,0-7.55,11.93c-.26.5-.58,1.06-1.13,1.17a1.85,1.85,0,0,1-1.21-.32l-4-2.09a4,4,0,0,1-1.68-1.32c-.7-1.17,0-2.66.66-3.84A77,77,0,0,1,81,233.63c4.36.42,13.93-3.38,13.93-3.38,13.52-7.6,23.23-6.9,23.23-6.9S127,205.76,125.77,196s8.3-16,8.3-16c3.94-12-5.21-13.65-8.3-16.75s-27-3.38-29.15-5.35,5.79-29.41,5.79-29.41a5.23,5.23,0,0,1,0-3.89,13.65,13.65,0,0,0,.73-1.72,8.66,8.66,0,0,0,0-2.49,13.73,13.73,0,0,1,.1-1.92c0-.3.18-.7.48-.66s.31.25.38.45a13.83,13.83,0,0,1,.56,2.1,31.91,31.91,0,0,1,1.14-4.07.31.31,0,0,1,.25-.3c.14,0,.27.13.33.27.42,1,0,2.27.48,3.26a25.07,25.07,0,0,1,1.38-3.55,1.14,1.14,0,0,1,.34-.47.4.4,0,0,1,.54,0,.55.55,0,0,1,.06.4c-.14,1.44-.74,2.84-.6,4.28a7.57,7.57,0,0,0,1-2.11,1.48,1.48,0,0,1,.35-.72,1.45,1.45,0,0,1,1.31-.13.34.34,0,0,1,.19.09.34.34,0,0,1,0,.28c-.61,2.06-1.64,4-2,6.12a.56.56,0,0,0,.09.51.47.47,0,0,0,.46,0,7.5,7.5,0,0,0,1.83-1.17,1.79,1.79,0,0,1,2-.2,6.27,6.27,0,0,1-1.69,2,34.34,34.34,0,0,0-4.8,5.21c-.44.61-.52,1.26-.94,1.88-1.3,1.93-2.28,18.72-2.28,18.72s4.21-.16,9-.23h3.36c4.7-.09,9.12-.2,9.88-.42a5.52,5.52,0,0,0,3.85-3.33c.58-1.78.85-5.32,1.44-5.32,1.5,0,4.13-1.25,5.51-.66,2,.84,1.81,2.51,3.33,4a7.62,7.62,0,0,0,2.1,1.18c3.16,1.14,6.37-4.35,8-6.28l7.63-8.83c.23-.26,1.51-1.37,1.49-1.73-.14-3.24,7.47-23.11,7.47-23.11-.22-2.45.5-4.89.52-7.35,0-1-.1-1.94-.1-2.91a13.29,13.29,0,0,1,.38-3.14,3.9,3.9,0,0,1,.48-1.24c.19-.3.54-.57.86-.43s.33.65.29,1a9.65,9.65,0,0,0,.49,4.36c.24.69.57,1.36.75,2.08a9.85,9.85,0,0,0,.39,1.51.29.29,0,0,0,.13.16.22.22,0,0,0,.22,0,3.18,3.18,0,0,0,1-.52,8.3,8.3,0,0,1,.8-.64,1,1,0,0,1,1-.09A.77.77,0,0,1,174.67,99.77Z" transform="translate(-27.38 -30.06)" fill="#ffb79c"/><path d="M131.39,142.33s3.26,4.72,8.54,3.72c0,0,1.18,0-.14-2.12a10.57,10.57,0,0,0-3.51-3.24Z" transform="translate(-27.38 -30.06)" fill="#ef9d84"/><path d="M127.43,187.51S140.65,203,142,207.64h2.28s11.74-10.7,12-17.73l-.63-2.9s-7.34,7.19-26.48-2.2A3.1,3.1,0,0,0,127.43,187.51Z" transform="translate(-27.38 -30.06)" fill="#f7aa35"/><path d="M127.76,149.58s9.33,8.25,1.78,16.27c0,0,5.35,2.93,5.37,6.88,0,0,17,.54,20.11-2.53,0,0,8.54-10.42,1.76-15.83s-11.63-8.89-11.63-8.89l-2.09.49s10.25,8.13,5.47,10.38-19-8.29-19-8.29Z" transform="translate(-27.38 -30.06)" fill="#f7aa35"/><path d="M136.35,128.4s7.79,8.07,5.72,12.67-9.85,2.26-11.73.66-8.16-7.7-5.72-12.11S132,125,136.35,128.4Z" transform="translate(-27.38 -30.06)" fill="#ffb79c"/><path d="M133.1,126.4c.16.75-1.74,1.58-2.14,2.21-.71,1.13-.74,2.54-1.19,3.78a6,6,0,0,1-3.93,3.64,9.17,9.17,0,0,0,4.51,5.51c-.65,1.45-2.48,1.84-4.06,2a4.64,4.64,0,0,1-2.45-.12c-1.79-.78-1.93-3.37-3.44-4.61-.35-.48-1.19-.16-1.39.4a2.85,2.85,0,0,0,.15,1.73,11.12,11.12,0,0,1-.39,7l-1.65-5.3a26,26,0,0,1-.17,6.05,13.22,13.22,0,0,1-.35,1.75h-3.36c0-1.71-1.23-3.38-2.15-4.92a9.74,9.74,0,0,1-1.63-5.2,4.84,4.84,0,0,1,2.78-4.4c1.67-.66,3.54-.07,5.21.56a10.8,10.8,0,0,1,12.41-11.21C130.44,125.39,133,125.71,133.1,126.4Z" transform="translate(-27.38 -30.06)" fill="#473f47"/><path d="M135.34,124.73a3.75,3.75,0,0,0-1.68-2.44,4.76,4.76,0,0,0-1.56-.46,6.25,6.25,0,0,0-1.93,0,5,5,0,0,0-3.35,2.32,8.57,8.57,0,0,0-1.21,4,7.66,7.66,0,0,0,.12,2.24c.19.87.59,1.68.81,2.54a6.16,6.16,0,0,1-1,5.06,4.26,4.26,0,0,0,2.4,0,4,4,0,0,0,2.33-2.67,11.81,11.81,0,0,0,.36-3.65,1.81,1.81,0,0,0,.62,1.28,25.31,25.31,0,0,1,.43-3.59,2.5,2.5,0,0,1,.9-1.74c.93-.58,2.21.72,2.78.26S135.47,125.27,135.34,124.73Z" transform="translate(-27.38 -30.06)" fill="#473f47"/><path d="M207.06,83a13.3,13.3,0,1,1-13.3-13.34A13.31,13.31,0,0,1,207.06,83Z" transform="translate(-27.38 -30.06)" fill="#f7aa35"/><path d="M200.76,94.35a13.32,13.32,0,1,1-10.07-24.3h.08A16.58,16.58,0,0,0,186,75.67c-.55,1-1,2.4-.27,3.37s2,1,3.12,1a11.5,11.5,0,0,0,2.56,10.39c.72.79,1.81,1.52,2.78,1.07.44-.2.87-.64,1.32-.46a1.28,1.28,0,0,1,.49.49C197,92.91,199.7,93.34,200.76,94.35Z" transform="translate(-27.38 -30.06)" fill="url(#linear-gradient)"/><path d="M203,73.46s-9-.57-12.75,6.66" transform="translate(-27.38 -30.06)" fill="none" stroke="#fff" stroke-linecap="round" stroke-linejoin="round"/><path d="M180.88,79.53s7.79-.82,10.33,1.34c0,0,.09,8.16,4.5,10.7,0,0-.8,3.59-3.4,4.7" transform="translate(-27.38 -30.06)" fill="none" stroke="#fff" stroke-linecap="round" stroke-linejoin="round"/><path d="M185.68,79.41s-.76,11,8.06,15.86" transform="translate(-27.38 -30.06)" fill="none" stroke="#fff" stroke-linecap="round" stroke-linejoin="round"/><path d="M183.15,74.93s6.6-1.34,9.56,1.85" transform="translate(-27.38 -30.06)" fill="none" stroke="#fff" stroke-linecap="round" stroke-linejoin="round"/><path d="M189.7,70.32s6.06-.74,7.78,3.93" transform="translate(-27.38 -30.06)" fill="none" stroke="#fff" stroke-linecap="round" stroke-linejoin="round"/><path d="M191.46,83.54S200.72,77,206,77.71" transform="translate(-27.38 -30.06)" fill="none" stroke="#fff" stroke-linecap="round" stroke-linejoin="round"/><path d="M193.08,88.7s12.62-3.61,14-5.68" transform="translate(-27.38 -30.06)" fill="none" stroke="#fff" stroke-linecap="round" stroke-linejoin="round"/><path d="M195.46,92.4s7.47-.32,10.22-3.45" transform="translate(-27.38 -30.06)" fill="none" stroke="#fff" stroke-linecap="round" stroke-linejoin="round"/></svg>